<svg width="48" height="48" viewBox="0 0 48 48" fill="none" xmlns="http://www.w3.org/2000/svg">
<rect width="48" height="48" rx="4" fill="white"/>
<path opacity="0.2" d="M24.7173 40.3638C27.6461 40.2915 30.4996 39.4027 32.9693 37.7937C35.4389 36.1848 37.4306 33.9168 38.7287 31.2354L29.6714 25.5471C29.5155 25.4448 29.3385 25.3807 29.1543 25.3598L25.3345 24.8318C25.0495 24.7901 24.759 24.846 24.5085 24.9908C24.258 25.1357 24.0616 25.3613 23.9501 25.6323L21.6649 30.8607C21.5574 31.1039 21.5223 31.3739 21.5638 31.6373C21.6053 31.9007 21.7217 32.1459 21.8984 32.3424L25.0343 35.7996C25.176 35.9587 25.2799 36.149 25.3378 36.3558C25.3956 36.5626 25.4059 36.7802 25.3679 36.9917L24.7173 40.3638Z" fill="#006644"/>
<path opacity="0.2" d="M13.4113 11.6084L11.8343 15.1766C11.697 15.4934 11.6907 15.8486 11.8168 16.1696L13.8318 21.32C13.9106 21.5346 14.0454 21.7263 14.2233 21.8766C14.4012 22.0269 14.6164 22.1308 14.8481 22.1784L15.7943 22.3635L17.2486 19.0478C17.3577 18.804 17.5385 18.5961 17.7688 18.4496C17.9991 18.3031 18.2689 18.2244 18.5452 18.223H22.2948C22.5273 18.217 22.7552 18.1594 22.9607 18.0547L25.1159 16.9102C25.2114 16.8597 25.2998 16.7974 25.3787 16.7251L30.092 12.6351C30.3227 12.429 30.4754 12.1551 30.5262 11.8565C30.577 11.5579 30.5228 11.2515 30.3724 10.9857L28.7429 8.15802C27.3404 7.8118 25.8981 7.6365 24.45 7.63626C20.3904 7.62877 16.4666 9.04068 13.4113 11.6084Z" fill="#006644"/>
<path fill-rule="evenodd" clip-rule="evenodd" d="M25.4473 24.0216L29.2555 24.548C29.5608 24.5843 29.853 24.6906 30.1104 24.8579L39.1617 30.5423C39.5444 30.7827 39.6598 31.2877 39.4194 31.6703C39.1791 32.053 38.6741 32.1684 38.2914 31.9281L29.2341 26.2398L29.2202 26.2309C29.1709 26.1985 29.116 26.1789 29.06 26.1726C29.0534 26.1719 29.0467 26.171 29.0401 26.1701L25.2137 25.6412C25.1121 25.6263 25.0076 25.6459 24.9159 25.699C24.8238 25.7522 24.7483 25.8371 24.7046 25.9434L24.6976 25.9598L22.4112 31.1911C22.3674 31.2901 22.3528 31.4011 22.3699 31.5098C22.3869 31.6179 22.4343 31.7165 22.5037 31.7941C22.504 31.7944 22.5043 31.7948 22.5046 31.7951L25.643 35.2551C25.8683 35.5079 26.0324 35.8093 26.1235 36.1351C26.2147 36.4609 26.2309 36.8035 26.171 37.1364L26.1692 37.1466L25.5186 40.5186C25.433 40.9623 25.0039 41.2526 24.5602 41.167C24.1165 41.0814 23.8263 40.6523 23.9118 40.2087L24.5612 36.8427C24.5766 36.7539 24.5719 36.6626 24.5477 36.5761C24.5234 36.4893 24.4804 36.4107 24.4232 36.3459L21.2879 32.8893C21.0044 32.5741 20.8194 32.1827 20.7535 31.7645C20.6877 31.347 20.743 30.9185 20.9136 30.5316L23.1951 25.3116C23.375 24.8799 23.6907 24.5171 24.0968 24.2823C24.5051 24.0463 24.9802 23.954 25.4473 24.0216Z" fill="#006644"/>
<path fill-rule="evenodd" clip-rule="evenodd" d="M28.3321 7.7489C28.7217 7.51996 29.2231 7.65019 29.452 8.03978L31.0822 10.814C31.3268 11.2378 31.4171 11.7316 31.3333 12.2153C31.2496 12.6984 30.9991 13.1325 30.6328 13.4534L30.6239 13.4611L25.9254 17.4594C25.7969 17.5735 25.6547 17.671 25.5025 17.7499C25.5023 17.75 25.5027 17.7498 25.5025 17.7499L23.3514 18.8702L23.3393 18.8764C23.0255 19.0332 22.6799 19.1184 22.3294 19.1272C22.3225 19.1274 22.3156 19.1275 22.3087 19.1275H18.5673C18.441 19.1284 18.3213 19.164 18.2229 19.2254C18.1253 19.2863 18.0558 19.3677 18.0157 19.4544L16.5653 22.6974C16.3808 23.1099 15.8968 23.2948 15.4843 23.1103C15.0718 22.9258 14.887 22.4418 15.0715 22.0293L16.5261 18.7771C16.704 18.3872 16.9953 18.0625 17.3568 17.837C17.7179 17.6117 18.1363 17.4932 18.5611 17.4911L18.565 17.4911L22.2966 17.4911C22.4053 17.4872 22.51 17.4606 22.6028 17.4151L24.7487 16.2976C24.7834 16.2795 24.8141 16.2581 24.8406 16.2343C24.8461 16.2293 24.8518 16.2243 24.8575 16.2195L29.558 12.2195C29.6502 12.1374 29.7036 12.0363 29.721 11.9359C29.7384 11.8355 29.721 11.7302 29.6661 11.634L28.0412 8.86882C27.8123 8.47924 27.9425 7.97783 28.3321 7.7489Z" fill="#006644"/>
<path fill-rule="evenodd" clip-rule="evenodd" d="M14.1085 10.5733C14.5198 10.7603 14.7017 11.2453 14.5147 11.6567L12.5865 15.8988L13.9631 21.5257L17.3371 22.8275C17.6251 22.9386 17.826 23.2023 17.8567 23.5095L18.221 27.1516L21.9085 28.9954C22.3127 29.1975 22.4765 29.689 22.2744 30.0931C22.0723 30.4973 21.5809 30.6611 21.1767 30.459L17.0858 28.4136C16.8347 28.288 16.6655 28.0425 16.6376 27.7632L16.2786 24.173L12.9754 22.8986C12.7256 22.8022 12.5388 22.5898 12.4751 22.3297L10.9297 16.0126C10.8861 15.8343 10.9037 15.6466 10.9796 15.4796L13.025 10.9796C13.212 10.5682 13.6971 10.3863 14.1085 10.5733Z" fill="#006644"/>
<path fill-rule="evenodd" clip-rule="evenodd" d="M24.0021 8.45472C15.4166 8.45472 8.45668 15.4147 8.45668 24.0002C8.45668 32.5857 15.4166 39.5456 24.0021 39.5456C32.5877 39.5456 39.5476 32.5857 39.5476 24.0002C39.5476 15.4147 32.5877 8.45472 24.0021 8.45472ZM6.82031 24.0002C6.82031 14.5109 14.5129 6.81836 24.0021 6.81836C33.4914 6.81836 41.184 14.5109 41.184 24.0002C41.184 33.4894 33.4914 41.182 24.0021 41.182C14.5129 41.182 6.82031 33.4894 6.82031 24.0002Z" fill="#36B37E"/>
</svg>
