<svg width="48" height="48" viewBox="0 0 48 48" fill="none" xmlns="http://www.w3.org/2000/svg">
<rect width="48" height="48" rx="4" fill="white"/>
<path fill-rule="evenodd" clip-rule="evenodd" d="M23.6254 14.3011C23.6249 14.3012 23.6244 14.3014 23.6239 14.3015L16.1027 16.5007C15.669 16.6275 15.2146 16.3787 15.0878 15.945C14.961 15.5113 15.2098 15.0569 15.6435 14.9301L23.1728 12.7285C23.6266 12.5984 24.1119 12.6337 24.5421 12.8281L24.5433 12.8286L29.6188 15.1317C30.0303 15.3184 30.2125 15.8034 30.0258 16.2148C29.8391 16.6263 29.3541 16.8085 28.9426 16.6218L23.8682 14.3193C23.8681 14.3192 23.8684 14.3193 23.8682 14.3193C23.792 14.285 23.7058 14.2784 23.6254 14.3011Z" fill="#006644"/>
<path opacity="0.2" d="M34.5605 27.612L29.1623 33.0103C29.0152 33.1479 28.8369 33.2478 28.6427 33.3014C28.4486 33.3551 28.2443 33.3609 28.0474 33.3184L19.5393 31.1913C19.3839 31.148 19.2391 31.0731 19.1139 30.9713L11.0898 24.7075L15.872 15.7153L23.3973 13.515C23.6647 13.4383 23.9506 13.4591 24.2041 13.5736L29.2796 15.8767H26.2431C26.0907 15.8762 25.9397 15.9057 25.7988 15.9636C25.6578 16.0215 25.5297 16.1066 25.4216 16.2141L19.6713 21.9497C19.5539 22.0703 19.4634 22.2144 19.4059 22.3725C19.3484 22.5306 19.325 22.6992 19.3375 22.867C19.35 23.0348 19.398 23.198 19.4783 23.3459C19.5586 23.4937 19.6694 23.6229 19.8033 23.7247L20.5955 24.3261C21.409 24.9333 22.3969 25.2613 23.412 25.2613C24.427 25.2613 25.415 24.9333 26.2284 24.3261L28.1061 22.9179L34.5605 27.612Z" fill="#006644"/>
<path fill-rule="evenodd" clip-rule="evenodd" d="M36.5104 14.7513C36.4247 14.7238 36.3317 14.7313 36.2516 14.7722L36.2459 14.775L36.2459 14.775L33.3238 16.2361L37.2602 23.7644L40.1649 22.318C40.165 22.3179 40.165 22.3179 40.1651 22.3179C40.2074 22.2967 40.2451 22.2673 40.2759 22.2314C40.3068 22.1955 40.3301 22.1537 40.3446 22.1086C40.3591 22.0635 40.3644 22.016 40.3603 21.9688C40.3561 21.9216 40.3425 21.8757 40.3204 21.8338L40.3183 21.8299L40.3183 21.8299L36.7097 14.9207L36.7087 14.9188C36.6673 14.839 36.596 14.7787 36.5104 14.7513ZM40.5304 23.0505L40.8949 23.7825L37.2716 25.5868C36.8727 25.7854 36.3883 25.6284 36.1818 25.2335L31.4877 16.256C31.3859 16.0614 31.3667 15.8341 31.4342 15.6252C31.5017 15.4163 31.6504 15.2433 31.8468 15.1451L35.5117 13.3126C35.9759 13.0771 36.5144 13.0341 37.0101 13.1931C37.5067 13.3524 37.9202 13.7014 38.1606 14.1641C38.1608 14.1644 38.161 14.1648 38.1612 14.1652L41.7668 21.0685C41.7672 21.0693 41.7676 21.07 41.7679 21.0708C41.8914 21.3049 41.967 21.5613 41.9903 21.825C42.0136 22.0895 41.9838 22.356 41.9026 22.6089C41.8214 22.8617 41.6905 23.0958 41.5175 23.2973C41.3445 23.4988 41.133 23.6637 40.8954 23.7822L40.5304 23.0505Z" fill="#36B37E"/>
<path fill-rule="evenodd" clip-rule="evenodd" d="M11.7562 14.616C11.6736 14.5766 11.5789 14.5706 11.4919 14.5994C11.4039 14.6284 11.3308 14.6906 11.2881 14.7728L7.6762 21.6882C7.65477 21.7285 7.64166 21.7728 7.63767 21.8183C7.63368 21.8638 7.63888 21.9096 7.65296 21.953C7.66704 21.9965 7.68971 22.0367 7.71963 22.0712C7.74955 22.1057 7.7861 22.1338 7.82712 22.1539L7.83415 22.1574L10.7377 23.6151L14.6739 16.0748L11.7562 14.616ZM10.9788 13.0455C11.4718 12.8827 12.0087 12.9189 12.4754 13.1462L12.4831 13.1499L16.1504 14.9836C16.3467 15.0817 16.4953 15.2546 16.5629 15.4634C16.6305 15.6723 16.6113 15.8995 16.5098 16.094L11.8156 25.0862C11.6089 25.4823 11.1226 25.6393 10.7232 25.4388L7.10303 23.6214C6.86663 23.5049 6.65588 23.3422 6.48322 23.1431C6.30959 22.9428 6.17801 22.7097 6.0963 22.4575C6.01458 22.2054 5.9844 21.9394 6.00756 21.6753C6.03061 21.4124 6.1061 21.1567 6.22955 20.9234L9.83642 14.0175C9.83652 14.0173 9.83631 14.0178 9.83642 14.0175C10.076 13.5573 10.4861 13.2082 10.9788 13.0455Z" fill="#006644"/>
<path fill-rule="evenodd" clip-rule="evenodd" d="M10.4467 24.2039C10.7248 23.8477 11.2389 23.7844 11.5951 24.0624L19.6192 30.3262L19.632 30.3364C19.6679 30.3656 19.7091 30.3875 19.7533 30.4008L28.2315 32.5204C28.2962 32.5328 28.363 32.5302 28.4266 32.5126C28.4901 32.4951 28.5487 32.4632 28.5978 32.4194L33.9606 27.0566L36.2864 24.3238C36.5792 23.9797 37.0956 23.9381 37.4397 24.231C37.7838 24.5239 37.8254 25.0402 37.5325 25.3843L35.1854 28.1422C35.1712 28.1588 35.1564 28.1749 35.1409 28.1904L29.7426 33.5887C29.7362 33.5951 29.7296 33.6015 29.7229 33.6077C29.4793 33.8356 29.184 34.001 28.8625 34.0899C28.5409 34.1787 28.2026 34.1884 27.8765 34.1179C27.8679 34.1161 27.8593 34.1141 27.8508 34.1119L19.3427 31.9849C19.3356 31.9831 19.3285 31.9813 19.3214 31.9793C19.0606 31.9066 18.8174 31.7815 18.6066 31.6117L10.5882 25.3523C10.232 25.0743 10.1687 24.5601 10.4467 24.2039Z" fill="#006644"/>
<path fill-rule="evenodd" clip-rule="evenodd" d="M26.2437 16.695C26.1989 16.6948 26.1545 16.7035 26.1131 16.7205C26.0718 16.7375 26.0342 16.7624 26.0025 16.7939C26.0024 16.794 26.0026 16.7938 26.0025 16.7939L20.2579 22.5238C20.2228 22.5607 20.1956 22.6045 20.1782 22.6524C20.1603 22.7016 20.153 22.7541 20.1569 22.8064C20.1608 22.8586 20.1757 22.9095 20.2008 22.9555C20.2257 23.0014 20.26 23.0415 20.3016 23.0732L21.0909 23.6725C21.7626 24.1729 22.5778 24.4432 23.4154 24.4432C24.2538 24.4432 25.0697 24.1724 25.7417 23.6712C25.742 23.6709 25.7423 23.6707 25.7425 23.6705L27.6187 22.2634C27.906 22.0479 28.3003 22.045 28.5908 22.2563L35.0452 26.9504C35.4107 27.2162 35.4915 27.7279 35.2257 28.0934C34.9599 28.4588 34.4482 28.5396 34.0828 28.2738L28.117 23.9351L26.7228 24.9808L26.7213 24.9819C25.7664 25.6946 24.6069 26.0796 23.4154 26.0796C22.224 26.0796 21.0644 25.6946 20.1096 24.9819L20.1042 24.9779L19.312 24.3764C19.0858 24.2045 18.8983 23.9861 18.7628 23.7364C18.6272 23.4867 18.5461 23.2111 18.5251 22.9277C18.504 22.6444 18.5433 22.3598 18.6405 22.0928C18.7377 21.8258 18.8904 21.5825 19.0887 21.3789L19.097 21.3705L24.848 15.6342C25.0323 15.4508 25.2509 15.3056 25.4914 15.2068C25.7314 15.1083 25.9884 15.0579 26.2478 15.0586C26.2484 15.0586 26.2489 15.0586 26.2494 15.0586L26.2466 15.8768V15.0586H26.2478H32.2169C32.6688 15.0586 33.0351 15.4249 33.0351 15.8768C33.0351 16.3287 32.6688 16.695 32.2169 16.695H26.2466L26.2437 16.695Z" fill="#36B37E"/>
<path fill-rule="evenodd" clip-rule="evenodd" d="M37.4416 24.231C37.7858 24.5239 37.8273 25.0402 37.5344 25.3844L35.1874 28.1422C34.8945 28.4863 34.3781 28.5278 34.034 28.235C33.6899 27.9421 33.6483 27.4257 33.9412 27.0816L36.2883 24.3238C36.5812 23.9797 37.0975 23.9381 37.4416 24.231Z" fill="#36B37E"/>
<path fill-rule="evenodd" clip-rule="evenodd" d="M12.8173 31.6381C13.1133 31.2967 13.6301 31.26 13.9714 31.556L17.2867 34.4312L17.2958 34.4392C17.3296 34.4695 17.3707 34.4906 17.415 34.5006C17.4217 34.5021 17.4283 34.5037 17.435 34.5054L21.8504 35.6203C22.2885 35.7309 22.554 36.1757 22.4434 36.6138C22.3328 37.052 21.8879 37.3175 21.4498 37.2068L17.043 36.0941C16.7341 36.0224 16.4479 35.8745 16.2106 35.664L12.8993 32.7923C12.5579 32.4962 12.5212 31.9795 12.8173 31.6381Z" fill="#36B37E"/>
</svg>
