<svg width="48" height="48" viewBox="0 0 48 48" fill="none" xmlns="http://www.w3.org/2000/svg">
<rect width="48" height="48" rx="4" fill="white"/>
<path opacity="0.2" fill-rule="evenodd" clip-rule="evenodd" d="M33.7124 14.1711H20.7267V23.9934C20.6445 24.7318 20.6016 25.494 20.6016 26.2735C20.6016 27.0529 20.6445 27.8152 20.7267 28.5536V38.3757H27.645C27.6504 38.3758 27.6558 38.3758 27.6612 38.3758C27.6666 38.3758 27.672 38.3758 27.6774 38.3757H33.7124C37.6079 38.3757 40.7721 32.9549 40.7721 26.2734C40.7721 19.592 37.6079 14.1711 33.7124 14.1711ZM27.6774 38.3757C31.5689 38.3608 34.7209 32.9481 34.7209 26.2735C34.7209 19.5896 31.5602 14.1712 27.6612 14.1712C24.217 14.1712 21.3488 18.3995 20.7267 23.9934V28.5536C21.3478 34.1387 24.208 38.3625 27.645 38.3757H27.6774Z" fill="#006644"/>
<path fill-rule="evenodd" clip-rule="evenodd" d="M23.3778 18.1281C22.1853 20.1724 21.4215 23.0504 21.4215 26.2735C21.4215 29.4966 22.1853 32.3746 23.3778 34.4189C24.582 36.4832 26.1253 37.5576 27.663 37.5576C29.2007 37.5576 30.744 36.4832 31.9482 34.4189C33.1407 32.3746 33.9045 29.4966 33.9045 26.2735C33.9045 23.0504 33.1407 20.1724 31.9482 18.1281C30.744 16.0638 29.2007 14.9894 27.663 14.9894C26.1253 14.9894 24.582 16.0638 23.3778 18.1281ZM21.9643 17.3036C23.3153 14.9878 25.3017 13.353 27.663 13.353C30.0243 13.353 32.0108 14.9878 33.3617 17.3036C34.7243 19.6396 35.5409 22.8127 35.5409 26.2735C35.5409 29.7343 34.7243 32.9074 33.3617 35.2434C32.0108 37.5592 30.0243 39.194 27.663 39.194C25.3017 39.194 23.3153 37.5592 21.9643 35.2434C20.6017 32.9074 19.7852 29.7343 19.7852 26.2735C19.7852 22.8127 20.6017 19.6396 21.9643 17.3036Z" fill="#36B37E"/>
<path fill-rule="evenodd" clip-rule="evenodd" d="M26.8438 14.1712C26.8438 13.7193 27.2101 13.353 27.6619 13.353H33.7131C36.0729 13.353 38.0593 14.9887 39.4104 17.3045C40.7734 19.6406 41.5909 22.8137 41.5909 26.2735C41.5909 29.7333 40.7734 32.9064 39.4104 35.2425C38.0593 37.5583 36.0729 39.194 33.7131 39.194H27.6619C27.2101 39.194 26.8438 38.8277 26.8438 38.3758C26.8438 37.9239 27.2101 37.5576 27.6619 37.5576H33.7131C35.2487 37.5576 36.7922 36.4829 37.997 34.4179C39.19 32.3732 39.9546 29.4952 39.9546 26.2735C39.9546 23.0518 39.19 20.1738 37.997 18.1291C36.7922 16.0641 35.2487 14.9894 33.7131 14.9894H27.6619C27.2101 14.9894 26.8438 14.6231 26.8438 14.1712Z" fill="#36B37E"/>
<path fill-rule="evenodd" clip-rule="evenodd" d="M32.1016 18.2054C32.1016 17.7535 32.4679 17.3872 32.9197 17.3872H38.9709C39.4228 17.3872 39.7891 17.7535 39.7891 18.2054C39.7891 18.6573 39.4228 19.0236 38.9709 19.0236H32.9197C32.4679 19.0236 32.1016 18.6573 32.1016 18.2054Z" fill="#36B37E"/>
<path fill-rule="evenodd" clip-rule="evenodd" d="M33.9062 26.2735C33.9062 25.8216 34.2726 25.4553 34.7244 25.4553H40.7756C41.2275 25.4553 41.5938 25.8216 41.5938 26.2735C41.5938 26.7254 41.2275 27.0917 40.7756 27.0917H34.7244C34.2726 27.0917 33.9062 26.7254 33.9062 26.2735Z" fill="#36B37E"/>
<path fill-rule="evenodd" clip-rule="evenodd" d="M32.1016 34.3416C32.1016 33.8897 32.4679 33.5234 32.9197 33.5234H38.9709C39.4228 33.5234 39.7891 33.8897 39.7891 34.3416C39.7891 34.7935 39.4228 35.1598 38.9709 35.1598H32.9197C32.4679 35.1598 32.1016 34.7935 32.1016 34.3416Z" fill="#36B37E"/>
<path d="M16.5174 23.8242L7.30145 16.9122C7.15171 16.7985 7.0301 16.6518 6.946 16.4836C6.8619 16.3154 6.81757 16.1302 6.81641 15.9421V10.4853C6.81641 10.1637 6.94416 9.85528 7.17157 9.62787C7.39899 9.40046 7.70742 9.27271 8.02903 9.27271H25.0057C25.3273 9.27271 25.6358 9.40046 25.8632 9.62787C26.0906 9.85528 26.2183 10.1637 26.2183 10.4853V15.8815C26.2172 16.0695 26.1728 16.2548 26.0887 16.423C26.0046 16.5912 25.883 16.7378 25.7333 16.8516L16.5174 23.8242Z" fill="white"/>
<path d="M16.5174 23.8242L7.30145 30.7362C7.15171 30.8499 7.0301 30.9965 6.946 31.1647C6.8619 31.3329 6.81757 31.5182 6.81641 31.7063V37.163C6.81641 37.4847 6.94416 37.7931 7.17157 38.0205C7.39899 38.2479 7.70742 38.3757 8.02903 38.3757H25.0057C25.3273 38.3757 25.6358 38.2479 25.8632 38.0205C26.0906 37.7931 26.2183 37.4847 26.2183 37.163V31.7669C26.2172 31.5788 26.1728 31.3936 26.0887 31.2254C26.0046 31.0572 25.883 30.9105 25.7333 30.7968L16.5174 23.8242Z" fill="white"/>
<path opacity="0.2" d="M16.5174 23.8243L7.30145 16.9123C7.15171 16.7986 7.0301 16.6519 6.946 16.4837C6.8619 16.3155 6.81757 16.1303 6.81641 15.9422V14.1233H26.2183V15.8816C26.2172 16.0696 26.1728 16.2549 26.0887 16.4231C26.0046 16.5913 25.883 16.7379 25.7333 16.8517L16.5174 23.8243Z" fill="#006644"/>
<path fill-rule="evenodd" clip-rule="evenodd" d="M6 14.1234C6 13.6715 6.36631 13.3052 6.81818 13.3052H26.2201C26.672 13.3052 27.0383 13.6715 27.0383 14.1234C27.0383 14.5752 26.672 14.9415 26.2201 14.9415H6.81818C6.36631 14.9415 6 14.5752 6 14.1234Z" fill="#006644"/>
<path fill-rule="evenodd" clip-rule="evenodd" d="M8.03082 10.091C7.92621 10.091 7.82588 10.1325 7.75191 10.2065C7.67794 10.2805 7.63638 10.3808 7.63638 10.4854V15.939C7.63704 16.0011 7.65182 16.0622 7.6796 16.1178C7.70739 16.1734 7.74745 16.2219 7.79674 16.2597C7.79722 16.26 7.7977 16.2604 7.79818 16.2608L16.517 22.7999L25.2402 16.2001C25.2403 16.2 25.24 16.2003 25.2402 16.2001C25.2899 16.1622 25.3308 16.1131 25.3587 16.0572C25.3865 16.0016 25.4013 15.9405 25.402 15.8784V10.4854C25.402 10.3808 25.3604 10.2805 25.2864 10.2065C25.2125 10.1325 25.1121 10.091 25.0075 10.091H8.03082ZM6.59482 9.0494C6.97567 8.66855 7.49222 8.45459 8.03082 8.45459H25.0075C25.5461 8.45459 26.0627 8.66855 26.4435 9.0494C26.8244 9.43025 27.0383 9.94679 27.0383 10.4854V15.8866C27.0364 16.2 26.9625 16.5087 26.8223 16.789C26.6822 17.0693 26.4795 17.3136 26.23 17.5032L17.0128 24.4767C16.7218 24.6969 16.3202 24.6977 16.0283 24.4788L6.8083 17.5638C6.55877 17.3742 6.35613 17.1299 6.21599 16.8496C6.07585 16.5693 6.00196 16.2606 6.00003 15.9472L6 15.9422L6.00002 10.4854C6.00002 9.94679 6.21398 9.43025 6.59482 9.0494Z" fill="#006644"/>
<path fill-rule="evenodd" clip-rule="evenodd" d="M16.0282 23.1697C16.3202 22.9508 16.7218 22.9516 17.0128 23.1718L26.23 30.1453C26.4795 30.3349 26.6822 30.5793 26.8223 30.8595C26.9625 31.1398 27.0364 31.4485 27.0383 31.7619L27.0383 31.767L27.0383 37.1631C27.0383 37.7017 26.8243 38.2183 26.4435 38.5991C26.0626 38.98 25.5461 39.1939 25.0075 39.1939H8.0308C7.4922 39.1939 6.97566 38.98 6.59481 38.5991C6.21396 38.2183 6 37.7017 6 37.1631V31.7013C6.00193 31.3879 6.07583 31.0792 6.21597 30.7989C6.35612 30.5186 6.55877 30.2743 6.8083 30.0847L6.81231 30.0817L16.0282 23.1697ZM7.79672 31.3888C7.74743 31.4266 7.70737 31.4751 7.67958 31.5307C7.6518 31.5863 7.63703 31.6474 7.63636 31.7095V37.1631C7.63636 37.2677 7.67792 37.3681 7.75189 37.442C7.82586 37.516 7.92619 37.5576 8.0308 37.5576H25.0075C25.1121 37.5576 25.2124 37.516 25.2864 37.442C25.3604 37.3681 25.4019 37.2677 25.4019 37.1631V31.7701C25.4013 31.708 25.3865 31.6469 25.3587 31.5913C25.3307 31.5353 25.2902 31.4865 25.2404 31.4486C25.2403 31.4485 25.2405 31.4486 25.2404 31.4486L16.517 24.8486L7.79672 31.3888Z" fill="#006644"/>
</svg>
