<svg width="59" height="49" viewBox="0 0 59 49" fill="none" xmlns="http://www.w3.org/2000/svg">
<g clip-path="url(#clip0)">
<path d="M48.3675 37.2802C47.0471 39.1442 45.3793 41.0082 43.5724 42.389C43.5029 42.458 43.2945 42.458 43.2945 42.389C42.53 41.9057 41.6961 41.4915 40.9317 41.0082C41.9046 39.8346 42.8775 38.5919 43.6419 37.2802H42.669C41.9046 38.4539 41.0707 39.6275 40.0283 40.6631C38.6384 40.1108 37.3875 39.6275 35.9976 39.2133L35.8587 39.0752C36.0671 38.4539 36.4841 37.9016 36.6231 37.2802H35.7892L34.9552 38.9371C33.1484 38.5229 31.0636 38.3158 29.1873 38.1777C29.1178 37.9016 29.1873 37.4873 29.1178 37.2802H28.2839C28.2144 37.6254 28.3534 37.9016 28.2144 38.2467C26.2686 38.3158 24.3922 38.5229 22.5854 38.9371L21.7515 37.2802C21.4735 37.2802 21.126 37.2112 20.8481 37.2802L21.6125 39.0752L21.543 39.1442C20.1531 39.5585 18.7633 40.0417 17.4429 40.594H17.3734C16.47 39.6275 15.636 38.5919 14.9411 37.5564C14.8021 37.0041 14.1767 37.3493 13.8292 37.2802C14.5936 38.661 15.5665 39.8346 16.5395 41.0773C15.7055 41.5605 14.8716 42.1128 13.9682 42.5271C12.0919 41.0773 10.3545 39.2133 9.03416 37.2802C8.68669 37.2112 8.40872 37.2802 8.06125 37.2802C10.285 40.8011 13.8292 43.9078 17.4429 45.7028C17.4429 45.7028 17.5124 45.7718 17.4429 45.7718C19.8751 46.9455 22.5159 47.8429 25.2956 48.1881C34.8858 49.4308 43.9894 45.3576 49.2709 37.2112C49.1319 37.2112 48.715 37.2112 48.3675 37.2802ZM35.3722 40.0417L35.4417 39.9727C36.7621 40.2488 38.0825 40.7321 39.2638 41.2844C38.2909 42.458 36.9706 43.4245 35.7892 44.253C35.0942 44.6672 34.3298 45.1505 33.6349 45.4957L32.3145 44.8743L32.384 44.6672C33.4959 43.2174 34.5383 41.6986 35.3722 40.0417ZM29.2568 39.1442C31.0636 39.1442 32.8009 39.3513 34.4688 39.7656V39.8346C33.5654 41.4915 32.523 43.1484 31.3416 44.6672C30.7856 44.7363 30.2992 44.5291 29.8127 44.4601L29.2568 44.3911C29.1873 42.5961 29.1873 40.9392 29.2568 39.1442ZM23.2108 39.6965C24.8092 39.4204 26.5465 39.1442 28.2839 39.1442V44.3911C27.6584 44.5291 26.894 44.5291 26.2686 44.6672C25.0177 43.1484 23.9058 41.4915 23.0024 39.8346L23.2108 39.6965ZM18.2073 41.3534C19.3887 40.7321 20.7091 40.3179 22.0294 39.9727H22.1684C23.0719 41.6986 24.1837 43.2865 25.2956 44.8743C24.8787 45.1505 24.3227 45.2886 23.9058 45.4957C21.821 44.4601 19.8751 43.0794 18.2073 41.3534ZM22.2379 46.6693C19.5972 45.9789 17.1649 44.8053 14.9411 43.2174V43.1484C15.7055 42.6651 16.47 42.1819 17.2344 41.8367C19.0412 43.6317 20.8481 44.9434 22.8634 46.186C22.7244 46.3241 22.4464 46.5312 22.2379 46.6693ZM33.7739 47.0835C30.4382 47.7739 26.8245 47.8429 23.4888 47.0145C23.4193 46.8764 23.6278 46.8074 23.7668 46.7383C26.6855 44.8743 31.2026 44.8743 34.0518 46.8764C34.1213 47.0835 33.8433 47.0145 33.7739 47.0835ZM36.7621 46.186L35.3027 46.6693C35.0247 46.5312 34.8163 46.3932 34.6078 46.186L34.6773 46.117C36.6926 44.9434 38.4994 43.4936 40.1673 41.8367C41.0012 42.1819 41.8351 42.6651 42.5995 43.1484C40.8622 44.4601 38.8469 45.4266 36.7621 46.186Z" fill="#545454"/>
<path d="M28.2144 30.1003C25.2956 30.9288 22.0989 30.3074 20.0141 28.0292C19.7361 27.753 19.5972 27.3388 19.3887 27.0627H15.1496C15.0801 29.548 15.0801 32.4476 15.1496 34.9329H19.8056L19.8751 33.4141C20.4311 33.6903 20.9175 33.9664 21.4735 34.2426C24.7397 35.6233 28.9093 35.8995 32.106 34.2426C34.4688 32.9308 35.7197 30.4455 35.3722 27.753C35.0247 25.1296 32.523 22.7133 30.0212 22.092L22.4464 19.8828L21.8904 19.6066C21.6125 19.3995 21.4735 19.1234 21.543 18.7782C22.1684 17.7426 23.4888 18.0878 24.5312 18.0878C26.6855 18.3639 28.9788 19.1234 30.2297 21.1254C31.6195 21.1254 33.2179 21.1254 34.6773 21.1254C34.7468 18.5711 34.6773 16.3619 34.6078 13.8075C33.2179 13.8075 31.4806 13.8075 30.0907 13.8075C30.0212 14.1527 30.1602 14.705 30.0212 15.0502L28.5618 14.2907C25.1566 12.841 20.3616 12.7029 17.2344 14.9121C15.2191 16.4309 14.5936 19.0543 15.1496 21.4016C15.5665 23.6108 17.6513 25.2677 19.6667 26.0271C22.4464 26.9936 25.3651 27.753 28.1449 28.7196C28.4228 28.8576 28.7703 29.1338 28.7703 29.479C28.7008 29.8242 28.4228 29.9622 28.2144 30.1003Z" fill="#545454"/>
<path d="M13.7597 29.8241C12.7173 29.7551 11.6054 29.8241 10.563 29.7551V18.9162L10.6325 18.8472H13.6902C13.6902 17.0522 13.7597 15.1882 13.6902 13.6003H1.94581H-3.87803e-06C-3.87803e-06 15.2572 -3.87803e-06 17.1903 -3.87803e-06 18.8472C1.0424 18.8472 2.0848 18.8472 3.05771 18.9162V29.4099V29.8241L-3.87803e-06 29.8932C-0.0694974 31.6191 -0.0694974 33.276 -3.87803e-06 35.002H13.7597V29.8241Z" fill="#545454"/>
<path d="M54.9694 15.3264C50.9388 12.703 44.7538 12.5649 40.5842 14.9122C38.291 16.0858 36.8316 18.4331 36.3451 20.7803C35.5112 24.7155 35.7197 29.41 38.7079 32.3096C42.1826 35.4163 47.2556 36.1067 51.7727 34.795C51.9812 34.7259 52.6761 34.5878 53.1626 34.3117L53.3016 34.2426C54.6914 33.6213 56.0118 32.7238 57.0542 31.4121C59.3475 28.0293 59.4865 22.9205 58.0966 19.0544C57.5407 17.6046 56.3593 16.2929 54.9694 15.3264ZM50.7303 27.8912C50.5913 28.6506 50.1049 29.41 49.2709 29.6862C48.02 30.2385 46.3522 30.1004 45.1708 29.41C44.1979 28.7197 44.0589 27.6151 43.9894 26.5105C43.9199 24.3703 43.7114 22.0921 44.3369 20.159C44.8233 18.9854 46.0742 18.6402 47.2556 18.5711C48.437 18.5711 49.6879 18.7783 50.3828 19.7448C50.8693 20.4352 50.7998 21.4017 50.9388 22.2301C50.8693 24.0251 51.0083 26.0962 50.7303 27.8912Z" fill="#545454"/>
<path d="M9.03416 11.115C9.79859 10.0795 10.6325 9.0439 11.5359 8.07737C12.3699 7.31796 13.0648 6.55855 13.9682 6.00625C14.8021 6.55855 15.7055 6.97277 16.47 7.45604C15.4971 8.62967 14.5242 9.87235 13.7597 11.1841C13.9682 11.2531 14.3852 11.2531 14.6631 11.1841C15.4276 10.0104 16.2615 8.90582 17.3039 7.87026C18.6243 8.35352 19.9446 8.90582 21.3345 9.25101L21.4735 9.38908L20.7091 11.1841C21.0565 11.2531 21.265 11.1841 21.6125 11.1841C21.8905 10.6318 22.0989 10.0795 22.4464 9.52716C24.2532 9.94138 26.1296 10.1485 28.0754 10.2175C28.3534 10.4246 28.1449 10.9079 28.2144 11.1841H29.0483C29.1178 10.9079 29.0483 10.5627 29.1178 10.2866C30.9246 10.2175 32.8009 10.0104 34.5383 9.5962H34.6773L35.5112 11.1841C35.7892 11.1841 36.1366 11.2531 36.4146 11.115L35.6502 9.32005L35.7197 9.25101C37.179 8.90582 38.4994 8.35352 39.8893 7.73219C40.8622 8.76775 41.7656 9.94138 42.5995 11.115C42.947 11.115 43.2945 11.115 43.5029 11.046C43.1555 10.3556 42.669 9.66523 42.1826 9.11294C41.7656 8.4916 41.3487 8.00834 40.7927 7.45604V7.31796L42.947 6.07529L43.225 5.93721C45.1013 7.387 46.8386 9.18197 48.159 11.115C48.5065 11.115 48.8539 11.2531 49.1319 11.115C44.9623 4.83261 38.0825 0.759404 30.6466 0.138067V0.207105L30.5772 0.138067C29.7432 0.0690297 28.7008 -7.7039e-06 27.7974 0.138067C27.4499 0.138067 27.033 0.138067 26.616 0.138067C19.1802 0.690367 12.3004 4.55646 7.99176 11.115C8.33923 11.115 8.6867 11.2531 9.03416 11.115ZM21.96 8.35352H21.821C20.5701 8.00834 19.3192 7.59411 18.1378 7.11085L18.2073 6.90374C19.9446 5.24684 21.7515 3.93513 23.6973 2.83053C24.1838 3.03764 24.6007 3.17571 25.0872 3.38283L25.0177 3.72801C23.8363 5.1778 22.8634 6.8347 21.96 8.35352ZM28.1449 9.25101C27.2415 9.38908 26.477 9.25101 25.6431 9.18197C24.8092 9.0439 23.7668 8.97486 22.9329 8.69871C23.8363 6.97277 24.8787 5.38491 26.1991 3.86609L28.2144 4.14224C28.2144 5.66106 28.1449 7.52507 28.1449 9.25101ZM29.1178 9.25101C29.0483 7.59411 29.1178 5.79914 29.1178 4.0732C29.7432 4.00416 30.4382 3.86609 31.0636 3.79705C32.245 5.31588 33.4959 6.90374 34.2603 8.62967C32.5925 9.0439 30.8551 9.25101 29.1178 9.25101ZM39.0554 7.11085C37.874 7.66315 36.6231 8.14641 35.2332 8.42256C34.2603 6.76566 33.2179 5.10876 32.0365 3.58994C32.4535 3.31379 33.0094 3.17571 33.4959 2.89956C35.5112 3.93513 37.457 5.38491 39.1249 7.04181L39.0554 7.11085ZM35.0942 1.79497C37.735 2.48534 40.1673 3.65898 42.3911 5.24684L42.3216 5.38491L40.1673 6.55855H40.0283C38.3604 4.90165 36.4146 3.45186 34.4688 2.27823C34.5383 2.07112 34.8858 1.93304 35.0942 1.79497ZM33.8433 1.44978C31.1331 3.5209 26.755 3.65898 23.9058 1.864C23.7668 1.72593 23.4193 1.65689 23.4193 1.44978C26.6855 0.690367 30.5772 0.621329 33.8433 1.44978ZM14.8021 5.31588C16.7479 3.86609 18.9717 2.76149 21.265 2.00208C21.3345 1.93304 21.404 1.79497 21.543 1.79497V1.864C21.821 1.93304 21.96 1.65689 22.1684 1.864C22.3769 2.00208 22.5854 2.14015 22.7244 2.27823C20.7786 3.45186 18.9022 4.90165 17.1649 6.62759C16.331 6.35144 15.5666 5.93721 14.8021 5.31588Z" fill="#545454"/>
</g>
<defs>
<clipPath id="clip0">
<rect width="59" height="48.4643" fill="white"/>
</clipPath>
</defs>
</svg>
