<svg width="41" height="48" viewBox="0 0 41 48" fill="none" xmlns="http://www.w3.org/2000/svg">
<path d="M23.7958 0C14.0847 0 10.6544 15.0498 7.46567 27.1767C6.30613 26.0171 2.75504 22.4661 2.75504 22.4902C2.03033 21.7897 1.20899 22.0071 0.725851 22.5144C0.218553 23.0217 0.146082 23.9638 0.725851 24.5194C0.750008 24.5436 5.5331 29.3025 7.19994 30.9452C7.65892 31.38 8.31116 31.6457 8.98756 31.2592C9.66396 30.8486 9.76059 30.0997 9.78474 30.0997C15.4375 4.73478 20.5105 2.85053 23.7958 2.85053C26.5739 2.85053 29.7626 4.87972 29.7626 8.96226C33.8935 8.96226 36.4783 14.3734 33.1446 17.7071C35.8985 19.0358 37.1305 20.6784 37.1305 22.7318C37.1305 24.8093 35.3912 26.911 32.8547 26.911C30.3424 26.911 29.0621 25.2924 27.1053 25.2924C26.2115 25.2924 25.6801 26.0171 25.6801 26.7177V31.839H21.9599V26.7419C21.9599 25.9447 21.356 25.3166 20.6313 25.3166C20.6313 25.3166 20.3172 25.3166 20.3172 25.3407L15.365 25.9447C14.7611 26.0413 14.2055 26.6935 14.2055 27.3458C14.2055 28.1188 14.8577 28.771 15.7274 28.771C15.8482 28.771 15.9931 28.771 15.9689 28.7469L19.1094 28.3362V33.4092C19.1094 34.0373 19.8341 34.6654 20.4863 34.6654H27.0812C27.8542 34.6654 28.5065 34.0131 28.5065 33.2401V28.6261C29.8834 29.4716 31.7918 29.7856 32.7823 29.7856C36.4783 29.7856 40.0052 26.8868 39.9811 22.6352C39.9569 18.7942 37.0097 16.8616 37.0097 16.8616C38.749 12.2476 35.9468 7.80273 32.2991 6.57072C31.0188 1.83594 26.9604 0 23.7958 0Z" fill="#545454"/>
<path d="M23.7958 0C14.0847 0 10.6544 15.0498 7.46567 27.1767C6.30613 26.0171 2.75504 22.4661 2.75504 22.4902C2.03033 21.7897 1.20899 22.0071 0.725851 22.5144C0.218553 23.0217 0.146082 23.9638 0.725851 24.5194C0.750008 24.5436 5.5331 29.3025 7.19994 30.9452C7.65892 31.38 8.31116 31.6457 8.98756 31.2592C9.66396 30.8486 9.76059 30.0997 9.78474 30.0997C15.4375 4.73478 20.5105 2.85053 23.7958 2.85053C26.5739 2.85053 29.7626 4.87972 29.7626 8.96226C33.8935 8.96226 36.4783 14.3734 33.1446 17.7071C35.8985 19.0358 37.1305 20.6784 37.1305 22.7318C37.1305 24.8093 35.3912 26.911 32.8547 26.911C30.3424 26.911 29.0621 25.2924 27.1053 25.2924C26.2115 25.2924 25.6801 26.0171 25.6801 26.7177V31.839H21.9599V26.7419C21.9599 25.9447 21.356 25.3166 20.6313 25.3166C20.6313 25.3166 20.3172 25.3166 20.3172 25.3407L15.365 25.9447C14.7611 26.0413 14.2055 26.6935 14.2055 27.3458C14.2055 28.1188 14.8577 28.771 15.7274 28.771C15.8482 28.771 15.9931 28.771 15.9689 28.7469L19.1094 28.3362V33.4092C19.1094 34.0373 19.8341 34.6654 20.4863 34.6654H27.0812C27.8542 34.6654 28.5065 34.0131 28.5065 33.2401V28.6261C29.8834 29.4716 31.7918 29.7856 32.7823 29.7856C36.4783 29.7856 40.0052 26.8868 39.9811 22.6352C39.9569 18.7942 37.0097 16.8616 37.0097 16.8616C38.749 12.2476 35.9468 7.80273 32.2991 6.57072C31.0188 1.83594 26.9604 0 23.7958 0Z" fill="#545454"/>
<path d="M19.665 40.318C19.665 41.5017 20.9936 42.2264 23.1919 43.2652C24.9312 44.0865 25.9216 44.932 25.9216 45.6326C25.9216 46.7438 24.7138 47.1545 23.5784 47.1545C21.8391 47.1545 20.8004 46.4539 20.2206 44.9079L20.1723 44.7871H20.0273C19.7133 44.7871 19.4717 44.8112 19.3509 44.9562C19.2301 45.1253 19.2543 45.3185 19.3026 45.536L19.6891 47.1303C19.7858 47.5168 19.9307 47.5893 20.5588 47.7101C20.8245 47.7584 22.2498 48 23.4335 48C26.7671 48 28.2649 46.6472 28.2649 45.2944C28.2649 44.3281 27.2986 43.386 25.1969 42.3472L24.2548 41.8882C22.8295 41.2118 21.9599 40.8012 21.9599 40.0765C21.9599 39.3759 22.8537 38.8928 24.134 38.8928C25.8009 38.8928 26.2598 39.8349 26.4531 40.6321L26.5014 40.777H26.6705C27.0329 40.777 27.2744 40.7529 27.4194 40.6079C27.4919 40.5113 27.5402 40.4147 27.516 40.2697L27.3952 38.8928C27.3469 38.4579 27.0087 38.3855 26.5497 38.2888C25.9941 38.1922 25.3177 38.0714 24.3031 38.0714C21.3801 38.0473 19.665 38.8928 19.665 40.318Z" fill="#545454"/>
<path d="M29.2795 43.1203C29.2795 45.536 31.3811 47.9759 35.3912 47.9759C37.4204 47.9759 38.5558 47.5169 39.4013 47.0579L39.6187 46.9371L39.2563 46.5265L39.2805 46.5506C39.1839 46.4298 39.1114 46.4057 38.9906 46.4057L38.7974 46.4781C38.4833 46.6231 37.5653 47.0579 35.8744 47.0579C33.7968 47.0579 31.5744 45.7051 31.5744 42.7338C31.5744 39.9074 33.9901 38.917 36.0676 38.917C37.5653 38.917 38.3384 39.4484 38.5075 40.5355L38.5316 40.7046H38.7249C38.894 40.7046 39.3771 40.7046 39.3771 40.3423V38.6996C39.3771 38.2889 38.9181 38.2406 38.7249 38.2164L38.5316 38.1923C38.0485 38.1198 37.5895 38.0715 36.3817 38.0715C32.2508 38.0473 29.2795 40.1732 29.2795 43.1203Z" fill="#545454"/>
<path d="M14.1572 38.1682L10.5337 38.1924L8.11796 38.144H7.75561C7.53819 38.144 7.39325 38.289 7.39325 38.5306C7.39325 38.6272 7.39325 38.9654 7.80392 38.9654C9.25334 38.9654 9.32581 39.0862 9.32581 39.6418L9.34997 40.0041L9.37413 41.4777V44.6664C9.37413 45.1979 9.34997 46.0434 9.32581 46.7198C9.32581 46.9131 9.30166 47.1063 8.02133 47.1063C7.65898 47.1063 7.44156 47.1788 7.44156 47.5411C7.44156 47.6378 7.44156 47.9276 7.77976 47.9276H7.85223C7.99718 47.9276 8.40785 47.9035 10.437 47.9035C12.587 47.9035 13.0218 47.9276 13.1668 47.9276H13.2393C13.5291 47.9276 13.7707 47.9035 13.7707 47.5411C13.7707 47.1546 13.4567 47.1063 12.9011 47.1063C11.6207 47.1063 11.5966 46.9131 11.5966 46.7198C11.5724 46.0917 11.5483 45.2462 11.5483 44.6664V43.5069H12.6353C14.3022 43.5069 14.4713 43.5552 14.7128 44.8355C14.7853 45.1013 15.0027 45.1496 15.196 45.1496C15.5825 45.1496 15.6308 44.9322 15.6308 44.8355L15.6066 44.3524C15.5825 44.0867 15.5583 43.7485 15.5583 43.2653V41.3086C15.5583 41.0187 15.196 41.0187 15.0027 41.0187C14.6887 41.0187 14.6162 41.212 14.423 42.1541C14.3263 42.5165 13.6499 42.7097 12.5387 42.7097H11.5724V39.835C11.5724 39.062 11.7174 39.0379 11.8865 39.0379C12.5145 39.0137 14.0606 38.9654 14.5196 38.9654C14.9544 38.9654 15.3651 39.062 15.6308 39.2311C16.4521 39.7384 16.8628 40.0766 17.1285 40.294C17.3701 40.4873 17.5151 40.6081 17.7083 40.6081C17.8291 40.6081 18.1673 40.6081 18.1673 40.3182C18.1673 40.2457 18.1431 40.1732 18.0224 39.9317C17.9016 39.6418 17.66 39.1586 17.3701 38.4098C17.2976 38.1682 17.0078 38.1682 16.5005 38.1682H14.1572Z" fill="#545454"/>
<path d="M37.0822 2.92311H37.5895C37.831 2.92311 37.976 2.87479 38.0726 2.82648C38.1692 2.75401 38.2176 2.65738 38.2176 2.53659C38.2176 2.41581 38.1692 2.31918 38.0968 2.24671C38.0001 2.17424 37.831 2.15008 37.5653 2.15008H37.0822V2.92311ZM38.8456 4.37253H38.3383C38.0243 3.79276 37.8069 3.45456 37.7103 3.38209C37.6136 3.30962 37.4928 3.2613 37.3479 3.2613H37.1063V4.34837H36.6957V1.78773H37.5895C37.8552 1.78773 38.0485 1.81188 38.2176 1.8602C38.3625 1.88435 38.4833 1.98098 38.5799 2.10177C38.6765 2.22255 38.7249 2.36749 38.7249 2.51244C38.7249 2.68154 38.6524 2.85064 38.5316 2.99558C38.4108 3.14052 38.2176 3.21299 37.976 3.23715C38.1209 3.28546 38.3383 3.50288 38.5799 3.88939L38.8456 4.37253ZM37.7103 5.04893C38.2659 5.04893 38.7249 4.85567 39.1355 4.46916C39.522 4.08264 39.7395 3.5995 39.7395 3.04389C39.7395 2.48828 39.5462 2.0293 39.1355 1.61863C38.749 1.23211 38.2659 1.03886 37.7103 1.03886C37.1546 1.03886 36.6715 1.23211 36.285 1.61863C35.8985 2.00514 35.7052 2.48828 35.7052 3.04389C35.7052 3.5995 35.8985 4.08264 36.285 4.46916C36.6715 4.85567 37.1546 5.04893 37.7103 5.04893ZM37.7103 0.652344C38.3625 0.652344 38.9423 0.893914 39.4013 1.3529C39.8844 1.83604 40.1018 2.39165 40.1018 3.04389C40.1018 3.69613 39.8602 4.2759 39.4013 4.73488C38.9181 5.19387 38.3625 5.43544 37.7103 5.43544C37.0339 5.43544 36.4783 5.19387 35.9951 4.73488C35.512 4.25174 35.2946 3.69613 35.2946 3.01973C35.2946 2.36749 35.5361 1.78772 35.9951 1.32874C36.4783 0.869757 37.058 0.652344 37.7103 0.652344Z" fill="#545454"/>
<path d="M37.7103 5.58043C37.0098 5.58043 36.4058 5.33886 35.9227 4.83156C35.4154 4.34842 35.1738 3.74449 35.1738 3.04394C35.1738 2.34338 35.4154 1.73946 35.9227 1.25631C36.4058 0.773174 37.0339 0.507446 37.7103 0.507446C38.3867 0.507446 38.9906 0.749017 39.4979 1.25631C40.0052 1.73946 40.2468 2.34338 40.2468 3.04394C40.2468 3.74449 40.0052 4.34842 39.4979 4.83156C39.0148 5.3147 38.4109 5.58043 37.7103 5.58043ZM37.7103 0.773174C37.0822 0.773174 36.5266 0.990587 36.0918 1.44957C35.6328 1.90856 35.4154 2.41585 35.4154 3.04394C35.4154 3.67202 35.6328 4.20347 36.0918 4.66246C36.5266 5.09729 37.0822 5.33886 37.7103 5.33886C38.3384 5.33886 38.8699 5.12144 39.3288 4.66246C39.7637 4.22763 40.0052 3.67202 40.0052 3.04394C40.0052 2.41585 39.7878 1.8844 39.3288 1.42541C38.8699 0.990587 38.3384 0.773174 37.7103 0.773174Z" fill="#545454"/>
<path d="M37.7103 5.19377C37.1306 5.19377 36.6233 4.97635 36.1884 4.56568C35.7778 4.15501 35.5604 3.64772 35.5604 3.04379C35.5604 2.46402 35.7778 1.95672 36.1884 1.54605C36.5991 1.13538 37.1064 0.917969 37.7103 0.917969C38.2901 0.917969 38.7974 1.13538 39.2322 1.54605C39.6429 1.95672 39.8603 2.46402 39.8603 3.04379C39.8603 3.62356 39.6429 4.13086 39.2322 4.56568C38.7974 4.97635 38.2901 5.19377 37.7103 5.19377ZM37.7103 1.15954C37.203 1.15954 36.7441 1.3528 36.3817 1.71515C36.0193 2.07751 35.8261 2.51233 35.8261 3.04379C35.8261 3.55109 36.0193 4.01007 36.3817 4.37243C36.7441 4.73478 37.203 4.92804 37.7103 4.92804C38.2418 4.92804 38.6766 4.73478 39.039 4.37243C39.4013 4.01007 39.5946 3.57524 39.5946 3.04379C39.5946 2.51233 39.4013 2.10166 39.039 1.71515C38.6766 1.3528 38.2176 1.15954 37.7103 1.15954Z" fill="#545454"/>
<path d="M39.0631 4.49337H38.2417L38.1934 4.4209C37.7586 3.62371 37.6137 3.47877 37.5895 3.47877C37.517 3.43046 37.4204 3.4063 37.2996 3.4063H37.1788V4.49337H36.5024V1.66699H37.5412C37.8311 1.66699 38.0485 1.69115 38.1934 1.73946C38.3867 1.76362 38.5316 1.86025 38.6283 2.00519C38.7249 2.15013 38.7974 2.31923 38.7974 2.48833C38.7974 2.70575 38.7249 2.899 38.5799 3.04394C38.4833 3.14057 38.3867 3.21304 38.2417 3.26136C38.3625 3.38214 38.4833 3.55124 38.6524 3.79281L39.0631 4.49337ZM38.4109 4.2518H38.6283L38.435 3.93775C38.121 3.43046 37.9519 3.35799 37.9036 3.35799L37.8311 3.33383C37.9519 3.47877 38.1451 3.76866 38.4109 4.2518ZM36.7923 4.2518H36.9614V3.16473H37.3479C37.517 3.16473 37.6861 3.21304 37.7828 3.30967C37.7828 3.30967 37.8069 3.30967 37.8069 3.33383V3.14057L37.9277 3.11642C38.1451 3.09226 38.2901 3.04394 38.3867 2.92316C38.5075 2.80237 38.5558 2.68159 38.5558 2.53665C38.5558 2.41586 38.5075 2.31923 38.435 2.2226C38.3625 2.12598 38.2659 2.00519 38.1451 1.98103C38.0243 1.93272 37.8311 1.93272 37.5654 1.93272H36.7923V4.2518Z" fill="#545454"/>
<path d="M37.5895 3.044H36.9373V2.00525H37.5412C37.8311 2.00525 38.0244 2.05356 38.1451 2.12603C38.2659 2.22266 38.3384 2.34345 38.3384 2.51255C38.3384 2.68165 38.2659 2.80243 38.1451 2.89906C38.0244 3.01984 37.8553 3.044 37.5895 3.044ZM37.203 2.80243H37.5895C37.8311 2.80243 37.9519 2.75412 38.0002 2.72996C38.0485 2.68165 38.0727 2.63333 38.0727 2.5367C38.0727 2.46423 38.0485 2.39176 38.0002 2.34345C37.976 2.31929 37.8794 2.27098 37.5412 2.27098H37.1789V2.80243H37.203Z" fill="#545454"/>
</svg>
