<svg width="48" height="48" viewBox="0 0 48 48" fill="none" xmlns="http://www.w3.org/2000/svg">
<rect width="48" height="48" rx="4" fill="white"/>
<path fill-rule="evenodd" clip-rule="evenodd" d="M18.1648 15.324C18.4477 15.6763 18.3915 16.1913 18.0391 16.4742C16.9116 17.3797 16.0015 18.5265 15.3757 19.8302C14.7501 21.1336 14.4246 22.5607 14.4232 24.0064C14.4289 27.3587 13.6557 30.6664 12.1644 33.6688C11.9634 34.0735 11.4724 34.2386 11.0677 34.0375C10.663 33.8365 10.4979 33.3455 10.6989 32.9408C12.0775 30.1653 12.7923 27.1073 12.7868 24.0082L12.7868 24.0061C12.7883 22.3153 13.1688 20.6464 13.9005 19.1221C14.6321 17.5979 15.6962 16.2571 17.0145 15.1984C17.3668 14.9154 17.8818 14.9716 18.1648 15.324Z" fill="#006644"/>
<path fill-rule="evenodd" clip-rule="evenodd" d="M24.0594 23.1887C24.5113 23.1881 24.8781 23.5539 24.8787 24.0058C24.8859 29.4619 23.5007 34.8296 20.8541 39.6009C20.6349 39.996 20.1369 40.1387 19.7418 39.9195C19.3466 39.7003 19.204 39.2023 19.4232 38.8071C21.9347 34.2794 23.2492 29.1856 23.2423 24.008C23.2417 23.5561 23.6075 23.1893 24.0594 23.1887Z" fill="#006644"/>
<path fill-rule="evenodd" clip-rule="evenodd" d="M24.0629 19.5958C22.8931 19.5958 21.7711 20.0606 20.9439 20.8878C20.1167 21.715 19.652 22.8369 19.652 24.0068C19.652 24.4586 19.2857 24.825 18.8338 24.825C18.3819 24.825 18.0156 24.4586 18.0156 24.0068C18.0156 22.4029 18.6527 20.8648 19.7868 19.7307C20.9209 18.5966 22.4591 17.9595 24.0629 17.9595C25.6668 17.9595 27.2049 18.5966 28.339 19.7307C29.4729 20.8646 30.11 22.4024 30.1102 24.0059C30.1102 24.0062 30.1102 24.0065 30.1102 24.0068H29.292L30.1102 24.0051C30.1102 24.0054 30.1102 24.0057 30.1102 24.0059C30.1211 29.5174 28.9054 34.9622 26.5512 39.9455C26.3582 40.3541 25.8705 40.5289 25.4619 40.3358C25.0533 40.1428 24.8786 39.6552 25.0716 39.2466C27.3222 34.4825 28.4844 29.2773 28.4739 24.0084L28.4739 24.0068C28.4739 22.8369 28.0091 21.715 27.1819 20.8878C26.3547 20.0606 25.2328 19.5958 24.0629 19.5958Z" fill="#36B37E"/>
<path fill-rule="evenodd" clip-rule="evenodd" d="M12.3935 12.3356C15.4889 9.24019 19.6871 7.50122 24.0647 7.50122C28.4422 7.50122 32.6404 9.24019 35.7358 12.3356C38.8312 15.431 40.5702 19.6292 40.5702 24.0067V24.0072C40.5686 27.1308 40.2681 30.2472 39.6728 33.3136C39.5866 33.7572 39.1572 34.047 38.7136 33.9609C38.2701 33.8748 37.9803 33.4453 38.0664 33.0018C38.6418 30.0378 38.9323 27.0256 38.9338 24.0063C38.9337 20.0629 37.3671 16.2811 34.5787 13.4927C31.7902 10.7042 28.0082 9.13758 24.0647 9.13758C20.1211 9.13758 16.3391 10.7042 13.5506 13.4927C10.7623 16.2809 9.19576 20.0626 9.1955 24.0057C9.20029 25.8817 8.88008 27.7444 8.24907 29.5111C8.09708 29.9366 7.6289 30.1584 7.20336 30.0064C6.77782 29.8544 6.55606 29.3862 6.70805 28.9607C7.27561 27.3716 7.56356 25.6962 7.55914 24.0089L7.55913 24.0067C7.55913 19.6292 9.2981 15.431 12.3935 12.3356Z" fill="#36B37E"/>
<path fill-rule="evenodd" clip-rule="evenodd" d="M18.4757 28.4344C18.9184 28.5252 19.2035 28.9577 19.1127 29.4004C18.5308 32.2349 17.5015 34.9587 16.0635 37.4698C15.8389 37.8619 15.339 37.9977 14.9469 37.7732C14.5548 37.5486 14.4189 37.0487 14.6435 36.6566C15.9952 34.2962 16.9627 31.7357 17.5097 29.0713C17.6006 28.6287 18.0331 28.3435 18.4757 28.4344Z" fill="#36B37E"/>
<path fill-rule="evenodd" clip-rule="evenodd" d="M24.0588 12.7305L24.063 12.7305C27.0537 12.7305 29.9219 13.9185 32.0367 16.0333C34.1514 18.148 35.3395 21.0162 35.3395 24.0069V24.0076C35.3379 25.7893 35.2267 27.5692 35.0064 29.3372C34.9505 29.7856 34.5417 30.1038 34.0933 30.0479C33.6449 29.992 33.3267 29.5832 33.3825 29.1348C33.5946 27.4335 33.7016 25.7207 33.7031 24.0062C33.7029 21.4497 32.6873 18.998 30.8796 17.1903C29.0722 15.383 26.6211 14.3674 24.0652 14.3668C23.6601 14.369 23.2556 14.3944 22.8534 14.4427C22.4048 14.4966 21.9974 14.1766 21.9434 13.728C21.8895 13.2794 22.2095 12.872 22.6581 12.818C23.123 12.7622 23.5906 12.7329 24.0588 12.7305Z" fill="#006644"/>
<path fill-rule="evenodd" clip-rule="evenodd" d="M33.4003 33.6719C33.8382 33.7832 34.103 34.2285 33.9916 34.6665C33.7423 35.647 33.4591 36.6304 33.1415 37.5833C32.9986 38.0119 32.5352 38.2436 32.1065 38.1007C31.6779 37.9578 31.4462 37.4945 31.5891 37.0658C31.8924 36.1557 32.1648 35.2109 32.4057 34.2633C32.5171 33.8253 32.9623 33.5606 33.4003 33.6719Z" fill="#006644"/>
</svg>
