<svg width="68" height="71" viewBox="0 0 68 71" fill="none" xmlns="http://www.w3.org/2000/svg">
<g filter="url(#filter0_dd_1236_4401)">
<circle cx="34" cy="34" r="32" fill="#876565"/>
<circle cx="34" cy="34" r="31" stroke="white" stroke-width="2"/>
<g clip-path="url(#clip0_1236_4401)">
<path d="M28.6138 18.6969C28.6587 18.7649 28.7292 18.8037 28.8093 18.807C28.8862 18.807 28.9631 18.7714 29.0079 18.7066C30.2223 17.0137 31.9942 16.0782 34 16.0782C35.6597 16.0782 37.1497 16.7062 38.3128 17.8942L38.3737 17.9557C38.4313 18.0139 38.5146 18.0398 38.598 18.0204C38.6781 18.001 38.7453 17.9427 38.771 17.8618C39.085 16.949 39.9373 16.3372 40.8921 16.3372C41.6002 16.3372 42.2122 16.7774 42.2186 16.7806C42.2923 16.8324 42.3885 16.8421 42.4686 16.8001L42.6576 16.7029C43.4843 16.2886 44.3814 16.0814 45.3267 16.0814C45.3683 16.0814 45.41 16.0814 45.4484 16.0847C45.2081 15.9261 44.9678 15.7739 44.7211 15.625C43.92 15.6962 43.1543 15.9131 42.4365 16.2724L42.366 16.308C42.1193 16.1559 41.549 15.8548 40.8857 15.8548C39.8508 15.8548 38.9152 16.4472 38.457 17.3633C37.233 16.2044 35.6982 15.5959 34 15.5959C31.9461 15.5959 30.1198 16.5022 28.8221 18.1564C27.6334 16.5443 25.666 15.6153 23.3558 15.5797C23.0771 15.748 22.8015 15.9196 22.5291 16.0976C22.7598 16.075 22.9905 16.062 23.2244 16.062C25.5571 16.062 27.5212 17.0234 28.6138 18.7034M34 19.8072C36.3775 19.8072 37.0087 22.8953 37.0087 24.721C37.0087 26.5466 36.3743 29.638 34 29.638C31.6257 29.638 30.9881 26.5466 30.9881 24.721C30.9881 22.8953 31.6225 19.8072 34 19.8072M34 30.1235C36.7556 30.1235 37.4893 26.7279 37.4893 24.721C37.4893 22.714 36.7524 19.3217 34 19.3217C31.2476 19.3217 30.5075 22.7173 30.5075 24.721C30.5075 26.7247 31.2444 30.1235 34 30.1235ZM34 21.102C35.4098 21.102 35.727 23.7822 35.727 24.721C35.727 25.6597 35.4098 28.3432 34 28.3432C32.5902 28.3432 32.2698 25.6629 32.2698 24.721C32.2698 23.779 32.587 21.102 34 21.102M34 28.8287C35.7463 28.8287 36.2077 26.142 36.2077 24.721C36.2077 23.2999 35.7463 20.6165 34 20.6165C32.2537 20.6165 31.7891 23.3032 31.7891 24.721C31.7891 26.1388 32.2505 28.8287 34 28.8287ZM33.9968 22.5198C34.1826 22.8727 34.4454 23.7499 34.4454 24.721C34.4454 25.6921 34.1826 26.5693 34 26.9189C33.8142 26.5628 33.5514 25.6888 33.5514 24.721C33.5514 23.7531 33.8142 22.8662 33.9936 22.5198M33.8911 27.5113C33.9231 27.5274 33.9615 27.5372 33.9968 27.5372C34.032 27.5372 34.0673 27.5274 34.1025 27.5113C34.5255 27.3041 34.9228 25.9478 34.9228 24.7242C34.9228 23.5006 34.5255 22.1443 34.1025 21.9372C34.0481 21.908 33.9808 21.9048 33.9231 21.9242C33.9103 21.9274 33.8943 21.9339 33.8814 21.9404C33.4713 22.1443 33.0708 23.5233 33.0708 24.7242C33.0708 25.9251 33.4713 27.3041 33.8911 27.5113ZM24.0191 37.3517C26.6561 37.3517 28.2293 39.6435 28.2293 43.4826V49.6879C28.2293 49.8206 28.3383 49.9307 28.4696 49.9307C28.601 49.9307 28.7099 49.8206 28.7099 49.6879V43.4826C28.7099 39.3392 26.9573 36.8662 24.0191 36.8662C22.0485 36.8662 20.5362 38.1804 19.8056 40.3298V29.3952C20.5586 30.5508 22.087 31.1626 23.5545 31.1626C24.5798 31.1626 25.525 30.8777 26.2171 30.3598C27.0085 29.7674 27.4315 28.9096 27.4443 27.877V27.8188C27.4187 25.0932 25.179 24.5494 23.202 24.0671C21.3756 23.6236 19.7992 23.2384 19.7992 21.4192C19.7992 20.5226 20.1581 19.7813 20.8341 19.2764C21.4461 18.8199 22.2888 18.5674 23.2116 18.5674C25.0316 18.5674 26.9637 19.5871 26.9637 21.4775C26.9637 21.6102 27.0726 21.7203 27.204 21.7203C27.3354 21.7203 27.4443 21.6102 27.4443 21.4775C27.4443 19.2731 25.2655 18.0819 23.2116 18.0819C22.1863 18.0819 21.2411 18.3668 20.549 18.8847C19.7447 19.4868 19.3218 20.3607 19.3218 21.4192C19.3218 23.6236 21.2379 24.0898 23.0931 24.5397C25.0796 25.022 26.9541 25.4784 26.9669 27.8447C26.9637 28.7316 26.6048 29.4696 25.9319 29.9714C25.32 30.4278 24.4773 30.6803 23.5545 30.6803C21.7377 30.6803 19.8056 29.6606 19.8056 27.7702C19.8056 27.6375 19.6967 27.5274 19.5653 27.5274C19.4339 27.5274 19.325 27.6375 19.325 27.7702V49.0502C19.482 49.2056 19.6422 49.361 19.8056 49.5131V43.4729C19.8056 40.4236 21.1065 37.342 24.0191 37.342M28.9951 16.7644C30.3665 15.4664 32.0967 14.7802 34 14.7802C35.4675 14.7802 36.81 15.1751 37.9924 15.9584C38.0917 16.0232 38.2199 16.007 38.3 15.9196C38.9664 15.1945 39.9085 14.7802 40.8889 14.7802C41.4785 14.7802 42.0648 14.9323 42.5807 15.2204C42.6416 15.256 42.7153 15.2592 42.7794 15.2366C43.0453 15.1362 43.3177 15.0585 43.5932 14.9938C43.3818 14.8837 43.1671 14.7737 42.9524 14.6701C42.8723 14.696 42.7922 14.7154 42.7153 14.7446C42.1514 14.45 41.5233 14.2979 40.8889 14.2979C39.8444 14.2979 38.8351 14.7154 38.0885 15.447C36.8677 14.6831 35.4931 14.2979 34 14.2979C32.0487 14.2979 30.264 14.9776 28.8285 16.2627C27.8737 15.4179 26.6849 14.832 25.368 14.5244C25.1213 14.6377 24.8746 14.7543 24.6343 14.874C26.2043 15.1168 27.6045 15.7674 28.6651 16.7677C28.758 16.8551 28.9022 16.8551 28.9919 16.7677M29.2354 34.9661C28.7644 34.5517 28.2518 34.2021 27.6974 33.9205C27.9666 33.7684 28.2229 33.6033 28.4632 33.422C28.5786 33.3346 28.6907 33.244 28.8029 33.1501C29.2611 33.5644 29.7577 33.9173 30.2832 34.2054C29.9083 34.4287 29.559 34.6844 29.2322 34.9661M28.9695 32.6451C28.8798 32.5577 28.7356 32.5577 28.6427 32.6419C28.4921 32.7779 28.3351 32.9073 28.1716 33.0303C27.8288 33.2861 27.4507 33.5159 27.047 33.7101C26.9605 33.7522 26.9092 33.8396 26.9092 33.9335C26.9092 34.0273 26.9669 34.1147 27.0534 34.1503C27.7904 34.4708 28.4664 34.9143 29.0656 35.4678C29.1105 35.5099 29.1713 35.5325 29.229 35.5325C29.2867 35.5325 29.3444 35.5099 29.3924 35.4678C29.841 35.0535 30.3473 34.6974 30.9048 34.4061C30.9881 34.364 31.0362 34.2766 31.0362 34.1859C31.0362 34.0921 30.9817 34.0111 30.8984 33.9723C30.1967 33.6421 29.5494 33.1954 28.9695 32.6451M24.0223 51.8502C23.9326 51.8502 23.8525 51.8988 23.8108 51.9797C23.7499 52.0962 23.6826 52.2063 23.6153 52.3164C24.0703 52.5785 24.5381 52.8278 25.0124 53.0544C24.7112 52.7372 24.4452 52.3779 24.2337 51.9797C24.1921 51.902 24.1088 51.8535 24.0223 51.8535M45.3203 35.6296C44.2276 35.6296 43.2023 35.9566 42.3244 36.5781V24.216C42.3628 23.478 42.6961 19.7975 45.3203 19.7975C47.9445 19.7975 48.3322 23.2352 48.3322 24.7113V30.9166C48.3322 31.7194 48.9794 32.3732 49.774 32.3732C50.5687 32.3732 51.2159 31.7194 51.2159 30.9166V24.7113C51.2159 23.274 51.0108 22.0019 50.6327 20.9175C50.1617 20.2992 49.6555 19.7101 49.1236 19.1501C50.1553 20.4222 50.7353 22.3256 50.7353 24.7113V30.9166C50.7353 31.4507 50.3027 31.8877 49.774 31.8877C49.2453 31.8877 48.8128 31.4507 48.8128 30.9166V24.7113C48.8128 23.0863 48.4731 19.312 45.3203 19.312C42.1674 19.312 41.8886 23.3744 41.8438 24.1998V37.0669C41.8438 37.1607 41.8982 37.2481 41.9815 37.287C42.068 37.3258 42.1674 37.3129 42.2379 37.2514C43.1094 36.5036 44.1732 36.1087 45.3171 36.1087C48.5565 36.1087 50.7321 39.0609 50.7321 43.4502C50.7321 45.1464 50.4052 46.6257 49.8189 47.804C50.1617 47.4091 50.4918 47.0012 50.8058 46.5804C51.0717 45.6417 51.2127 44.5929 51.2127 43.447C51.2127 38.7631 48.8448 35.6199 45.3171 35.6199M45.3171 47.0692C45.0575 47.0692 44.5128 47.0692 44.0546 45.988C43.7054 45.1691 43.6221 44.2012 43.6028 43.9131V42.9873C43.6189 42.709 43.7022 41.7314 44.0546 40.9059C44.5128 39.8248 45.0575 39.8248 45.3171 39.8248C46.7269 39.8248 47.0473 42.505 47.0473 43.4438C47.0473 44.3825 46.7301 47.0627 45.3171 47.0627M45.3171 39.336C45.0095 39.336 44.1956 39.336 43.6124 40.7117C43.2408 41.5857 43.1478 42.573 43.1222 42.9711V43.9325C43.1446 44.3145 43.2408 45.3018 43.6124 46.1758C44.1956 47.5515 45.0127 47.5515 45.3171 47.5515C47.0633 47.5515 47.5279 44.8648 47.5279 43.447C47.5279 42.0292 47.0665 39.3425 45.3171 39.3425M45.3139 45.6481C45.2882 45.5996 45.2594 45.5446 45.2305 45.4766C45.0223 44.9846 44.9133 44.321 44.8845 43.8807V43.0327C44.9133 42.573 45.0223 41.9094 45.2305 41.4206C45.2594 41.3527 45.2882 41.2944 45.3139 41.2458C45.4997 41.5987 45.7624 42.4759 45.7624 43.447C45.7624 44.4181 45.4997 45.2953 45.3139 45.6481M45.4228 40.6599C45.3779 40.6373 45.3267 40.634 45.2786 40.6405C45.2177 40.6405 45.1601 40.6599 45.1152 40.702C45.0639 40.7473 44.9358 40.893 44.7916 41.2296C44.5 41.9159 44.4231 42.7607 44.4071 43.0165V43.8969C44.4231 44.1397 44.5 44.9813 44.7916 45.6676C44.9358 46.0042 45.0639 46.1466 45.1152 46.1952C45.1601 46.2373 45.2241 46.2599 45.285 46.2599L45.3139 46.0172V46.2599C45.3491 46.2599 45.3843 46.2502 45.4164 46.2373C45.8393 46.0333 46.2399 44.677 46.2399 43.4502C46.2399 42.2234 45.8425 40.8703 45.4196 40.6632M34 18.5869C36.9094 18.5869 38.2135 21.6653 38.2135 24.7145C38.2135 27.7637 36.9126 30.8421 34 30.8421C31.0874 30.8421 29.7865 27.7637 29.7865 24.7145C29.7865 21.6653 31.0874 18.5869 34 18.5869M34 31.3309C36.8068 31.3309 38.6941 28.6733 38.6941 24.7177C38.6941 20.7621 36.8068 18.1046 34 18.1046C31.1932 18.1046 29.3059 20.7621 29.3059 24.7177C29.3059 28.6733 31.1932 31.3309 34 31.3309ZM45.3267 49.5876C42.5871 49.5876 41.2734 46.8588 41.1292 43.994V42.9226C41.2734 40.0579 42.5871 37.3291 45.3267 37.3291C48.236 37.3291 49.5401 40.4074 49.5401 43.4567C49.5401 46.5059 48.236 49.5876 45.3267 49.5876ZM39.415 34.3737C39.0882 34.1536 38.7485 33.9529 38.3801 33.7813C38.7453 33.5256 39.0914 33.2375 39.415 32.9203V34.3737ZM45.3267 36.8435C43.3689 36.8435 41.863 38.1383 41.1292 40.2585V40.1614C41.1292 40.1614 41.1292 40.1582 41.1292 40.155V31.1626C41.1292 31.1626 41.126 31.1464 41.1228 31.1367C41.1228 31.127 41.1292 31.1205 41.1292 31.1108V24.1804C41.2734 21.3157 42.5871 18.5869 45.3267 18.5869C48.0662 18.5869 49.5401 20.8787 49.5401 24.7145V30.9198C49.5401 31.0525 49.6491 31.1626 49.7804 31.1626C49.9118 31.1626 50.0207 31.0525 50.0207 30.9198V24.7145C50.0207 20.5711 48.2649 18.1013 45.3267 18.1013C43.3689 18.1013 41.863 19.3961 41.1292 21.5164V18.6678C41.1292 18.5351 41.0203 18.425 40.8889 18.425C40.7576 18.425 40.6486 18.5351 40.6486 18.6678V31.1076C40.6486 31.1076 40.6518 31.1237 40.655 31.1335C40.655 31.1432 40.6486 31.1496 40.6486 31.1594V37.7596C40.2801 36.9083 39.7034 36.1735 38.944 35.607C37.8258 34.7718 36.355 34.3122 34.801 34.3122C34.7946 34.3122 34.7882 34.3122 34.7786 34.3122C32.4524 34.3187 30.4562 35.2315 29.2418 36.837C27.9634 35.2088 26.1659 34.3478 24.0223 34.3478C23.4295 34.3478 22.8496 34.4255 22.292 34.5776V33.5677C22.7086 33.6357 23.1347 33.668 23.5577 33.668C25.1117 33.668 26.5824 33.2084 27.6974 32.3732C28.1204 32.056 28.4953 31.6837 28.8093 31.2662C30.1038 32.9203 31.9237 33.8299 33.9712 33.8364C33.9776 33.8364 33.9872 33.8364 33.9936 33.8364C36.2173 33.8364 38.1109 32.807 39.4054 30.9198V32.2146C38.9088 32.7681 38.348 33.2407 37.7328 33.613C37.6559 33.6616 37.6111 33.749 37.6175 33.8428C37.6239 33.9367 37.6848 34.0144 37.7713 34.05C38.3705 34.2863 38.9216 34.5906 39.4118 34.9531L39.4983 35.0211C39.5432 35.0567 39.5944 35.0729 39.6457 35.0729C39.7194 35.0729 39.7899 35.0405 39.838 34.979C39.8796 34.924 39.8924 34.8528 39.8828 34.788C39.8828 34.7783 39.8892 34.7686 39.8892 34.7589V32.3441C39.8924 32.3182 39.8924 32.2891 39.8892 32.2632V30.0976C39.8892 30.0976 39.8892 30.075 39.8892 30.0653C39.8892 30.0329 39.8828 30.0037 39.87 29.9714C39.87 29.9714 39.87 29.9681 39.8668 29.9649C39.8572 29.939 39.8412 29.9164 39.8219 29.8969C39.8187 29.8905 39.8123 29.8872 39.8059 29.884C39.7931 29.8743 39.7835 29.8581 39.7675 29.8516C39.7611 29.8484 39.7547 29.8516 39.7482 29.8451C39.7386 29.8419 39.729 29.8387 39.7162 29.8354C39.697 29.829 39.6778 29.8225 39.6585 29.8225C39.6553 29.8225 39.6521 29.8225 39.6457 29.8225C39.6329 29.8225 39.6265 29.829 39.6137 29.829C39.5976 29.829 39.5848 29.8322 39.5688 29.8387C39.5496 29.8451 39.5304 29.8548 39.5143 29.8678C39.5079 29.871 39.5015 29.8775 39.4951 29.8807C39.4727 29.8969 39.4567 29.9196 39.4406 29.9455C39.4406 29.9455 39.4406 29.9455 39.4374 29.9487C39.4374 29.9487 39.4342 29.9552 39.431 29.9584C39.431 29.9649 39.4246 29.9681 39.4214 29.9746C38.2295 32.1466 36.3102 33.3443 34.0096 33.3508C34.0032 33.3508 33.9968 33.3508 33.9904 33.3508C31.9814 33.3508 30.2095 32.4153 28.9951 30.7159C28.9471 30.6511 28.8766 30.6026 28.7965 30.6155C28.7164 30.6155 28.6459 30.6576 28.601 30.7224C28.2806 31.2079 27.8801 31.632 27.4091 31.9848C26.3741 32.7584 25.0059 33.1857 23.5545 33.1857C23.061 33.1857 22.5708 33.1372 22.0934 33.0433C22.0229 33.0303 21.9492 33.0465 21.8947 33.0918C21.8402 33.1372 21.805 33.2084 21.805 33.2796V34.9046C21.805 34.9822 21.8435 35.0567 21.9043 35.102C21.9652 35.1473 22.0453 35.1603 22.119 35.1376C22.7214 34.9369 23.359 34.8366 24.0127 34.8366C26.1082 34.8366 27.8448 35.7203 29.0432 37.3906C29.088 37.4553 29.1553 37.4942 29.2418 37.4909C29.3219 37.4909 29.3924 37.4488 29.4373 37.3841C30.0845 36.4195 31.6385 34.801 34.7914 34.801C34.7978 34.801 34.8042 34.801 34.8139 34.801C36.2589 34.8042 37.6175 35.2315 38.6492 36.0019C39.9341 36.9633 40.639 38.4394 40.6422 40.1582V42.9809C40.6358 43.1395 40.6294 43.2948 40.6294 43.4599C40.6294 43.625 40.639 43.7804 40.6422 43.939V49.8562C40.6422 49.989 40.7511 50.099 40.8825 50.099C41.0139 50.099 41.1228 49.989 41.1228 49.8562V46.6613C41.8566 48.7848 43.3625 50.0764 45.3203 50.0764C48.1271 50.0764 50.0143 47.4188 50.0143 43.4599C50.0143 39.5011 48.1271 36.8468 45.3203 36.8468M23.7884 21.6264C23.5288 21.5617 22.8335 21.3933 22.401 21.2412C22.59 21.1376 22.8944 21.0761 23.2212 21.0761C23.8428 21.0761 24.4452 21.348 24.4901 21.4775C24.4901 21.5876 24.4965 21.7009 24.5093 21.8109C24.237 21.7365 23.9902 21.6782 23.7884 21.6296M24.9707 21.4807C24.9707 20.911 23.9358 20.5938 23.2212 20.5938C22.731 20.5938 22.2984 20.7071 22.0357 20.9046C21.93 20.9822 21.8274 21.0923 21.8146 21.3513C21.8082 21.4484 21.8627 21.539 21.9492 21.5811C22.2952 21.7559 23.0995 21.9598 23.6826 22.1022C23.9646 22.1702 24.3491 22.2641 24.7528 22.3839C24.7753 22.3903 24.7977 22.3936 24.8201 22.3936C24.881 22.3936 24.9419 22.3677 24.9899 22.3224C25.0508 22.2609 25.0764 22.1702 25.054 22.0861C24.9995 21.8886 24.9739 21.6847 24.9739 21.4807M37.1112 43.9066C37.0471 44.0717 37.0119 44.2498 37.0119 44.4375V46.5157C37.0119 47.7522 35.4483 48.2118 34.4614 48.2118C33.7949 48.2118 33.2022 48.0435 32.7984 47.7425C32.4268 47.4641 32.2537 47.1016 32.2505 46.5966C32.2569 45.3568 32.885 45.0299 35.2016 44.4666C35.7815 44.3242 36.4544 44.1624 37.108 43.9066M39.4118 49.8562C39.4118 50.3903 38.9792 50.8273 38.4506 50.8273C38.0276 50.8273 37.6495 50.5425 37.5278 50.1314C37.5085 50.0634 37.4573 50.0051 37.39 49.976C37.3612 49.9631 37.3291 49.9566 37.2971 49.9566C37.2586 49.9566 37.2202 49.9663 37.1849 49.9857C36.3775 50.413 35.4355 50.6396 34.4582 50.6396C33.2791 50.6396 32.1832 50.3029 31.3662 49.6944C30.5908 49.115 30.0909 48.3025 29.9147 47.3476V45.7517C30.3569 43.1492 32.8305 42.5471 34.6376 42.1069C36.7075 41.6051 37.4893 41.3073 37.4893 40.1647C37.4893 39.5011 37.2394 38.9767 36.746 38.6077C36.2589 38.2419 35.5668 38.0412 34.7978 38.0412C33.6251 38.0412 31.7699 38.6336 31.7699 40.2229C31.7699 40.757 31.3374 41.194 30.8087 41.194C30.28 41.194 29.8474 40.757 29.8474 40.2229C29.8474 37.5459 32.3979 36.099 34.7978 36.099C35.977 36.099 37.076 36.4357 37.8898 37.0442C38.8703 37.779 39.4086 38.8861 39.4086 40.1614C39.4086 42.9388 37.0119 43.5214 35.0862 43.9908C32.9106 44.5217 31.7731 44.8777 31.7667 46.5933C31.7699 47.2472 32.0198 47.7619 32.5069 48.1277C32.9939 48.4935 33.686 48.6942 34.455 48.6942C35.6277 48.6942 37.4861 48.1018 37.4861 46.5124V44.4343C37.4861 43.9002 37.9187 43.4632 38.4474 43.4632C38.976 43.4632 39.4086 43.9002 39.4086 44.4343V49.853L39.4118 49.8562ZM29.7257 41.1843C29.9916 41.4886 30.3761 41.6796 30.8087 41.6796C31.6033 41.6796 32.2505 41.0257 32.2505 40.2229C32.2505 38.9864 33.8142 38.5268 34.7978 38.5268C35.4643 38.5268 36.0571 38.6951 36.4608 38.9961C36.8293 39.2713 37.0087 39.6532 37.0087 40.1647C37.0087 40.8574 36.7171 41.1002 34.5255 41.6343C33.0291 41.9968 30.908 42.5147 29.9147 44.2886V43.4794C29.9147 42.6604 29.8506 41.8932 29.7257 41.1843M28.1332 25.6047C28.1332 25.6047 28.1332 25.6111 28.1332 25.6144C27.1399 23.779 24.9451 23.2449 23.4936 22.8921C21.3052 22.358 21.0136 22.1152 21.0136 21.4225C21.0136 20.911 21.193 20.5291 21.5615 20.2539C21.9652 19.9529 22.558 19.7846 23.2244 19.7846C24.2113 19.7846 25.7749 20.2442 25.7749 21.4807C25.7749 22.2835 26.4222 22.9374 27.2168 22.9374C27.659 22.9374 28.0531 22.7367 28.3158 22.4195C28.1781 23.1348 28.1076 23.902 28.1076 24.7177C28.1076 25.0188 28.1172 25.3133 28.1364 25.6014M34 17.3762C37.2362 17.3762 39.4118 20.3284 39.4118 24.7177C39.4118 29.1071 37.2362 32.0625 34 32.0625C30.7638 32.0625 28.585 29.1103 28.585 24.7177C28.585 20.3251 30.7606 17.3762 34 17.3762M42.2443 49.662C42.1738 49.6005 42.0745 49.5908 41.9879 49.6296C41.9046 49.6685 41.8502 49.7591 41.8502 49.853C41.8502 50.3871 41.4176 50.8241 40.8889 50.8241C40.3602 50.8241 39.8956 50.3806 39.8956 49.853V44.4343C39.8956 43.7092 39.3702 43.1071 38.6845 42.997C39.399 42.3755 39.8956 41.4854 39.8956 40.1614C39.8956 38.7275 39.2868 37.4812 38.1814 36.6525C37.2843 35.9792 36.0827 35.6102 34.801 35.6102C34.6408 35.6102 34.4774 35.6167 34.3172 35.6296C34.2627 35.6329 34.2083 35.6426 34.1538 35.6458C34.0481 35.6555 33.9391 35.6653 33.8334 35.6814C33.7693 35.6911 33.7052 35.7041 33.6411 35.717C33.545 35.7332 33.4489 35.7494 33.356 35.7721C33.2887 35.7883 33.2214 35.8077 33.1541 35.8239C33.0644 35.8465 32.9747 35.8692 32.885 35.8951C32.8177 35.9177 32.7504 35.9404 32.6799 35.9631C32.5934 35.9922 32.5101 36.0213 32.4268 36.0537C32.3595 36.0796 32.2922 36.112 32.2249 36.1411C32.1448 36.1767 32.0647 36.2123 31.9846 36.2479C31.9173 36.2803 31.8532 36.3159 31.7891 36.3515C31.7122 36.3936 31.6385 36.4324 31.5648 36.4777C31.5008 36.5166 31.4399 36.5554 31.379 36.5975C31.3085 36.6428 31.238 36.6914 31.1707 36.7399C31.1099 36.782 31.0522 36.8273 30.9945 36.8759C30.9304 36.9277 30.8631 36.9827 30.8023 37.0377C30.7478 37.0863 30.6933 37.1381 30.642 37.1866C30.5812 37.2449 30.5235 37.3032 30.469 37.3647C30.4178 37.4197 30.3729 37.4747 30.3248 37.5298C30.2704 37.5945 30.2223 37.6592 30.171 37.7272C30.1262 37.7855 30.0845 37.847 30.0461 37.9085C30.0012 37.9797 29.9564 38.0509 29.9147 38.1221C29.8795 38.1869 29.841 38.2516 29.809 38.3164C29.7705 38.3908 29.7385 38.4717 29.7032 38.5494C29.6744 38.6174 29.6456 38.6886 29.6199 38.7598C29.5911 38.8407 29.5655 38.9249 29.543 39.0123C29.5206 39.0868 29.5014 39.158 29.4821 39.2357C29.4629 39.3231 29.4469 39.4137 29.4341 39.5076C29.4213 39.5853 29.4085 39.6629 29.3988 39.7439C29.3988 39.7665 29.3892 39.7892 29.3892 39.8151C28.5177 37.1802 26.624 35.6491 24.0287 35.6491C22.9297 35.6491 21.8979 35.9792 21.0168 36.6072V31.8683C21.7954 32.2049 22.6701 32.3829 23.5641 32.3829C24.8457 32.3829 26.0441 32.0139 26.9413 31.3406C27.941 30.5961 28.5337 29.5117 28.6395 28.2622C28.6875 28.4111 28.742 28.5536 28.7997 28.696C28.8157 28.7316 28.8285 28.7705 28.8445 28.8061C28.8926 28.9258 28.9439 29.0424 28.9983 29.1557C29.0079 29.1783 29.0175 29.201 29.0304 29.2236C29.0944 29.3563 29.1617 29.4826 29.229 29.6088C29.245 29.638 29.2643 29.6671 29.2803 29.6962C29.338 29.7998 29.3988 29.8969 29.4629 29.994C29.4789 30.0199 29.4982 30.0491 29.5142 30.075C29.5911 30.1915 29.6712 30.3048 29.7545 30.4116C29.7705 30.431 29.7865 30.4505 29.8026 30.4699C29.8731 30.5605 29.9467 30.6479 30.0204 30.7353C30.0429 30.7612 30.0653 30.7871 30.0877 30.813C30.1774 30.9133 30.2704 31.0105 30.3665 31.1011C30.3729 31.1076 30.3793 31.114 30.3889 31.1205C30.4786 31.2047 30.5716 31.2856 30.6645 31.3633C30.6901 31.3859 30.7189 31.4054 30.7446 31.428C30.8375 31.5025 30.9336 31.5737 31.0298 31.6384C31.0394 31.6449 31.0522 31.6546 31.0618 31.6611C31.1675 31.7355 31.2797 31.8003 31.3918 31.865C31.4207 31.8812 31.4495 31.8974 31.4783 31.9136C31.5713 31.9654 31.6674 32.0139 31.7635 32.0592C31.7859 32.0722 31.8116 32.0819 31.834 32.0948C31.9525 32.1466 32.0711 32.1952 32.1929 32.2373C32.2217 32.247 32.2473 32.2567 32.2762 32.2664C32.3755 32.2988 32.478 32.3311 32.5806 32.3603C32.6126 32.37 32.6446 32.3765 32.6767 32.3862C32.8049 32.4185 32.933 32.4444 33.0644 32.4671C33.0868 32.4703 33.106 32.4736 33.1285 32.4768C33.2406 32.4962 33.356 32.5092 33.4745 32.5189C33.5098 32.5221 33.5482 32.5254 33.5835 32.5286C33.7212 32.5383 33.859 32.5448 34 32.5448C37.5246 32.5448 39.8924 29.3984 39.8924 24.7145V18.6678C39.8924 18.1402 40.3474 17.6967 40.8857 17.6967C41.3215 17.6967 41.706 17.9945 41.8149 18.4218C41.8341 18.4995 41.895 18.5642 41.9687 18.5901C42.0456 18.616 42.1289 18.6031 42.193 18.5513L42.2379 18.5157C43.1094 17.7679 44.1764 17.373 45.3203 17.373C46.4641 17.373 47.5311 17.7355 48.3642 18.3959C47.8804 17.9362 47.3741 17.5025 46.8486 17.0914C46.3712 16.9619 45.8618 16.8874 45.3203 16.8874C44.1507 16.8874 43.0581 17.2597 42.1449 17.9654C41.895 17.509 41.4144 17.2111 40.8825 17.2111C40.0815 17.2111 39.4086 17.878 39.4086 18.6678V21.3318C38.5467 18.5804 36.5825 16.8874 33.9968 16.8874C31.411 16.8874 29.5334 18.5092 28.6427 21.1538C28.4504 18.3668 25.7589 16.868 23.2212 16.868C22.3593 16.868 21.5359 17.0396 20.8117 17.3536C20.0043 18.0139 19.2449 18.7293 18.54 19.5029C18.2708 20.0824 18.1234 20.7265 18.1234 21.4192C18.1234 24.5785 20.9463 25.268 22.8143 25.7212C25.1341 26.2844 25.7621 26.6114 25.7685 27.8414C25.7685 28.3529 25.5923 28.7219 25.2206 28.997C24.8169 29.2981 24.2241 29.4664 23.5577 29.4664C22.574 29.4664 21.0104 29.0068 21.0104 27.7702C21.0104 26.9674 20.3631 26.3136 19.5685 26.3136C18.7739 26.3136 18.1266 26.9674 18.1266 27.7702V47.7619C18.2836 47.9464 18.4439 48.1277 18.6073 48.3057V27.767C18.6073 27.2329 19.0398 26.7959 19.5685 26.7959C20.0972 26.7959 20.5298 27.2329 20.5298 27.767C20.5298 29.3563 22.3882 29.9487 23.5577 29.9487C24.3267 29.9487 25.0188 29.748 25.5058 29.3855C25.996 29.0197 26.246 28.4985 26.2492 27.8382C26.2428 26.1323 25.1053 25.7762 22.9297 25.2454C21.004 24.776 18.6073 24.1933 18.6073 21.416C18.6073 20.1374 19.1488 19.0303 20.126 18.2955C20.9431 17.6837 22.0421 17.3503 23.218 17.3503C25.6179 17.3503 28.1716 18.7973 28.1716 21.4743C28.1716 22.0116 27.7391 22.4454 27.2104 22.4454C26.6817 22.4454 26.2492 22.0116 26.2492 21.4743C26.2492 19.8849 24.3908 19.2925 23.218 19.2925C22.449 19.2925 21.7569 19.4932 21.2699 19.859C20.7765 20.228 20.5265 20.7524 20.5265 21.416C20.5265 22.5554 21.3084 22.8532 23.375 23.3582C25.3808 23.847 28.1268 24.5138 28.1684 27.7896V27.9127C28.1524 29.1492 27.6141 30.2271 26.6465 30.949C25.8326 31.5607 24.7336 31.8942 23.5545 31.8942C22.5964 31.8942 21.6704 31.6773 20.8758 31.2662C20.8021 31.2273 20.7124 31.2306 20.6419 31.2759C20.5714 31.3212 20.5265 31.3989 20.5265 31.4831V37.1025C20.5265 37.1964 20.581 37.2837 20.6675 37.3226C20.7508 37.3614 20.8534 37.3485 20.9239 37.287C21.7986 36.5328 22.8688 36.1346 24.0191 36.1346C27.3578 36.1346 29.4309 38.9476 29.4309 43.4794V49.6847C29.4309 50.2188 29.0015 50.6558 28.4696 50.6558C27.9377 50.6558 27.5084 50.2188 27.5084 49.6847V43.4794C27.5084 41.8544 27.1688 38.0768 24.0191 38.0768C21.2635 38.0768 20.5265 41.4724 20.5265 43.4794V49.7073C20.5265 49.8433 20.4977 49.9728 20.4496 50.0893C20.5746 50.1961 20.6996 50.2997 20.8245 50.4033C20.9367 50.1961 21.0072 49.9631 21.0072 49.7073V43.4794C21.0072 41.6537 21.6416 38.5624 24.0191 38.5624C26.7362 38.5624 27.0278 42.0001 27.0278 43.4794V49.6847C27.0278 50.4874 27.675 51.1413 28.4696 51.1413C29.2643 51.1413 29.9115 50.4874 29.9115 49.6847V48.7621C30.1967 49.2736 30.5908 49.717 31.0778 50.0828C31.975 50.7529 33.1765 51.1251 34.455 51.1251C35.4162 51.1251 36.3486 50.9212 37.1689 50.5328C37.4156 51.0021 37.9059 51.3129 38.4442 51.3129C38.9504 51.3129 39.3958 51.0474 39.6521 50.6493C39.9181 51.0442 40.3763 51.3129 40.8793 51.3129C41.5201 51.3129 42.068 50.8856 42.2539 50.2932C43.1478 50.9471 44.1988 51.2902 45.3171 51.2902C45.567 51.2902 45.8137 51.274 46.054 51.2417C46.3904 51.0021 46.7205 50.7529 47.0441 50.4939C46.5122 50.6979 45.9355 50.8047 45.3171 50.8047C44.1732 50.8047 43.1062 50.4098 42.2379 49.662M22.5195 26.9772C24.4901 27.4562 24.4901 27.5728 24.4901 27.8317C24.4901 27.9062 24.4837 27.9353 24.4837 27.9353C24.4773 27.9418 24.4677 27.9483 24.4612 27.9547C24.2818 28.0874 23.939 28.1684 23.5609 28.1684C22.9393 28.1684 22.3369 27.8965 22.2952 27.767C22.2952 27.4659 22.2472 27.1681 22.1511 26.8833C22.2792 26.9157 22.4042 26.9448 22.5195 26.9739M23.5609 28.6507C24.0511 28.6507 24.4837 28.5374 24.7464 28.3399C24.8874 28.2363 24.9675 28.1198 24.9707 27.8285C24.9707 27.2037 24.7656 27.0192 22.6285 26.5013C22.3721 26.4398 22.0902 26.3686 21.789 26.2877C21.6961 26.2618 21.5967 26.2942 21.5359 26.3718C21.475 26.4495 21.4686 26.5563 21.5166 26.6405C21.7089 26.9804 21.8114 27.3688 21.8114 27.7637C21.8114 28.3335 22.8464 28.6507 23.5577 28.6507M45.3235 48.3672C42.7057 48.3672 42.3692 44.7094 42.3276 43.9552V42.955C42.366 42.2169 42.6993 38.5365 45.3235 38.5365C47.7009 38.5365 48.3354 41.6246 48.3354 43.4502C48.3354 45.2759 47.7009 48.364 45.3235 48.364M45.3235 38.0477C42.2667 38.0477 41.8918 42.1101 41.847 42.9388V43.9746C41.8918 44.7903 42.2667 48.8528 45.3235 48.8528C48.079 48.8528 48.816 45.4572 48.816 43.4535C48.816 41.4498 48.079 38.0542 45.3235 38.0542M42.6031 52.9605C41.7444 53.4461 40.6839 53.5432 39.745 53.2195C39.7194 53.2098 39.6938 53.2065 39.6681 53.2065C39.6425 53.2065 39.6169 53.2098 39.5912 53.2195C38.6716 53.5367 37.6367 53.4493 36.7748 52.9799C36.7203 52.9508 36.6594 52.9443 36.6018 52.9573C35.9129 53.1353 35.1919 53.2227 34.4614 53.2227C33.2118 53.2227 31.9942 52.9476 30.9336 52.4329C30.8503 52.3908 30.751 52.4038 30.6773 52.462C30.0589 52.9638 29.2771 53.2421 28.476 53.2421C26.5311 53.2421 24.9515 51.6463 24.9515 49.6814V43.4761C24.9515 42.0777 24.6343 40.6664 24.0255 40.6664C23.9902 40.6664 23.955 40.6729 23.9229 40.6891C23.5 40.893 23.0995 42.2493 23.0995 43.4761V49.7041C23.0995 50.4195 22.888 51.0831 22.5291 51.6431C22.6637 51.7305 22.7983 51.8211 22.9329 51.9053C23.3398 51.2708 23.5801 50.5166 23.5801 49.7041V43.4761C23.5801 42.4338 23.8813 41.5048 24.0607 41.2135C24.2177 41.4401 24.4709 42.1975 24.4709 43.4761V49.6814C24.4709 51.915 26.2684 53.7277 28.476 53.7277C29.3348 53.7277 30.1774 53.4461 30.8599 52.9346C31.9525 53.4428 33.1958 53.7115 34.4614 53.7115C35.2016 53.7115 35.9289 53.6241 36.6306 53.4525C37.5662 53.9381 38.6749 54.0287 39.6713 53.7083C40.0655 53.8345 40.4756 53.8992 40.8889 53.8992C40.9081 53.8992 40.9274 53.896 40.9498 53.896C41.6675 53.6403 42.3692 53.3522 43.0485 53.0253C42.9684 52.9994 42.8851 52.9767 42.805 52.9476C42.7409 52.9249 42.6672 52.9281 42.6063 52.9637M19.2417 25.3716C19.2609 25.2777 19.2225 25.1839 19.1456 25.1256C17.9216 24.2451 17.3288 23.0345 17.3288 21.416C17.3288 21.2509 17.3416 21.0891 17.3544 20.9305C17.1846 21.1538 17.018 21.3836 16.8578 21.6135C16.9027 23.1154 17.4506 24.3325 18.5047 25.2389C17.5114 25.6629 16.8514 26.647 16.8514 27.7702V46.111C17.0084 46.3344 17.1686 46.5545 17.332 46.7714V27.767C17.332 26.7085 18.0433 25.8021 19.0655 25.5594C19.1584 25.5367 19.2289 25.4622 19.2481 25.3684M55.0064 34.0629C54.7052 34.5711 54.3367 35.0405 53.8946 35.4516C53.8081 35.5293 53.792 35.6588 53.8529 35.7591C54.1765 36.2835 54.4617 36.8403 54.7116 37.4229C54.7597 37.1316 54.8013 36.8403 54.8398 36.5457C54.6924 36.2479 54.5354 35.9533 54.3656 35.6717C54.5931 35.4484 54.7949 35.2056 54.984 34.9564C55 34.6618 55.0032 34.364 55.0064 34.0662M33.5386 40.2229C33.5835 40.0837 34.1826 39.8151 34.8074 39.8151C35.1311 39.8151 35.4291 39.8733 35.6277 39.9802C35.1951 40.1323 34.4966 40.3039 34.2339 40.3686C34.016 40.4236 33.7757 40.4787 33.5226 40.5466C33.5354 40.4398 33.5418 40.3298 33.5418 40.2229M33.2118 41.1261C33.2342 41.1261 33.2566 41.1261 33.2791 41.1164C33.6668 41.0031 34.0288 40.9157 34.3492 40.838C34.926 40.6988 35.7334 40.4916 36.0827 40.3168C36.1692 40.2747 36.2237 40.1809 36.2173 40.087C36.2012 39.828 36.1019 39.7212 35.9962 39.6403C35.7334 39.4428 35.3009 39.3295 34.8106 39.3295C34.0961 39.3295 33.0644 39.6468 33.0644 40.2165C33.0644 40.4204 33.0355 40.6243 32.9843 40.8185C32.9619 40.9027 32.9843 40.9933 33.0452 41.0548C33.09 41.1002 33.1509 41.1261 33.215 41.1261M13 34.0629C13.0128 35.552 13.1794 37.0021 13.4806 38.4005V29.3337C13.1794 30.7353 13.0128 32.1855 13 33.6745V34.0629ZM54.9295 32.1207C54.8622 31.2791 54.7501 30.4505 54.5867 29.6412V30.9231C54.5867 32.6548 53.6575 34.2701 52.1611 35.1409C52.1002 35.1765 52.0586 35.238 52.0458 35.3059C52.033 35.3772 52.0522 35.4484 52.0938 35.5034C53.0487 36.7011 53.744 38.1836 54.1573 39.841C54.2438 39.5399 54.3271 39.2357 54.4008 38.9281C53.9907 37.6172 53.3979 36.4259 52.6353 35.416C53.8016 34.6553 54.6187 33.4641 54.9263 32.124M28.9631 15.1136C30.4146 14.0486 32.1544 13.4854 34 13.4854C35.3874 13.4854 36.6883 13.7896 37.8674 14.3917C37.9443 14.4306 38.0404 14.4241 38.1141 14.3723C38.7101 13.9483 39.3798 13.6731 40.0847 13.5533C39.7803 13.4595 39.4727 13.3721 39.1619 13.2944C38.7389 13.4401 38.3352 13.6407 37.9539 13.8932C36.7395 13.2976 35.4098 12.9966 33.9968 12.9966C32.1063 12.9966 30.3216 13.5566 28.8157 14.6183C28.3254 14.2849 27.7968 14.0065 27.2457 13.7702C27.0117 13.8511 26.781 13.9321 26.5504 14.0195C27.3161 14.2914 28.0339 14.6507 28.6811 15.1103C28.7644 15.1686 28.8766 15.1686 28.9599 15.1103M50.4213 34.911C52.3245 34.597 53.7824 32.9235 53.7824 30.9166V26.7279C53.635 26.3103 53.4748 25.896 53.3018 25.4881V30.9133C53.3018 32.8653 51.7286 34.4643 49.7965 34.474C49.6939 34.474 49.601 34.542 49.569 34.6424C49.5369 34.7427 49.5722 34.8528 49.6555 34.9143C51.735 36.4518 53.0134 39.1191 53.2569 42.3335C53.3915 42.0195 53.5197 41.7022 53.6414 41.3818C53.2633 38.6789 52.1419 36.4033 50.4213 34.9078M45.3235 34.3251C44.7371 34.3251 44.1604 34.4028 43.6092 34.5517V24.2484C43.6253 23.97 43.7086 22.9924 44.061 22.167C44.5192 21.0858 45.0639 21.0858 45.3235 21.0858C46.8839 21.0858 47.0537 23.6172 47.0537 24.7048V30.9101C47.0537 32.4283 48.2745 33.6616 49.7772 33.6616C51.28 33.6616 52.5008 32.4283 52.5008 30.9101V24.7048C52.5008 24.3779 52.4911 24.0606 52.4719 23.7466C52.2861 23.4003 52.0874 23.0636 51.8856 22.7302C51.9753 23.355 52.0201 24.0121 52.0201 24.7048V30.9101C52.0201 32.1596 51.014 33.176 49.7772 33.176C48.5404 33.176 47.5343 32.1596 47.5343 30.9101V24.7048C47.5343 23.4715 47.3196 20.6003 45.3235 20.6003C45.0159 20.6003 44.202 20.6003 43.6189 21.976C43.2472 22.85 43.1543 23.834 43.1286 24.2322V34.8754C43.1286 34.9531 43.1639 35.0276 43.2279 35.0729C43.2888 35.1182 43.3689 35.1311 43.4426 35.1085C44.0418 34.911 44.673 34.8107 45.3235 34.8107C49.2646 34.8107 52.0201 38.3617 52.0201 43.447C52.0201 43.9455 51.9913 44.4278 51.94 44.8972C52.1323 44.5799 52.3149 44.2562 52.4911 43.9293C52.4976 43.7707 52.5008 43.6121 52.5008 43.4502C52.5008 38.0768 49.5497 34.3284 45.3235 34.3284M28.9342 13.5825C29.2707 13.3785 29.6231 13.2005 29.982 13.0387C29.4405 13.1455 28.9086 13.2717 28.3831 13.4206C28.4857 13.4757 28.5882 13.5274 28.6875 13.5857C28.7644 13.631 28.8573 13.6278 28.931 13.5857M35.5027 45.7194C35.5764 45.7032 35.6501 45.6838 35.7302 45.6643V46.5027C35.6854 46.6419 35.0862 46.9106 34.4614 46.9106C34.0833 46.9106 33.7373 46.8264 33.561 46.6937C33.5546 46.6872 33.545 46.684 33.5418 46.684C33.5418 46.684 33.5322 46.6613 33.5322 46.5933C33.5322 46.302 33.5322 46.1952 35.5027 45.7161M33.2759 47.0821C33.5386 47.2796 33.9744 47.3929 34.4614 47.3929C35.1759 47.3929 36.2109 47.0757 36.2109 46.5059V45.3503C36.2109 45.2759 36.1756 45.2047 36.1179 45.1594C36.0603 45.114 35.9834 45.0979 35.9097 45.1173C35.727 45.1626 35.554 45.2047 35.3906 45.2468C33.3399 45.7453 33.0548 45.9103 33.0516 46.5998C33.0516 46.8685 33.1349 46.9818 33.2727 47.0886M36.464 54.3201C34.6825 54.6858 32.7183 54.5402 31.0458 53.896C30.9785 53.8701 30.9048 53.8766 30.8407 53.9122C30.296 54.2229 29.6968 54.4236 29.0784 54.5013C29.4437 54.5887 29.8122 54.6664 30.1839 54.7376C30.4562 54.6437 30.7222 54.5305 30.9785 54.3913C32.6863 55.029 34.6761 55.1714 36.4864 54.8121C36.5729 54.8477 36.6594 54.8768 36.746 54.9059C37.1881 54.8477 37.6303 54.7765 38.0629 54.6923C37.563 54.6502 37.0664 54.5337 36.6018 54.3362C36.5569 54.3168 36.5088 54.3136 36.4608 54.3233M17.1141 24.9152C16.6335 24.2548 16.3163 23.5006 16.1625 22.6655C16.0407 22.8629 15.9222 23.0669 15.8068 23.2676C15.9799 23.9053 16.249 24.4976 16.6111 25.035C15.935 25.7795 15.5665 26.7409 15.5665 27.767V44.0426C15.7203 44.3274 15.8805 44.6091 16.0471 44.8842V27.767C16.0471 26.8024 16.4188 25.9025 17.0917 25.2292C17.1782 25.145 17.1878 25.0091 17.1173 24.912M46.4097 33.1048C46.054 33.0595 45.6919 33.0336 45.3267 33.0336C45.1825 33.0336 45.0383 33.0368 44.8941 33.0465V24.2969C44.9326 23.7305 45.1601 22.6558 45.3459 22.4098C45.4933 22.5619 45.772 23.3129 45.772 24.7113V30.9166C45.772 31.6967 45.9931 32.4542 46.4097 33.1048ZM45.3267 21.9016C44.6057 21.9016 44.4167 24.2387 44.4135 24.2807V33.3055C44.4135 33.3735 44.4423 33.4382 44.4904 33.4835C44.5384 33.5288 44.6089 33.5547 44.673 33.545C45.4292 33.4803 46.2014 33.5288 46.9159 33.681C46.9319 33.6842 46.948 33.6874 46.964 33.6874C47.0473 33.6874 47.1274 33.6421 47.1723 33.5677C47.2235 33.477 47.2139 33.3637 47.1434 33.2828C46.5667 32.629 46.2495 31.7873 46.2495 30.9166V24.7113C46.2495 23.4132 46.0059 21.9016 45.3235 21.9016M38.4506 44.185C38.3192 44.185 38.2103 44.2951 38.2103 44.4278V46.5059C38.2103 48.3964 36.2781 49.416 34.4582 49.416C33.5354 49.416 32.6895 49.1635 32.0807 48.7071C31.4078 48.2054 31.0522 47.4706 31.0458 46.5804C31.0554 44.2142 32.933 43.7577 34.9196 43.2754C36.7748 42.8255 38.6909 42.3594 38.6909 40.155C38.6909 39.0997 38.2647 38.2225 37.4637 37.6204C36.7716 37.1025 35.8264 36.8176 34.801 36.8176C32.7504 36.8176 30.5716 38.0088 30.5716 40.2132C30.5716 40.3459 30.6805 40.456 30.8119 40.456C30.9432 40.456 31.0522 40.3459 31.0522 40.2132C31.0522 38.3228 32.9843 37.3032 34.801 37.3032C35.7238 37.3032 36.5697 37.5557 37.1785 38.0121C37.8546 38.517 38.2135 39.2583 38.2135 40.155C38.2135 41.9774 36.637 42.3594 34.8106 42.8028C32.8337 43.2851 30.594 43.829 30.5716 46.5545V46.5998C30.5716 46.5998 30.5716 46.6063 30.5716 46.6128C30.5844 47.6486 31.0073 48.5064 31.7987 49.0988C32.4908 49.6167 33.4361 49.9016 34.4614 49.9016C35.9289 49.9016 37.4573 49.2898 38.2135 48.1342V49.8465C38.2135 49.9792 38.3224 50.0893 38.4538 50.0893C38.5851 50.0893 38.6941 49.9792 38.6941 49.8465V44.4278C38.6941 44.2951 38.5851 44.185 38.4538 44.185M15.5633 24.8472C15.4608 24.6498 15.3679 24.4458 15.2846 24.2354C15.1884 24.4232 15.0955 24.6109 15.0058 24.8019C15.0282 24.8505 15.0475 24.899 15.0731 24.9476C14.5572 25.7892 14.2817 26.7603 14.2817 27.767V41.1973C14.4291 41.6019 14.5925 41.9968 14.7623 42.3885V27.767C14.7623 26.8056 15.0346 25.8831 15.5505 25.0932C15.5986 25.0188 15.605 24.9249 15.5633 24.8472ZM42.4045 51.5168C41.9911 51.902 41.4529 52.1157 40.8889 52.1157C40.5044 52.1157 40.1231 52.0153 39.7899 51.8243C39.7547 51.8017 39.713 51.792 39.6713 51.792C39.6297 51.792 39.588 51.8017 39.5528 51.8243C38.771 52.271 37.7328 52.1836 37.0247 51.5945C36.9606 51.5395 36.8741 51.5265 36.794 51.5524C36.0539 51.8017 35.2656 51.9279 34.4582 51.9279C33.0644 51.9279 31.7347 51.5298 30.7157 50.8111C30.6613 50.7723 30.594 50.7594 30.5299 50.7723C30.4658 50.7853 30.4081 50.8241 30.3729 50.8824C29.9596 51.5492 29.2482 51.9473 28.4728 51.9473C27.236 51.9473 26.2299 50.9309 26.2299 49.6814V43.4761C26.2299 42.2396 26.0153 39.3684 24.0223 39.3684C22.276 39.3684 21.8114 42.0551 21.8114 43.4761V49.7041C21.8114 50.1443 21.6832 50.5554 21.4686 50.905C21.5967 51.0021 21.7313 51.0928 21.8595 51.1866C22.1318 50.7594 22.292 50.2511 22.292 49.7041V43.4761C22.292 42.5374 22.6092 39.8539 24.0223 39.8539C25.5827 39.8539 25.7493 42.3853 25.7493 43.4761V49.6814C25.7493 51.1996 26.9701 52.4329 28.4728 52.4329C29.3348 52.4329 30.1262 52.0315 30.642 51.3453C31.7122 52.038 33.058 52.4167 34.4582 52.4167C35.272 52.4167 36.0667 52.2937 36.8229 52.0542C37.6367 52.6692 38.7742 52.7663 39.6681 52.3131C40.043 52.5041 40.4628 52.6044 40.8857 52.6044C41.5137 52.6044 42.1161 52.3876 42.6031 51.9862C43.087 52.2128 43.5932 52.3714 44.1123 52.4685C44.343 52.339 44.5705 52.2095 44.7948 52.0703C44.0482 52.0056 43.3337 51.8114 42.6672 51.4812C42.5775 51.4359 42.4718 51.4521 42.3981 51.5201" fill="white"/>
</g>
</g>
<defs>
<filter id="filter0_dd_1236_4401" x="0" y="0" width="68" height="71" filterUnits="userSpaceOnUse" color-interpolation-filters="sRGB">
<feFlood flood-opacity="0" result="BackgroundImageFix"/>
<feColorMatrix in="SourceAlpha" type="matrix" values="0 0 0 0 0 0 0 0 0 0 0 0 0 0 0 0 0 0 127 0" result="hardAlpha"/>
<feOffset dy="3"/>
<feGaussianBlur stdDeviation="1"/>
<feColorMatrix type="matrix" values="0 0 0 0 0.0901961 0 0 0 0 0.168627 0 0 0 0 0.301961 0 0 0 0.08 0"/>
<feBlend mode="normal" in2="BackgroundImageFix" result="effect1_dropShadow_1236_4401"/>
<feColorMatrix in="SourceAlpha" type="matrix" values="0 0 0 0 0 0 0 0 0 0 0 0 0 0 0 0 0 0 127 0" result="hardAlpha"/>
<feOffset/>
<feGaussianBlur stdDeviation="1"/>
<feColorMatrix type="matrix" values="0 0 0 0 0.0901961 0 0 0 0 0.168627 0 0 0 0 0.301961 0 0 0 0.04 0"/>
<feBlend mode="normal" in2="effect1_dropShadow_1236_4401" result="effect2_dropShadow_1236_4401"/>
<feBlend mode="normal" in="SourceGraphic" in2="effect2_dropShadow_1236_4401" result="shape"/>
</filter>
<clipPath id="clip0_1236_4401">
<rect width="42" height="42" fill="white" transform="translate(13 13)"/>
</clipPath>
</defs>
</svg>
