<svg width="68" height="71" viewBox="0 0 68 71" fill="none" xmlns="http://www.w3.org/2000/svg">
<g filter="url(#filter0_dd_1261_4174)">
<circle cx="34" cy="34" r="32" fill="#475763"/>
<circle cx="34" cy="34" r="31" stroke="white" stroke-width="2"/>
<path fill-rule="evenodd" clip-rule="evenodd" d="M49.4193 35.2327C48.9912 37.5675 47.3661 38.3648 45.9071 38.3648H37.95V31.2266C37.95 30.7338 38.081 30.6571 38.5048 30.3855L35.5146 30.3548C35.674 30.4337 36.1218 30.6593 36.1218 31.1872L36.1109 38.0801C36.1109 38.6605 35.8684 38.8686 35.5124 38.9956L45.9791 38.9912C48.6941 39.0022 49.7972 37.9574 50.5857 37.02C51.4462 36.0058 51.9027 34.1331 50.9264 32.5211C50.2253 31.358 48.9038 30.3789 47.3945 30.1424C47.045 30.0876 46.6016 30 46.0512 30C45.5052 30 45.0094 30.0635 44.6249 30.1424C43.3799 30.4381 41.7942 31.2463 41.069 32.5758C40.3198 33.9557 40.6955 35.4539 41.2503 36.2906C41.7505 37.0638 42.9475 38.0801 44.5529 38.1326L44.6009 38.1129C43.5459 37.5653 43.0108 36.5709 42.6853 35.2305C42.4429 34.2054 42.6176 32.6788 43.5066 31.7172C44.1684 31.0119 45.1513 30.6286 46.0512 30.6177C46.9599 30.6286 47.8991 30.9681 48.5565 31.6712C49.4542 32.6349 49.6049 34.2602 49.4193 35.2327ZM17.5035 38.3101L14.8388 34.9151C17.7962 34.442 17.5035 30.2891 13.9935 30.2891H8C8.40845 30.4315 8.68148 30.6396 8.68148 31.0382V38.0866C8.68584 38.4174 8.45869 38.7963 8.15071 38.989H11.0011C10.6953 38.8313 10.3939 38.3823 10.3939 38.1129V35.0596H12.8359L15.7736 39L18.2877 38.9956C18.019 38.8664 17.7525 38.6298 17.5035 38.3101ZM12.8293 34.4288H10.3917L10.3808 30.9309L13.2814 30.9199C15.3783 30.9309 15.8785 34.3894 12.8293 34.4288ZM28.4268 31.2529C28.2127 30.7798 28.4661 30.5082 28.8352 30.3505H25.4781C25.8276 30.6264 26.2273 30.8279 26.3824 31.3602L30.172 38.9912H31.0566L34.6038 31.1061C34.8069 30.6374 35.0078 30.5257 35.211 30.3526H33.2364C33.5968 30.4556 33.8873 30.771 33.6602 31.2791L31.0588 37.0681L28.4268 31.2529ZM52.8682 38.0012C52.8682 38.5225 52.4204 38.8773 52.2457 38.9912H54.1568C53.9821 38.8773 53.5627 38.6014 53.5627 38.0801V31.9691L59.53 38.989H60.4059V31.1762C60.4059 30.6549 60.8296 30.4665 61 30.3526H59.0975C59.2679 30.4665 59.7157 30.7316 59.7157 31.2485L59.7048 36.3037L54.5544 30.3548H51.8066C52.0993 30.5038 52.8682 30.8236 52.8682 31.5376V38.0012ZM25.2815 30.3505H18.3357C18.6655 30.5279 18.9669 30.6615 18.9669 31.1981L18.9648 38.1151C18.9648 38.5926 18.7704 38.8094 18.4406 38.9912H25.6244L26.3015 36.9017C25.9521 37.3156 25.1199 38.3539 23.6019 38.3495L20.8607 38.3451V34.8778H22.8549C23.4861 34.8778 23.8181 35.2283 24.0278 35.5634V33.5045C23.7307 33.9294 23.4686 34.2229 22.8505 34.2229H20.8607V30.955L23.6674 30.9637C24.849 30.9747 25.3558 31.7282 25.6179 32.1706L25.2815 30.3505Z" fill="white"/>
</g>
<defs>
<filter id="filter0_dd_1261_4174" x="0" y="0" width="68" height="71" filterUnits="userSpaceOnUse" color-interpolation-filters="sRGB">
<feFlood flood-opacity="0" result="BackgroundImageFix"/>
<feColorMatrix in="SourceAlpha" type="matrix" values="0 0 0 0 0 0 0 0 0 0 0 0 0 0 0 0 0 0 127 0" result="hardAlpha"/>
<feOffset dy="3"/>
<feGaussianBlur stdDeviation="1"/>
<feColorMatrix type="matrix" values="0 0 0 0 0.0901961 0 0 0 0 0.168627 0 0 0 0 0.301961 0 0 0 0.08 0"/>
<feBlend mode="normal" in2="BackgroundImageFix" result="effect1_dropShadow_1261_4174"/>
<feColorMatrix in="SourceAlpha" type="matrix" values="0 0 0 0 0 0 0 0 0 0 0 0 0 0 0 0 0 0 127 0" result="hardAlpha"/>
<feOffset/>
<feGaussianBlur stdDeviation="1"/>
<feColorMatrix type="matrix" values="0 0 0 0 0.0901961 0 0 0 0 0.168627 0 0 0 0 0.301961 0 0 0 0.04 0"/>
<feBlend mode="normal" in2="effect1_dropShadow_1261_4174" result="effect2_dropShadow_1261_4174"/>
<feBlend mode="normal" in="SourceGraphic" in2="effect2_dropShadow_1261_4174" result="shape"/>
</filter>
</defs>
</svg>
