<svg width="68" height="71" viewBox="0 0 68 71" fill="none" xmlns="http://www.w3.org/2000/svg">
<g filter="url(#filter0_dd_1236_4387)">
<circle cx="34" cy="34" r="32" fill="#433636"/>
<circle cx="34" cy="34" r="31" stroke="white" stroke-width="2"/>
<g clip-path="url(#clip0_1236_4387)">
<path d="M34.3909 45.3403L34.1209 45.0303L34.3109 44.6603C36.0909 41.1503 36.9809 36.9303 37.0309 31.7603L37.0309 31.1803L39.5109 31.1803L39.5109 30.2003L33.1909 30.2003L33.1909 31.1803L35.6109 31.1803L35.6109 31.7603C35.6509 35.9103 34.9309 39.7703 33.4809 43.2303L33.1209 44.0803L32.4709 43.4303C30.3509 41.3103 28.7709 40.7203 25.9009 39.6303L24.6509 39.1603L25.8209 38.5103C26.6309 38.0603 28.5309 37.0003 28.5309 34.4203C28.5309 32.2203 26.7509 29.9503 23.7809 29.9503C20.8109 29.9503 18.7509 32.3103 18.7509 34.4903C18.7509 36.1003 19.5909 37.5803 21.0009 38.4603L22.0709 39.1203L20.8909 39.5603C19.3009 40.1503 15.9909 41.3903 15.9909 45.1803C15.9909 48.9703 19.3909 51.3203 24.4409 51.3203C28.8409 51.3203 31.7609 49.0303 33.0409 46.8803L33.4609 46.1703L34.0209 46.7803C34.1409 46.9103 34.4009 47.1903 34.7009 47.5403C35.3709 48.2903 36.4809 49.5403 36.8109 49.8503C37.9709 50.9703 38.4009 51.1503 39.0909 51.3003L40.2109 50.3703C38.6609 50.0503 37.5709 49.0503 34.3909 45.3303L34.3909 45.3403ZM20.3409 34.4503C20.3409 32.5203 21.8209 31.0103 23.7109 31.0103C25.6009 31.0103 27.1509 32.5403 27.1509 34.4203C27.1509 36.7803 25.0309 37.7903 23.6309 38.4603L23.3309 38.6003L23.0509 38.4303C22.1709 37.9103 20.3409 36.8403 20.3409 34.4503ZM32.1909 45.7803C30.9609 47.5203 29.2709 49.9103 24.4409 49.9103C20.0109 49.9103 17.6909 47.5103 17.6909 45.1403C17.6909 41.9703 20.6009 40.8603 22.9409 39.9703L23.1809 39.8803L23.4409 39.9703C24.1209 40.3003 24.7209 40.5303 25.3509 40.7703C26.3509 41.1603 27.4909 41.5903 29.1709 42.5003C30.0709 42.9903 31.4509 44.0703 32.1909 45.0403L32.4709 45.4003L32.2109 45.7703L32.1909 45.7803Z" fill="white"/>
<path d="M38.9508 17.0002L33.2508 17.0002L33.2508 25.7402L34.3508 25.7402L34.3508 21.9502L38.8108 21.9502C39.3208 21.9502 40.1808 21.9502 40.8908 21.5402C41.6308 21.1202 42.0508 20.3602 42.0508 19.4602C42.0508 18.8102 41.8108 18.2002 41.4008 17.7702C40.6608 17.0102 39.6808 17.0102 38.9508 17.0102L38.9508 17.0002ZM40.9008 19.4602C40.9008 20.0202 40.6708 20.4402 40.2208 20.7002C39.7408 20.9802 39.0908 20.9802 38.5108 20.9802L34.3408 20.9802L34.3408 17.9802L39.0308 17.9802C40.0308 17.9802 40.5408 18.2202 40.7908 18.8102C40.8608 19.0102 40.9008 19.2402 40.9008 19.4602Z" fill="white"/>
<path d="M52 37.2605L52 36.2805L43.94 36.2805L43.94 45.0205L45.04 45.0205L45.04 40.9805L49.99 40.9805L49.99 39.9905L45.04 39.9905L45.04 37.2605L52 37.2605Z" fill="white"/>
</g>
</g>
<defs>
<filter id="filter0_dd_1236_4387" x="0" y="0" width="68" height="71" filterUnits="userSpaceOnUse" color-interpolation-filters="sRGB">
<feFlood flood-opacity="0" result="BackgroundImageFix"/>
<feColorMatrix in="SourceAlpha" type="matrix" values="0 0 0 0 0 0 0 0 0 0 0 0 0 0 0 0 0 0 127 0" result="hardAlpha"/>
<feOffset dy="3"/>
<feGaussianBlur stdDeviation="1"/>
<feColorMatrix type="matrix" values="0 0 0 0 0.0901961 0 0 0 0 0.168627 0 0 0 0 0.301961 0 0 0 0.08 0"/>
<feBlend mode="normal" in2="BackgroundImageFix" result="effect1_dropShadow_1236_4387"/>
<feColorMatrix in="SourceAlpha" type="matrix" values="0 0 0 0 0 0 0 0 0 0 0 0 0 0 0 0 0 0 127 0" result="hardAlpha"/>
<feOffset/>
<feGaussianBlur stdDeviation="1"/>
<feColorMatrix type="matrix" values="0 0 0 0 0.0901961 0 0 0 0 0.168627 0 0 0 0 0.301961 0 0 0 0.04 0"/>
<feBlend mode="normal" in2="effect1_dropShadow_1236_4387" result="effect2_dropShadow_1236_4387"/>
<feBlend mode="normal" in="SourceGraphic" in2="effect2_dropShadow_1236_4387" result="shape"/>
</filter>
<clipPath id="clip0_1236_4387">
<rect width="36" height="34.32" fill="white" transform="translate(52 51.3203) rotate(-180)"/>
</clipPath>
</defs>
</svg>
