<svg width="68" height="71" viewBox="0 0 68 71" fill="none" xmlns="http://www.w3.org/2000/svg">
<g filter="url(#filter0_dd_1236_4584)">
<circle cx="34" cy="34" r="32" fill="#EAD99F"/>
<circle cx="34" cy="34" r="31" stroke="white" stroke-width="2"/>
<g clip-path="url(#clip0_1236_4584)">
<path d="M14.7344 22.1309H15.1579C15.733 22.1309 16.2151 22.3237 16.6077 22.7094C16.9968 23.0951 17.1931 23.5875 17.1931 24.1867C17.1931 24.5482 17.0829 24.9167 16.8659 25.2921C16.649 25.6674 16.3942 25.9119 16.1015 26.0255C16.7833 26.2046 17.3515 26.5972 17.8026 27.1964C18.2537 27.7955 18.481 28.5497 18.481 29.4553C18.481 30.361 18.1573 31.153 17.5099 31.8211C16.8625 32.4926 16.0774 32.8266 15.1579 32.8266H14.7344V22.1309V22.1309ZM15.1579 22.5303V25.8947H15.2647C15.6641 25.8947 16.0154 25.7225 16.3219 25.3747C16.6283 25.0269 16.7799 24.6275 16.7799 24.1763C16.7799 23.7252 16.6283 23.3361 16.3288 23.0124C16.0257 22.6887 15.6745 22.5269 15.2647 22.5269H15.1579V22.5303ZM15.1579 26.2804V32.4237H15.2647C16.0257 32.4237 16.6834 32.1207 17.2379 31.5112C17.7923 30.9016 18.0678 30.1785 18.0678 29.3452C18.0678 28.5118 17.7923 27.7887 17.2447 27.186C16.6938 26.5834 16.036 26.2804 15.2647 26.2804H15.1579V26.2804Z" fill="white"/>
<path d="M15.1579 32.954H14.7344C14.6621 32.954 14.6035 32.8955 14.6035 32.8232V22.1309C14.6035 22.0585 14.6621 22 14.7344 22H15.1579C15.7674 22 16.284 22.2066 16.6972 22.6164C17.1104 23.0262 17.3205 23.5531 17.3205 24.1832C17.3205 24.5655 17.2069 24.958 16.9761 25.354C16.8143 25.633 16.6318 25.8465 16.4252 25.9911C17.0071 26.2046 17.503 26.5834 17.9025 27.1137C18.3708 27.7336 18.605 28.5187 18.605 29.4519C18.605 30.3851 18.2675 31.215 17.5994 31.9072C16.9314 32.5993 16.1084 32.9506 15.1545 32.9506L15.1579 32.954ZM14.8618 32.6957H15.1579C16.0395 32.6957 16.8005 32.372 17.4169 31.7281C18.0368 31.0842 18.3501 30.3197 18.3501 29.4519C18.3501 28.5841 18.1297 27.8437 17.6993 27.2687C17.2688 26.697 16.7179 26.3182 16.067 26.1461C16.0119 26.1323 15.9741 26.0841 15.9706 26.029C15.9672 25.9739 16.0016 25.9222 16.0533 25.9016C16.315 25.7983 16.5526 25.571 16.7523 25.2232C16.9555 24.8685 17.0622 24.5207 17.0622 24.1832C17.0622 23.615 16.8832 23.1639 16.5147 22.7989C16.1462 22.4339 15.702 22.2583 15.1579 22.2583H14.8618V32.6957V32.6957ZM15.2647 32.5546H15.1579C15.0856 32.5546 15.0271 32.496 15.0271 32.4237V26.2804C15.0271 26.208 15.0856 26.1495 15.1579 26.1495H15.2647C16.0705 26.1495 16.7695 26.4698 17.3412 27.0965C17.9093 27.7232 18.1986 28.4774 18.1986 29.3451C18.1986 30.2129 17.9093 30.9705 17.3343 31.6007C16.7558 32.2343 16.0601 32.5546 15.2647 32.5546V32.5546ZM15.2888 26.4078V32.2963C15.9982 32.2894 16.6249 31.9967 17.1449 31.4251C17.6752 30.8431 17.9403 30.1441 17.9403 29.3451C17.9403 28.5462 17.6752 27.8472 17.1483 27.2721C16.6318 26.7039 16.0051 26.4147 15.2853 26.4078H15.2888ZM15.2647 26.0221H15.1579C15.0856 26.0221 15.0271 25.9636 15.0271 25.8912V22.5303C15.0271 22.458 15.0856 22.3995 15.1579 22.3995H15.2647C15.7089 22.3995 16.098 22.5751 16.4217 22.9263C16.7454 23.2741 16.9073 23.6942 16.9073 24.1763C16.9073 24.6584 16.742 25.0889 16.4148 25.4608C16.0843 25.8361 15.6986 26.0255 15.2612 26.0255L15.2647 26.0221ZM15.2888 22.6577V25.7638C15.6435 25.7569 15.95 25.602 16.2254 25.2886C16.5078 24.9684 16.6524 24.593 16.6524 24.1763C16.6524 23.7597 16.5147 23.405 16.2358 23.1019C15.9637 22.8092 15.6538 22.6646 15.2888 22.6577V22.6577Z" fill="white"/>
<path d="M19.5449 22.1309H23.1194V22.5441H19.9823V28.3603H22.5994V28.7735H19.9823V32.4099H23.1194V32.8232H19.5449V22.1309Z" fill="white"/>
<path d="M23.1193 32.954H19.5449C19.4726 32.954 19.4141 32.8955 19.4141 32.8232V22.1309C19.4141 22.0585 19.4726 22 19.5449 22H23.1193C23.1917 22 23.2502 22.0585 23.2502 22.1309V22.5441C23.2502 22.6164 23.1917 22.6749 23.1193 22.6749H20.1131V28.2329H22.6028C22.6751 28.2329 22.7337 28.2914 22.7337 28.3637V28.777C22.7337 28.8493 22.6751 28.9078 22.6028 28.9078H20.1131V32.286H23.1193C23.1917 32.286 23.2502 32.3445 23.2502 32.4168V32.83C23.2502 32.9024 23.1917 32.9609 23.1193 32.9609V32.954ZM19.6723 32.6957H22.9885V32.5408H19.9823C19.9099 32.5408 19.8514 32.4822 19.8514 32.4099V28.7735C19.8514 28.7012 19.9099 28.6427 19.9823 28.6427H22.472V28.4877H19.9823C19.9099 28.4877 19.8514 28.4292 19.8514 28.3568V22.5441C19.8514 22.4718 19.9099 22.4132 19.9823 22.4132H22.9885V22.2583H19.6723V32.6957Z" fill="white"/>
<path d="M24.5565 22.1309V32.4099H27.6419V32.8232H24.1191V22.1309H24.5565Z" fill="white"/>
<path d="M27.638 32.954H24.1152C24.0429 32.954 23.9844 32.8955 23.9844 32.8232V22.1309C23.9844 22.0585 24.0429 22 24.1152 22H24.5526C24.6249 22 24.6834 22.0585 24.6834 22.1309V32.2825H27.638C27.7103 32.2825 27.7689 32.3411 27.7689 32.4134V32.8266C27.7689 32.8989 27.7103 32.9575 27.638 32.9575V32.954ZM24.2461 32.6957H27.5106V32.5408H24.556C24.4837 32.5408 24.4252 32.4822 24.4252 32.4099V22.2583H24.2461V32.6957V32.6957Z" fill="white"/>
<path d="M29.0076 22.1309V32.4099H32.0931V32.8232H28.5703V22.1309H29.0076V22.1309Z" fill="white"/>
<path d="M32.0892 32.954H28.5664C28.4941 32.954 28.4355 32.8955 28.4355 32.8232V22.1309C28.4355 22.0585 28.4941 22 28.5664 22H29.0037C29.0761 22 29.1346 22.0585 29.1346 22.1309V32.2825H32.0892C32.1615 32.2825 32.22 32.3411 32.22 32.4134V32.8266C32.22 32.8989 32.1615 32.9575 32.0892 32.9575V32.954ZM28.6973 32.6957H31.9618V32.5408H29.0072C28.9349 32.5408 28.8763 32.4822 28.8763 32.4099V22.2583H28.6973V32.6957V32.6957Z" fill="white"/>
<path d="M33.0195 22.1309H36.594V22.5441H33.4569V28.3603H36.074V28.7735H33.4569V32.4099H36.594V32.8232H33.0195V22.1309Z" fill="white"/>
<path d="M36.5979 32.954H33.0234C32.9511 32.954 32.8926 32.8955 32.8926 32.8232V22.1309C32.8926 22.0585 32.9511 22 33.0234 22H36.5979C36.6702 22 36.7287 22.0585 36.7287 22.1309V22.5441C36.7287 22.6164 36.6702 22.6749 36.5979 22.6749H33.5916V28.2329H36.0813C36.1536 28.2329 36.2122 28.2914 36.2122 28.3637V28.777C36.2122 28.8493 36.1536 28.9078 36.0813 28.9078H33.5916V32.286H36.5979C36.6702 32.286 36.7287 32.3445 36.7287 32.4168V32.83C36.7287 32.9024 36.6702 32.9609 36.5979 32.9609V32.954ZM33.1508 32.6957H36.467V32.5408H33.4608C33.3885 32.5408 33.3299 32.4822 33.3299 32.4099V28.7735C33.3299 28.7012 33.3885 28.6427 33.4608 28.6427H35.9505V28.4877H33.4608C33.3885 28.4877 33.3299 28.4292 33.3299 28.3568V22.5441C33.3299 22.4718 33.3885 22.4132 33.4608 22.4132H36.467V22.2583H33.1508V32.6957Z" fill="white"/>
<path d="M46.1384 33.0677L41.1797 22.1309H41.6583L46.1763 32.0415L50.6702 22.1309H51.0937L46.135 33.0677H46.1384Z" fill="white"/>
<path d="M46.1393 33.1951C46.0877 33.1951 46.0429 33.1641 46.0222 33.1193L41.0635 22.1825C41.0463 22.1412 41.0497 22.0964 41.0738 22.0585C41.0979 22.0207 41.1393 22 41.184 22H41.6627C41.7143 22 41.7591 22.031 41.7798 22.0758L46.1806 31.7281L50.554 22.0758C50.5747 22.031 50.6194 22 50.6711 22H51.0946C51.1394 22 51.1807 22.0207 51.2048 22.0585C51.2289 22.0964 51.2324 22.1412 51.2152 22.1825L46.2564 33.1193C46.2357 33.1641 46.191 33.1951 46.1393 33.1951V33.1951ZM41.3803 22.2583L46.1393 32.7543L50.8949 22.2583H50.7537L46.2943 32.0931C46.2736 32.1379 46.2289 32.1689 46.1772 32.1689C46.1256 32.1689 46.0808 32.1379 46.0601 32.0931L41.5766 22.2583H41.3803V22.2583Z" fill="white"/>
<path d="M52.0938 22.1309H52.5311V32.8232H52.0938V22.1309Z" fill="white"/>
<path d="M52.5311 32.954H52.0937C52.0214 32.954 51.9629 32.8955 51.9629 32.8232V22.1309C51.9629 22.0585 52.0214 22 52.0937 22H52.5311C52.6034 22 52.6619 22.0585 52.6619 22.1309V32.8232C52.6619 32.8955 52.6034 32.954 52.5311 32.954ZM52.2212 32.6957H52.4002V22.2583H52.2212V32.6957Z" fill="white"/>
<path d="M54.2598 22.1309H57.8342V22.5441H54.6971V28.3603H57.3142V28.7735H54.6971V32.4099H57.8342V32.8232H54.2598V22.1309V22.1309Z" fill="white"/>
<path d="M57.8381 32.954H54.2637C54.1913 32.954 54.1328 32.8955 54.1328 32.8232V22.1309C54.1328 22.0585 54.1913 22 54.2637 22H57.8381C57.9104 22 57.969 22.0585 57.969 22.1309V22.5441C57.969 22.6164 57.9104 22.6749 57.8381 22.6749H54.8319V28.2329H57.3216C57.3939 28.2329 57.4524 28.2914 57.4524 28.3637V28.777C57.4524 28.8493 57.3939 28.9078 57.3216 28.9078H54.8319V32.286H57.8381C57.9104 32.286 57.969 32.3445 57.969 32.4168V32.83C57.969 32.9024 57.9104 32.9609 57.8381 32.9609V32.954ZM54.3911 32.6957H57.7072V32.5408H54.701C54.6287 32.5408 54.5701 32.4822 54.5701 32.4099V28.7735C54.5701 28.7012 54.6287 28.6427 54.701 28.6427H57.1907V28.4877H54.701C54.6287 28.4877 54.5701 28.4292 54.5701 28.3568V22.5441C54.5701 22.4718 54.6287 22.4132 54.701 22.4132H57.7072V22.2583H54.3911V32.6957Z" fill="white"/>
<path d="M22.7314 46.0397H22.6006C21.7913 46.0397 21.0337 45.8089 20.3347 45.3441C19.6356 44.8792 19.0812 44.2628 18.6783 43.4949C18.272 42.7269 18.0723 41.9074 18.0723 41.0396C18.0723 39.6759 18.5234 38.4982 19.429 37.5168C20.3347 36.532 21.416 36.043 22.6729 36.043C23.5131 36.043 24.312 36.284 25.0696 36.7627V37.2379C24.3292 36.6869 23.5303 36.4149 22.6729 36.4149C21.5158 36.4149 20.5241 36.8694 19.6976 37.7751C18.8712 38.6807 18.4579 39.7689 18.4579 41.0327C18.4579 42.2965 18.8712 43.3881 19.6976 44.2972C20.5241 45.2063 21.5158 45.6643 22.6729 45.6643C23.5303 45.6643 24.3292 45.3888 25.0696 44.8413V45.3165C24.3533 45.7986 23.5751 46.0362 22.7314 46.0362V46.0397Z" fill="white"/>
<path d="M22.731 46.1671H22.6001C21.7668 46.1671 20.9816 45.926 20.2619 45.4508C19.5456 44.9756 18.974 44.3385 18.5608 43.5534C18.1476 42.7717 17.9375 41.9246 17.9375 41.0396C17.9375 39.6484 18.4058 38.4328 19.3287 37.4307C20.255 36.4252 21.3776 35.9155 22.669 35.9155C23.5333 35.9155 24.3598 36.1635 25.1346 36.6559C25.1725 36.68 25.1931 36.7213 25.1931 36.7661V37.2413C25.1931 37.2895 25.1656 37.3343 25.1208 37.3549C25.076 37.3756 25.0244 37.3722 24.9865 37.3446C24.2737 36.8143 23.492 36.5457 22.669 36.5457C21.5567 36.5457 20.5891 36.9899 19.7901 37.8611C18.9912 38.7393 18.5849 39.8068 18.5849 41.0327C18.5849 42.2586 18.9912 43.3295 19.7901 44.2111C20.5856 45.0892 21.5567 45.5334 22.669 45.5334C23.4954 45.5334 24.2737 45.2648 24.9865 44.7345C25.0244 44.707 25.0795 44.7001 25.1208 44.7242C25.1656 44.7449 25.1931 44.7896 25.1931 44.8378V45.313C25.1931 45.3544 25.1725 45.3957 25.1346 45.4198C24.4011 45.9122 23.5919 46.1636 22.7275 46.1636L22.731 46.1671ZM22.6724 36.1704C21.4568 36.1704 20.3962 36.6525 19.5215 37.6029C18.6434 38.5568 18.1992 39.7138 18.1992 41.0396C18.1992 41.8832 18.3989 42.689 18.7915 43.4329C19.1841 44.1801 19.7282 44.7862 20.4065 45.2338C21.0815 45.6815 21.8184 45.9088 22.6001 45.9088H22.731C23.5195 45.9088 24.2633 45.685 24.9383 45.2476V45.0892C24.2358 45.5575 23.4748 45.7951 22.6724 45.7951C21.4844 45.7951 20.4513 45.3199 19.6042 44.3867C18.7605 43.457 18.3301 42.3275 18.3301 41.0361C18.3301 39.7448 18.7571 38.6153 19.6042 37.689C20.4513 36.7592 21.4844 36.2874 22.6724 36.2874C23.4748 36.2874 24.2358 36.525 24.9383 36.9934V36.8384C24.2255 36.3976 23.461 36.1738 22.6724 36.1738V36.1704Z" fill="white"/>
<path d="M30.4225 36.0049L34.8475 45.8983H34.4342L32.7572 42.2137H28.0257L26.3728 45.8983H26.0078L30.4225 36.0049V36.0049ZM30.388 36.8933L28.1807 41.8383H32.616L30.3846 36.8933H30.388Z" fill="white"/>
<path d="M34.8484 46.0257H34.4351C34.3835 46.0257 34.3387 45.9947 34.3181 45.9499L32.6755 42.3411H28.1093L26.4908 45.9499C26.4701 45.9947 26.4254 46.0257 26.3737 46.0257H26.0087C25.9639 46.0257 25.9226 46.005 25.902 45.9671C25.8778 45.9293 25.8744 45.8845 25.8916 45.8432L30.3063 35.9498C30.3269 35.9016 30.3717 35.874 30.4234 35.874C30.475 35.874 30.5198 35.905 30.5404 35.9498L34.9654 45.8432C34.9827 45.8845 34.9792 45.9293 34.9551 45.9671C34.931 46.005 34.8897 46.0257 34.8484 46.0257V46.0257ZM34.5178 45.7674H34.6486L30.4234 36.3217L26.2084 45.7674H26.2911L27.9096 42.1585C27.9302 42.1138 27.975 42.0828 28.0266 42.0828H32.7581C32.8098 42.0828 32.8545 42.1138 32.8752 42.1585L34.5178 45.7674ZM32.6169 41.9692H28.1816C28.1368 41.9692 28.0955 41.9485 28.0748 41.9106C28.0507 41.8727 28.0473 41.828 28.0645 41.7866L30.2718 36.8417C30.2925 36.7935 30.3373 36.7659 30.3889 36.7659C30.4406 36.7659 30.4853 36.7969 30.506 36.8417L32.7374 41.7866C32.7547 41.828 32.7512 41.8727 32.7271 41.9106C32.703 41.9485 32.6617 41.9692 32.6204 41.9692H32.6169ZM28.3779 41.7109H32.4172L30.3889 37.2101L28.3813 41.7109H28.3779Z" fill="white"/>
<path d="M42.484 36.2354H42.8249V46.0393L36.3097 37.2926V45.8981H35.9688V36.0942L42.484 44.8271V36.2354Z" fill="white"/>
<path d="M42.8249 46.1669C42.7836 46.1669 42.7457 46.1496 42.7216 46.1152L36.4405 37.6819V45.8983C36.4405 45.9706 36.382 46.0291 36.3097 46.0291H35.9687C35.8964 46.0291 35.8379 45.9706 35.8379 45.8983V36.0944C35.8379 36.0393 35.8723 35.9911 35.9274 35.9704C35.9825 35.9532 36.0376 35.9704 36.0721 36.0152L42.3531 44.4382V36.2356C42.3531 36.1633 42.4117 36.1047 42.484 36.1047H42.8249C42.8972 36.1047 42.9558 36.1633 42.9558 36.2356V46.0395C42.9558 46.0945 42.9213 46.1428 42.8662 46.1634C42.8525 46.1669 42.8387 46.1703 42.8249 46.1703V46.1669ZM36.0996 45.7674H36.1822V37.2928C36.1822 37.2377 36.2167 37.1895 36.2718 37.1688C36.3269 37.1516 36.382 37.1688 36.4164 37.2136L42.6975 45.6469V36.363H42.6148V44.8273C42.6148 44.8824 42.5804 44.9306 42.5253 44.9513C42.4737 44.9685 42.4151 44.9513 42.3807 44.9065L36.0996 36.4835V45.7674V45.7674Z" fill="white"/>
<path d="M44.4766 36.2358H44.8554C46.1777 36.2358 47.2418 36.7111 48.0544 37.658C48.8637 38.6085 49.27 39.7448 49.27 41.0706C49.27 42.3964 48.8671 43.5328 48.0613 44.4763C47.2555 45.4199 46.188 45.8951 44.8588 45.8951H44.48V36.2358H44.4766ZM44.9483 36.6215H44.8554V45.4956H44.9483C46.095 45.4956 47.0386 45.0617 47.7755 44.1939C48.5124 43.3262 48.8775 42.2862 48.8775 41.0706C48.8775 39.855 48.509 38.8082 47.7755 37.9335C47.0386 37.0589 46.0985 36.6181 44.9483 36.6181V36.6215Z" fill="white"/>
<path d="M44.8554 46.0259H44.4766C44.4042 46.0259 44.3457 45.9674 44.3457 45.8951V36.2358C44.3457 36.1635 44.4042 36.105 44.4766 36.105H44.8554C46.2087 36.105 47.3175 36.5974 48.1509 37.5719C48.9773 38.5396 49.3974 39.7173 49.3974 41.0706C49.3974 42.4239 48.9808 43.5982 48.1577 44.5624C47.3313 45.5335 46.219 46.0259 44.8554 46.0259ZM44.6074 45.7677H44.8554C46.1398 45.7677 47.1832 45.3062 47.9615 44.3971C48.7431 43.4811 49.1392 42.362 49.1392 41.0741C49.1392 39.7862 48.7397 38.6636 47.9546 37.7441C47.1729 36.8316 46.1295 36.3667 44.8554 36.3667H44.6074V45.7677ZM44.9518 45.6265H44.8588C44.7865 45.6265 44.7279 45.5679 44.7279 45.4956V36.6215C44.7279 36.5492 44.7865 36.4907 44.8588 36.4907H44.9518C46.1364 36.4907 47.1178 36.9487 47.8754 37.8509C48.6261 38.7462 49.0083 39.8309 49.0083 41.0706C49.0083 42.3103 48.6261 43.3916 47.8754 44.2766C47.1178 45.1719 46.1329 45.623 44.9518 45.623V45.6265ZM44.9862 36.7524V45.3682C46.0744 45.3579 46.98 44.9378 47.6791 44.1113C48.3919 43.2711 48.7535 42.2483 48.7535 41.0706C48.7535 39.8929 48.3919 38.8633 47.6791 38.0162C46.98 37.1828 46.0744 36.7558 44.9862 36.7489V36.7524Z" fill="white"/>
<path d="M50.9536 36.2358V45.5232H53.6912V45.8951H50.5645V36.2358H50.9536Z" fill="white"/>
<path d="M53.6912 46.0259H50.5645C50.4921 46.0259 50.4336 45.9674 50.4336 45.8951V36.2358C50.4336 36.1635 50.4921 36.105 50.5645 36.105H50.9536C51.0259 36.105 51.0844 36.1635 51.0844 36.2358V45.3923H53.6947C53.767 45.3923 53.8255 45.4508 53.8255 45.5232V45.8951C53.8255 45.9674 53.767 46.0259 53.6947 46.0259H53.6912ZM50.6919 45.7677H53.5604V45.654H50.9501C50.8778 45.654 50.8193 45.5955 50.8193 45.5232V36.3667H50.6884V45.7677H50.6919Z" fill="white"/>
<path d="M54.6973 36.2359H57.8722V36.6078H55.0864V41.8627H57.4108V42.2346H55.0864V45.5197H57.8722V45.8917H54.6973V36.2324V36.2359Z" fill="white"/>
<path d="M57.8683 46.0259H54.6934C54.621 46.0259 54.5625 45.9674 54.5625 45.8951V36.2358C54.5625 36.1635 54.621 36.105 54.6934 36.105H57.8683C57.9406 36.105 57.9992 36.1635 57.9992 36.2358V36.6077C57.9992 36.6801 57.9406 36.7386 57.8683 36.7386H55.2133V41.7352H57.4103C57.4826 41.7352 57.5412 41.7938 57.5412 41.8661V42.238C57.5412 42.3103 57.4826 42.3688 57.4103 42.3688H55.2133V45.3957H57.8683C57.9406 45.3957 57.9992 45.4543 57.9992 45.5266V45.8985C57.9992 45.9708 57.9406 46.0294 57.8683 46.0294V46.0259ZM54.8242 45.7677H57.7409V45.654H55.0859C55.0136 45.654 54.9551 45.5955 54.9551 45.5232V42.238C54.9551 42.1657 55.0136 42.1071 55.0859 42.1071H57.2829V41.9935H55.0859C55.0136 41.9935 54.9551 41.935 54.9551 41.8626V36.6077C54.9551 36.5354 55.0136 36.4769 55.0859 36.4769H57.7409V36.3632H54.8242V45.7642V45.7677Z" fill="white"/>
<path d="M17.5591 40.9087C17.5591 40.9087 17.4696 40.9156 17.3112 40.9225C17.1597 40.9294 16.9117 40.957 16.6397 40.9983C16.161 41.074 15.5549 41.2359 14.9627 41.47C14.9627 41.4597 14.9627 41.4528 14.9558 41.4425C14.9489 41.4322 14.9385 41.4287 14.9282 41.4253C14.1947 41.3289 13.3338 41.2393 12.4867 41.2806C12.2663 41.2944 12.0666 41.3151 11.8703 41.3461C11.6327 41.3874 11.4399 41.4287 11.2643 41.4838C11.0404 41.5527 10.851 41.6285 10.6892 41.7214C10.5273 41.8041 10.3655 41.9143 10.1726 42.0761C10.1726 42.0761 10.1658 42.083 10.1623 42.0864C10.1107 42.1622 10.09 42.2517 10.1038 42.3309C10.1175 42.4136 10.1658 42.4893 10.2381 42.5376C10.2932 42.5754 10.3586 42.5961 10.424 42.5961C10.4412 42.5961 10.4585 42.5961 10.4757 42.5927C10.548 42.5789 10.6169 42.5341 10.6685 42.4687C10.6926 42.4549 10.7064 42.4308 10.7167 42.4033C10.7271 42.3654 10.7202 42.3206 10.703 42.2896C10.6857 42.2517 10.6513 42.2242 10.6134 42.2139C10.5824 42.2035 10.5514 42.207 10.5273 42.2242C10.5067 42.2345 10.4998 42.2621 10.5101 42.2793C10.5204 42.2999 10.5445 42.3103 10.5652 42.2999C10.5996 42.2862 10.6169 42.3275 10.6203 42.3344C10.6272 42.3516 10.6306 42.3791 10.6134 42.3895C10.6065 42.3895 10.5996 42.3998 10.5962 42.4033C10.5583 42.448 10.5101 42.479 10.4619 42.4825C10.4137 42.4893 10.362 42.4721 10.3173 42.4411C10.2759 42.4101 10.2484 42.3619 10.245 42.3137C10.2415 42.2724 10.2518 42.2276 10.2828 42.1863C10.4722 42.0486 10.6237 41.9556 10.7753 41.8867C10.9337 41.811 11.1127 41.749 11.3262 41.6973C11.4915 41.656 11.674 41.625 11.9048 41.6009C12.0907 41.5837 12.2836 41.5734 12.4936 41.5734C13.1169 41.5734 13.7299 41.6526 14.3153 41.7524C13.7953 42.0038 13.3235 42.2999 12.9757 42.5582C12.7588 42.7235 12.5866 42.8681 12.4695 42.9749C12.3559 43.0851 12.2904 43.1471 12.2904 43.1471C12.2904 43.1471 12.3593 43.092 12.4833 42.9921C12.6072 42.8957 12.7932 42.7683 13.0205 42.6236C13.4647 42.3516 14.088 42.0451 14.7457 41.8282C14.7836 41.8351 14.8215 41.842 14.8593 41.8488C14.8697 41.8488 14.8835 41.8488 14.8938 41.842C14.9041 41.8351 14.911 41.8247 14.911 41.8144L14.9179 41.7765C15.5549 41.5734 16.2023 41.4632 16.6948 41.4287C16.8256 41.4149 16.9427 41.4149 17.046 41.4115C17.1493 41.4081 17.2423 41.4115 17.3215 41.4115C17.4799 41.4149 17.5694 41.4184 17.5694 41.4184L17.5626 40.9019L17.5591 40.9087Z" fill="white"/>
<path d="M11.1371 41.6629C11.5469 40.8709 11.02 40.3027 10.0627 40.4783C9.83886 41.2703 10.2418 41.9522 11.1371 41.6629Z" fill="white"/>
<path d="M15.7439 41.315C15.2033 42.1345 15.7095 42.8198 16.7805 42.7406C17.1214 41.8969 16.7598 41.1049 15.7439 41.315Z" fill="white"/>
<path d="M10.9473 36.5044L10.1484 36.7833L10.7786 37.3791L10.9473 36.5044Z" fill="white" stroke="white" stroke-width="0.25" stroke-miterlimit="10"/>
<path d="M13.8852 40.6573L13.5684 41.4321L13.713 41.6318C13.8507 41.6008 13.9437 41.5526 13.9988 41.4872L14.0849 40.6538L14.3432 40.6676L14.5429 41.3425L14.6014 41.5732L14.8322 41.4872C14.8976 41.4011 14.8804 41.2633 14.8046 41.0843L14.5739 40.6676L13.8852 40.6538V40.6573Z" fill="white" stroke="white" stroke-width="0.25" stroke-miterlimit="10"/>
<path d="M10.8273 37.2447C10.9272 35.9533 11.6607 35.423 12.6628 35.3232C13.7819 35.2233 14.7737 35.5091 15.2351 36.9417C15.6483 38.1951 15.8618 39.149 16.1339 39.7447L16.2062 36.8177C16.2131 36.4389 16.43 36.2288 16.6022 36.4596C16.6883 36.704 16.8811 36.6455 16.9535 36.5456C17.0395 36.2598 17.3564 36.2874 17.3701 36.704L17.4424 38.0298L16.6539 40.1476C16.616 40.2372 16.5437 40.3095 16.4507 40.3439C15.607 40.6435 14.5085 40.7296 13.2344 40.6642C11.3749 40.4059 10.6758 39.18 10.8239 37.2481L10.8273 37.2447Z" fill="white" stroke="white" stroke-width="0.25" stroke-miterlimit="10"/>
<path d="M12.2118 37.7439C12.7462 37.7439 13.1794 37.3107 13.1794 36.7762C13.1794 36.2418 12.7462 35.8086 12.2118 35.8086C11.6774 35.8086 11.2441 36.2418 11.2441 36.7762C11.2441 37.3107 11.6774 37.7439 12.2118 37.7439Z" fill="#FFFFFD" stroke="white" stroke-width="0.1" stroke-miterlimit="10"/>
<path d="M12.7898 36.9793L13.0377 36.9415L12.8242 36.876C12.838 36.8244 12.8483 36.7727 12.8483 36.7176C12.8483 36.3664 12.5625 36.0806 12.2113 36.0806C11.86 36.0806 11.5742 36.3664 11.5742 36.7176C11.5742 37.0689 11.86 37.3547 12.2113 37.3547C12.2216 37.3547 12.2319 37.3547 12.2423 37.3547L12.3835 37.5923L12.4351 37.3168C12.4971 37.2927 12.5522 37.2617 12.6038 37.2204L12.869 37.2996L12.7106 37.1171C12.7416 37.0758 12.7726 37.0344 12.7932 36.9862L12.7898 36.9793Z" fill="white"/>
<path d="M12.2107 37.0655C12.4846 37.0655 12.7066 36.8435 12.7066 36.5696C12.7066 36.2957 12.4846 36.0737 12.2107 36.0737C11.9369 36.0737 11.7148 36.2957 11.7148 36.5696C11.7148 36.8435 11.9369 37.0655 12.2107 37.0655Z" fill="#FFFFFD"/>
<path d="M16.1703 39.1144C15.3094 38.9628 14.5209 38.5806 13.7805 38.0503C13.1572 37.6405 12.5925 37.7163 12.162 38.0916C11.9072 38.3154 11.7281 38.6323 11.7144 38.9697C11.6903 39.4725 11.9623 39.9753 12.6166 40.1371C14.2213 40.4195 15.3818 40.0441 16.1669 39.1144H16.1703Z" fill="white"/>
<path d="M15.8128 39.1557C15.0965 39.0283 14.2907 38.6839 13.6743 38.2397C13.1544 37.8988 12.686 37.9608 12.3279 38.2742C12.1144 38.4601 11.9663 38.7218 11.956 39.0042C11.9388 39.4243 12.1626 39.8444 12.7101 39.9787C14.0462 40.2129 15.162 39.9305 15.8162 39.1557H15.8128Z" fill="white"/>
<path d="M12.7377 42.7957C11.808 42.4858 11.1124 43.0815 11.4498 43.9872C12.2453 44.0457 13.0614 43.5567 12.7377 42.7957Z" fill="white"/>
</g>
</g>
<defs>
<filter id="filter0_dd_1236_4584" x="0" y="0" width="68" height="71" filterUnits="userSpaceOnUse" color-interpolation-filters="sRGB">
<feFlood flood-opacity="0" result="BackgroundImageFix"/>
<feColorMatrix in="SourceAlpha" type="matrix" values="0 0 0 0 0 0 0 0 0 0 0 0 0 0 0 0 0 0 127 0" result="hardAlpha"/>
<feOffset dy="3"/>
<feGaussianBlur stdDeviation="1"/>
<feColorMatrix type="matrix" values="0 0 0 0 0.0901961 0 0 0 0 0.168627 0 0 0 0 0.301961 0 0 0 0.08 0"/>
<feBlend mode="normal" in2="BackgroundImageFix" result="effect1_dropShadow_1236_4584"/>
<feColorMatrix in="SourceAlpha" type="matrix" values="0 0 0 0 0 0 0 0 0 0 0 0 0 0 0 0 0 0 127 0" result="hardAlpha"/>
<feOffset/>
<feGaussianBlur stdDeviation="1"/>
<feColorMatrix type="matrix" values="0 0 0 0 0.0901961 0 0 0 0 0.168627 0 0 0 0 0.301961 0 0 0 0.04 0"/>
<feBlend mode="normal" in2="effect1_dropShadow_1236_4584" result="effect2_dropShadow_1236_4584"/>
<feBlend mode="normal" in="SourceGraphic" in2="effect2_dropShadow_1236_4584" result="shape"/>
</filter>
<clipPath id="clip0_1236_4584">
<rect width="48" height="24.167" fill="white" transform="translate(10 22)"/>
</clipPath>
</defs>
</svg>
