<svg width="68" height="71" viewBox="0 0 68 71" fill="none" xmlns="http://www.w3.org/2000/svg">
<g filter="url(#filter0_dd_1236_4576)">
<circle cx="34" cy="34" r="32" fill="#13AD6C"/>
<circle cx="34" cy="34" r="31" stroke="white" stroke-width="2"/>
<g clip-path="url(#clip0_1236_4576)">
<path d="M31.3336 16.2713C31.5124 16.4501 31.6049 16.6906 31.6049 16.9804V25.7543C31.6049 26.7531 31.3706 27.6657 30.902 28.4796C30.4334 29.2934 29.7983 29.9347 28.9967 30.4033C28.1952 30.8719 27.3011 31.1062 26.3146 31.1062C25.3281 31.1062 24.4279 30.8719 23.6078 30.4033C22.7939 29.9347 22.1527 29.2934 21.6964 28.4796C21.234 27.6657 21.0059 26.7593 21.0059 25.7543C21.0059 24.7493 21.2217 23.8491 21.6533 23.029C22.0849 22.2151 22.6706 21.5739 23.4228 21.1114C24.1751 20.649 25.0136 20.4209 25.9323 20.4209C26.6784 20.4209 27.369 20.575 28.0102 20.8833C28.6514 21.1916 29.194 21.6232 29.6441 22.172V16.9804C29.6441 16.6844 29.7366 16.4501 29.9216 16.2713C30.1066 16.0925 30.3409 16 30.6245 16C30.9081 16 31.1548 16.0925 31.3397 16.2713M28.0595 28.905C28.5775 28.5905 28.9844 28.1589 29.2804 27.604C29.5763 27.0553 29.7243 26.4387 29.7243 25.7543C29.7243 25.0699 29.5763 24.4595 29.2804 23.9169C28.9844 23.3743 28.5775 22.9427 28.0595 22.6282C27.5416 22.3138 26.962 22.1596 26.3208 22.1596C25.6795 22.1596 25.0999 22.3138 24.5759 22.6282C24.0579 22.9427 23.6448 23.3743 23.3427 23.9169C23.0406 24.4595 22.8926 25.076 22.8926 25.7543C22.8926 26.4325 23.0406 27.0491 23.3427 27.604C23.6448 28.1589 24.0579 28.5905 24.5759 28.905C25.0938 29.2195 25.6734 29.3736 26.3208 29.3736C26.9682 29.3736 27.5416 29.2195 28.0595 28.905Z" fill="white"/>
<path d="M46.6734 20.6923C47.0557 20.8957 47.253 21.1547 47.253 21.463C47.253 21.5555 47.2468 21.6171 47.2345 21.6541C47.1174 22.0672 46.8646 22.2707 46.4638 22.2707C46.396 22.2707 46.3035 22.2584 46.174 22.2337C45.6622 22.1412 45.243 22.0981 44.9223 22.0981C43.9975 22.0981 43.2514 22.3077 42.6903 22.7331C42.1231 23.1586 41.8456 23.7258 41.8456 24.4472V30.0643C41.8456 30.3726 41.7654 30.6069 41.6051 30.7733C41.4448 30.9398 41.2044 31.02 40.8837 31.02C40.5631 31.02 40.3411 30.9398 40.1747 30.7795C40.0082 30.6192 39.9219 30.3787 39.9219 30.0581V21.463C39.9219 21.1547 40.0082 20.9204 40.1747 20.7539C40.3411 20.5874 40.5816 20.5073 40.8837 20.5073C41.525 20.5073 41.8456 20.8279 41.8456 21.4692V21.8329C42.2279 21.3828 42.7026 21.0314 43.2699 20.7724C43.8372 20.5135 44.4352 20.3901 45.0765 20.3901C45.7547 20.3901 46.2911 20.495 46.6734 20.6984" fill="white"/>
<path d="M45.3913 37.2905C46.2051 37.7591 46.8464 38.4003 47.3027 39.2142C47.7651 40.0281 47.9932 40.9345 47.9932 41.9395C47.9932 42.9445 47.7774 43.8447 47.352 44.6648C46.9204 45.4787 46.3346 46.1199 45.5824 46.5823C44.8302 47.0448 43.9916 47.2729 43.0729 47.2729C42.3269 47.2729 41.6363 47.1188 40.995 46.8105C40.3538 46.5022 39.805 46.0706 39.3611 45.5218V50.7196C39.3611 51.0155 39.2686 51.2498 39.0898 51.4286C38.911 51.6074 38.6705 51.6999 38.3808 51.6999C38.091 51.6999 37.8628 51.6074 37.6779 51.4286C37.4929 51.2498 37.4004 51.0094 37.4004 50.7196V41.9457C37.4004 40.9468 37.6347 40.0343 38.1033 39.2204C38.5719 38.4065 39.207 37.7652 40.0085 37.2966C40.8101 36.828 41.7041 36.5938 42.6906 36.5938C43.6772 36.5938 44.5774 36.828 45.3974 37.2966M44.4356 45.0717C44.9535 44.7573 45.3666 44.3257 45.6687 43.7831C45.9708 43.2405 46.1188 42.6239 46.1188 41.9457C46.1188 41.2674 45.9708 40.6508 45.6687 40.0959C45.3666 39.5472 44.9535 39.1094 44.4356 38.7949C43.9176 38.4805 43.338 38.3263 42.6968 38.3263C42.0556 38.3263 41.476 38.4805 40.9581 38.7949C40.4401 39.1094 40.0332 39.541 39.7372 40.0959C39.4413 40.6447 39.2933 41.2613 39.2933 41.9457C39.2933 42.6301 39.4413 43.2405 39.7372 43.7831C40.0332 44.3257 40.4401 44.7573 40.9581 45.0717C41.476 45.3862 42.0556 45.5403 42.6968 45.5403C43.338 45.5403 43.9176 45.3862 44.4356 45.0717" fill="white"/>
<path d="M26.6037 36.3965C24.6122 41.4524 21.5293 43.4317 21.5293 46.7673C21.5293 49.3693 23.8045 51.478 26.6037 51.478C29.403 51.478 31.6844 49.3693 31.6844 46.7673C31.6844 43.4378 28.6015 41.4586 26.6037 36.3965M24.4765 47.2483C24.569 47.6737 24.2669 48.13 23.7983 48.167C23.2372 48.2163 22.9166 47.8772 22.7933 47.4024C22.0781 44.6401 24.6184 43.074 26.5667 38.943C25.4137 43.37 23.7675 44.0729 24.4765 47.2483" fill="white"/>
</g>
</g>
<defs>
<filter id="filter0_dd_1236_4576" x="0" y="0" width="68" height="71" filterUnits="userSpaceOnUse" color-interpolation-filters="sRGB">
<feFlood flood-opacity="0" result="BackgroundImageFix"/>
<feColorMatrix in="SourceAlpha" type="matrix" values="0 0 0 0 0 0 0 0 0 0 0 0 0 0 0 0 0 0 127 0" result="hardAlpha"/>
<feOffset dy="3"/>
<feGaussianBlur stdDeviation="1"/>
<feColorMatrix type="matrix" values="0 0 0 0 0.0901961 0 0 0 0 0.168627 0 0 0 0 0.301961 0 0 0 0.08 0"/>
<feBlend mode="normal" in2="BackgroundImageFix" result="effect1_dropShadow_1236_4576"/>
<feColorMatrix in="SourceAlpha" type="matrix" values="0 0 0 0 0 0 0 0 0 0 0 0 0 0 0 0 0 0 127 0" result="hardAlpha"/>
<feOffset/>
<feGaussianBlur stdDeviation="1"/>
<feColorMatrix type="matrix" values="0 0 0 0 0.0901961 0 0 0 0 0.168627 0 0 0 0 0.301961 0 0 0 0.04 0"/>
<feBlend mode="normal" in2="effect1_dropShadow_1236_4576" result="effect2_dropShadow_1236_4576"/>
<feBlend mode="normal" in="SourceGraphic" in2="effect2_dropShadow_1236_4576" result="shape"/>
</filter>
<clipPath id="clip0_1236_4576">
<rect width="27" height="35.6938" fill="white" transform="translate(21 16)"/>
</clipPath>
</defs>
</svg>
