<svg width="68" height="71" viewBox="0 0 68 71" fill="none" xmlns="http://www.w3.org/2000/svg">
<g filter="url(#filter0_dd_1261_4210)">
<circle cx="34" cy="34" r="32" fill="#ED8C8C"/>
<circle cx="34" cy="34" r="31" stroke="white" stroke-width="2"/>
<path d="M13.3716 38.5016C14.3891 38.5046 15.1462 38.2906 15.158 35.5413L15.1637 33.9563L11.544 33.9416L11.5382 35.5265C11.5265 38.2759 12.3542 38.4985 13.3716 38.5016ZM11.5451 33.7416L15.1649 33.7564L15.1695 32.3714C15.1813 29.622 14.4241 29.4008 13.4067 29.3948C12.3893 29.3918 11.5615 29.6073 11.5497 32.3566L11.5451 33.7416ZM6.96688 38.6361L6.96148 38.6124C7.79125 38.444 8.38255 38.1443 8.39486 35.5126L8.40635 32.3427C8.41572 29.7109 7.82785 29.4079 6.99919 29.2322L7.00554 29.2088C8.13511 29.3377 8.92807 29.3891 9.9073 29.3913L10.0484 29.3942C11.16 29.3962 12.036 29.264 13.4093 29.2684C14.709 29.2742 15.5854 29.4126 16.697 29.4175L16.8616 29.4209C17.8437 29.4232 18.6357 29.3775 19.7674 29.2594L19.7728 29.283C18.943 29.4514 18.3517 29.7511 18.3394 32.3828L18.3279 35.5527C18.3185 38.1845 18.9064 38.4876 19.7351 38.6632L19.7287 38.6866C18.5991 38.5578 17.8062 38.5064 16.8269 38.5042L16.6623 38.5008C15.5508 38.4988 14.6747 38.631 13.375 38.6252C12.0018 38.6208 11.1283 38.4795 10.0168 38.4746L9.87568 38.4717C8.89351 38.4694 8.10153 38.515 6.96988 38.6332" fill="white"/>
<path d="M19.8591 38.6865L19.8537 38.6629C20.6834 38.4945 21.2747 38.1948 21.2841 35.563L21.2956 32.3931C21.305 29.7613 20.7171 29.4583 19.8884 29.2826L19.8948 29.2592C21.0244 29.388 21.8173 29.4394 22.7965 29.4417C23.8434 29.4453 24.9902 29.304 26.1311 29.3066C29.2892 29.3207 30.3534 29.6306 30.3488 30.5774C30.3472 30.8009 30.359 31.2334 30.3563 31.5127C30.353 32.1096 30.7786 32.4359 30.7755 32.8798C30.7742 33.5238 30.1023 33.7337 26.7854 33.7222C25.7445 33.7186 25.4499 33.745 25.4484 33.9597C25.447 34.1743 25.8258 34.2026 27.3872 34.2108C30.4923 34.2239 30.9642 34.4452 30.9618 35.1421C30.9612 35.6097 30.5487 36.0807 30.1274 36.5514L30.01 36.6873C29.6007 37.1465 29.2151 37.6004 29.2117 38.0561C29.2098 38.2914 29.409 38.4777 29.8736 38.4783C30.6704 38.4828 31.0492 38.3699 31.2611 38.0713L31.2874 38.0777C31.0668 38.5144 30.4718 38.7052 29.1868 38.6997C27.1814 38.6912 25.9635 38.4254 25.9686 37.5932C25.9719 36.417 27.9884 35.1582 27.9914 34.7201C27.9927 34.5142 27.7625 34.4066 26.8922 34.4007C25.4602 34.3951 25.2547 34.2292 25.2571 33.9675C25.2578 33.647 25.5594 33.562 26.6951 33.5351C27.5954 33.5151 27.7598 33.3861 27.7611 33.1774C27.7635 32.7686 26.7808 32.5046 26.7854 31.696C26.7865 31.0637 27.1936 30.5691 27.1941 30.1075C27.1973 29.6635 26.9599 29.4793 26.2277 29.4761C25.0515 29.4728 24.4543 29.6283 24.4421 32.2542L24.4276 35.571C24.4182 38.2028 25.0061 38.5059 25.8348 38.6815L25.8284 38.7049C24.6988 38.5761 23.9059 38.5247 22.9266 38.5224L22.762 38.5191C21.7799 38.5168 20.9879 38.5624 19.8562 38.6806" fill="white"/>
<path d="M37.7831 38.566C38.5623 38.5701 38.801 38.3985 38.8017 37.9309C38.8033 37.5634 38.4028 37.0112 38.4063 36.4084C38.4102 35.6351 39.5113 35.431 39.5137 34.8753C39.5156 34.64 39.2545 34.4612 38.3315 34.4454C36.9527 34.4233 36.7529 34.2722 36.7551 34.0193C36.7557 33.6988 37.0575 33.6079 38.193 33.5868C39.0992 33.567 39.2577 33.4379 39.259 33.2291C39.2614 32.8204 38.2787 32.5564 38.2834 31.7478C38.2844 31.1155 38.6915 30.6209 38.6921 30.1592C38.6952 29.7152 38.4578 29.531 37.7256 29.5279C36.5553 29.5218 35.9522 29.6801 35.94 32.3059L35.9264 35.7228C35.9157 38.1311 36.3482 38.5574 37.7831 38.5631L37.7831 38.566ZM31.3542 38.7324L31.3488 38.7087C32.1785 38.5403 32.7698 38.2406 32.7821 35.6089L32.7936 32.439C32.803 29.8072 32.2151 29.5042 31.3865 29.3285L31.3928 29.3051C32.5224 29.4339 33.3154 29.4853 34.2946 29.4876C35.3414 29.4912 36.4824 29.3497 37.6292 29.3525C40.7873 29.3666 41.8514 29.6765 41.8469 30.6233C41.8453 30.8468 41.8571 31.2793 41.8543 31.5586C41.851 32.1555 42.2767 32.4818 42.2735 32.9257C42.2722 33.5697 41.6004 33.7796 38.2835 33.7681C37.2366 33.7644 36.9479 33.7909 36.9465 34.0056C36.9449 34.229 37.2354 34.2614 38.4234 34.2649C41.3932 34.2782 42.2201 34.398 42.2169 35.1331C42.2161 35.6065 41.9755 36.0134 41.9756 36.4456C41.9734 36.8426 42.3163 37.1878 42.3132 37.4877C42.3083 38.4521 40.5349 38.7454 37.9443 38.7369C36.5769 38.7326 35.4361 38.5801 34.3981 38.5737L34.257 38.5708C33.2749 38.5685 32.4829 38.6142 31.3512 38.7323" fill="white"/>
<path d="M42.4691 38.7817L42.4637 38.7581C43.2935 38.5897 43.8848 38.29 43.8971 35.6582L43.9086 32.4883C43.918 29.8566 43.3301 29.5535 42.5015 29.3778L42.5078 29.3544C43.6374 29.4833 44.4303 29.5347 45.4096 29.5369L45.5742 29.5403C46.5563 29.5426 47.3483 29.4969 48.48 29.3788L48.4854 29.4024C47.6556 29.5708 47.0643 29.8705 47.052 32.5022L47.0315 37.4158C47.0279 38.4626 47.2397 38.6052 47.7013 38.6087C48.2629 38.6113 48.5664 38.2939 49.2075 37.2777C49.8578 36.2499 50.5767 35.0235 51.2101 33.3778L51.2451 33.3903C50.9809 34.3818 50.8824 35.3179 50.8793 36.1971C50.8745 37.4439 51.06 38.4446 51.6028 38.7968L51.5906 38.82C51.1781 38.7117 50.756 38.6443 50.3502 38.6449C49.5827 38.641 48.7417 38.7857 47.6772 38.7817C47.0391 38.7805 46.3599 38.6285 45.419 38.624L45.3719 38.6231C44.3898 38.6208 43.5979 38.6635 42.4661 38.7846" fill="white"/>
<path d="M53.4665 38.675C53.0578 38.6726 52.657 38.7145 52.2256 38.8174L52.2143 38.7937C52.7057 38.489 52.9513 37.8382 52.9538 36.9884C52.9568 36.118 52.7768 35.5674 52.6297 34.9939L52.6652 34.9828C53.133 35.9834 54.0829 36.8525 54.7902 37.358C55.7756 38.0662 57.2166 38.6454 57.984 38.6492C58.5868 38.6526 58.8115 38.4514 58.8154 38.1132C58.8169 37.7516 58.5931 37.6206 57.8912 37.2828C57.1894 36.9421 56.8418 36.6822 56.8438 36.0058C56.8443 35.55 57.072 35.1959 57.281 34.8943C57.49 34.5986 57.6866 34.3291 57.687 34.0203C57.6891 33.7733 57.5411 33.6762 57.2734 33.6767C56.9353 33.6757 56.5337 33.8998 56.019 34.1923C55.3853 34.5558 54.6732 35.0089 53.8263 35.0064C52.9912 35.0041 52.5856 34.7048 52.5889 34.1079C52.592 33.5227 53.0665 33.1824 53.0683 32.512C53.0714 31.9268 52.646 31.4447 52.6501 30.8066C52.654 29.7481 54.1868 29.4234 56.0628 29.4321C57.6654 29.4382 58.6712 29.5792 59.8122 29.5818C60.2444 29.5847 60.6513 29.5312 61.0593 29.4278L61.0646 29.4514C60.3489 29.7986 60.0437 30.4893 60.038 31.4949C60.0348 31.9389 60.0589 32.4893 60.174 32.9034L60.1325 32.9202C59.7995 31.943 59.0041 31.0005 58.1745 30.4337C57.3419 29.8757 56.6827 29.6064 56.2152 29.6028C55.8477 29.6012 55.6358 29.7528 55.6333 30.0203C55.6298 30.1908 55.7865 30.441 56.0793 30.7911C56.3867 31.1472 56.6786 31.5443 56.6772 32.1942C56.6713 33.785 54.3072 33.6282 54.3049 34.178C54.3036 34.3839 54.4695 34.4696 54.7048 34.4685C55.0371 34.4693 55.4552 34.2955 55.8597 34.0714C56.636 33.6431 57.6384 33.0842 59.3468 33.0924C60.5818 33.0969 61.191 33.3652 61.1871 34.1356C61.186 34.7678 60.9213 35.2035 60.9196 35.7181C60.9171 36.2798 61.2576 36.5955 61.2574 37.1865C61.2537 38.2393 59.6008 38.8232 57.4543 38.8149C55.8458 38.8087 54.6163 38.6778 53.4695 38.6751" fill="white"/>
</g>
<defs>
<filter id="filter0_dd_1261_4210" x="0" y="0" width="68" height="71" filterUnits="userSpaceOnUse" color-interpolation-filters="sRGB">
<feFlood flood-opacity="0" result="BackgroundImageFix"/>
<feColorMatrix in="SourceAlpha" type="matrix" values="0 0 0 0 0 0 0 0 0 0 0 0 0 0 0 0 0 0 127 0" result="hardAlpha"/>
<feOffset dy="3"/>
<feGaussianBlur stdDeviation="1"/>
<feColorMatrix type="matrix" values="0 0 0 0 0.0901961 0 0 0 0 0.168627 0 0 0 0 0.301961 0 0 0 0.08 0"/>
<feBlend mode="normal" in2="BackgroundImageFix" result="effect1_dropShadow_1261_4210"/>
<feColorMatrix in="SourceAlpha" type="matrix" values="0 0 0 0 0 0 0 0 0 0 0 0 0 0 0 0 0 0 127 0" result="hardAlpha"/>
<feOffset/>
<feGaussianBlur stdDeviation="1"/>
<feColorMatrix type="matrix" values="0 0 0 0 0.0901961 0 0 0 0 0.168627 0 0 0 0 0.301961 0 0 0 0.04 0"/>
<feBlend mode="normal" in2="effect1_dropShadow_1261_4210" result="effect2_dropShadow_1261_4210"/>
<feBlend mode="normal" in="SourceGraphic" in2="effect2_dropShadow_1261_4210" result="shape"/>
</filter>
</defs>
</svg>
