<svg width="68" height="71" viewBox="0 0 68 71" fill="none" xmlns="http://www.w3.org/2000/svg">
<g filter="url(#filter0_dd_1261_4196)">
<circle cx="34" cy="34" r="32" fill="#433636"/>
<circle cx="34" cy="34" r="31" stroke="white" stroke-width="2"/>
<path d="M31.2478 33.8157C31.8952 33.3559 32.2099 32.5844 32.2099 31.462V31.0415C32.2099 29.0842 31.2478 28.1343 29.2693 28.1343H26.2773V40.3018H29.3873C31.3265 40.3018 32.3944 39.24 32.3944 37.3099V36.3539C32.3944 35.1044 32.0193 34.2695 31.2478 33.8157ZM28.5312 35.0076H29.1513C29.8229 35.0076 30.1406 35.1922 30.1406 36.2329V37.2584C30.1406 38.0571 29.8623 38.2144 29.3843 38.2144H28.5281V35.0076H28.5312ZM29.9591 31.8826C29.9591 32.7478 29.596 32.9232 29.0515 32.9232H28.5312V30.2187H29.2209C29.6777 30.2187 29.9591 30.3881 29.9591 31.2261V31.8795V31.8826Z" fill="white"/>
<path d="M37.4732 28.1343H34.4238L32.4785 40.3018H34.5871L34.9078 38.169H36.8288L37.1465 40.3018H39.4215L37.4762 28.1343H37.4732ZM36.5112 36.1663H35.2012L35.8577 31.7888L36.5142 36.1663H36.5112Z" fill="white"/>
<path d="M42.0917 28.1343H39.8379V40.3018H45.1321V38.2144H42.0917V28.1343Z" fill="white"/>
<path d="M47.4648 28.1343L45.5195 40.3018H47.6281L47.9488 38.169H49.8698L50.1875 40.3018H52.4625L50.5172 28.1343H47.4678H47.4648ZM49.5522 36.1663H48.2423L48.8957 31.7888L49.5522 36.1663Z" fill="white"/>
<path d="M57.8472 33.8157C58.4946 33.3559 58.8123 32.5844 58.8123 31.462V31.0415C58.8123 29.0842 57.8503 28.1343 55.8718 28.1343H52.8828V40.3018H55.9928C57.9319 40.3018 58.9999 39.24 58.9999 37.3099V36.3539C58.9999 35.1044 58.6217 34.2695 57.8503 33.8157H57.8472ZM55.1336 35.0076H55.7538C56.4254 35.0076 56.743 35.1922 56.743 36.2329V37.2584C56.743 38.0571 56.4677 38.2144 55.9897 38.2144H55.1336V35.0076ZM56.5585 31.8826C56.5585 32.7478 56.1955 32.9232 55.6509 32.9232H55.1336V30.2187H55.8203C56.2771 30.2187 56.5585 30.3881 56.5585 31.2261V31.8795V31.8826Z" fill="white"/>
<path fill-rule="evenodd" clip-rule="evenodd" d="M20.1248 34.5773C19.8464 35.2489 19.1779 35.7269 18.4064 35.7269C17.3809 35.7269 16.5519 34.895 16.5519 33.8724C16.5519 33.0072 17.157 32.2751 17.9647 32.0754C17.756 31.54 17.3083 30.6778 17.1751 30.3964C17.042 30.1181 16.7395 28.3574 16.676 28.0095C16.6639 27.9278 15.8803 28.4663 15.8773 28.4935C15.8289 28.5419 15.2874 29.9578 15.2632 30.0273L15.2481 30.2694C15.2481 30.2694 15.5234 30.2996 15.6686 30.7625C15.8229 31.2284 16.2857 32.9255 16.2857 32.9255L16.1556 33.0465C16.7395 35.0008 16.5338 35.8419 16.794 36.4106C17.1328 37.2304 17.2145 37.1185 17.4988 37.7992C17.7015 38.2893 17.9315 40.2406 18.0071 40.3283C18.3187 40.7246 18.4941 41.0362 18.4941 41.2631C18.4941 41.49 18.2219 42.1646 18.3187 42.5458C18.3792 42.7818 18.4064 43.2991 18.5183 43.3899C18.5183 43.3899 18.6152 43.5895 18.5698 43.6712L18.5335 43.7801C18.6787 44.2914 19.0962 45.1052 18.7029 45.68C18.6242 45.7979 18.476 45.928 18.358 45.9946C18.2763 46.043 18.2279 46.0581 18.2037 46.0642C18.1795 46.0581 18.1402 46.049 18.0797 46.0158C17.9889 45.9643 17.9678 45.9432 17.9224 45.9038C17.4595 45.4984 17.8074 44.7936 17.8256 43.5441C17.4928 43.2446 17.7167 43.1236 17.7046 42.9996C17.4837 42.092 16.7607 41.5445 17.1328 41.245C17.039 40.9424 16.8545 40.5673 16.8635 40.5703C16.564 40.4009 16.2766 40.1982 16.0074 39.9895C15.2813 39.4298 14.7338 38.8399 14.6158 38.7249C14.4222 38.5101 14.0894 38.2953 14.0198 38.1168C14.0168 38.1168 14.0138 38.1108 14.0077 38.1047C13.7082 37.8113 12.4134 35.978 12.1169 35.3003L11.9021 35.2731L11.5724 35.2247C11.3334 34.2294 10.5135 33.3944 10.4924 32.3901C10.4863 32.0058 10.6678 31.1981 10.7314 31.0347C10.7979 30.8744 11.1125 30.6021 11.1125 30.6021V30.3329C9.93573 30.3662 10.2776 30.2482 10.0719 29.7914C9.9327 29.4767 10.0295 29.4072 10.0809 29.1863C10.2383 28.545 10.7677 27.5436 10.9825 27.0928C11.052 26.8629 11.2759 26.3093 11.2759 26.3093C11.5179 25.8162 11.7176 25.4713 11.9052 25.2232C12.3862 24.5819 12.7613 24.6303 13.5176 24.5607L13.5721 24.4851C13.7475 24.476 13.8927 24.4669 14.0107 24.4548C14.5613 24.3853 14.4675 24.1886 14.5855 23.3627C14.4312 23.4232 14.3919 23.0451 14.3919 23.0451C14.3133 22.4763 14.5492 22.5822 14.6612 22.5731C14.6854 21.6898 14.7701 21.3812 15.3509 21.1271C15.4417 21.0847 15.481 21.0575 15.5899 21.0303C15.6716 21.0091 15.7381 21.003 15.7714 21C15.8108 21 15.9045 21.0121 16.0134 21.0454C16.1526 21.0877 16.2161 21.1392 16.2676 21.1634C16.4672 21.2602 16.5973 21.3782 16.679 21.5445C16.9331 21.5627 17.2356 22.1345 16.7637 22.9815C16.9724 23.1267 16.8091 23.3385 16.6608 23.5775C16.6155 23.6531 16.5671 23.7923 16.4279 23.7832C16.2403 24.1674 16.0255 24.5305 15.8622 24.5516C15.8168 24.6121 15.7835 24.7755 15.8531 24.8511C16.0951 24.96 16.3886 25.1022 16.5338 25.2444L16.5459 25.3322C16.7304 25.4411 16.8303 25.5318 17.0178 25.6559C17.517 25.9705 18.1311 26.5332 18.0555 28.4633C18.1977 28.8868 18.2612 29.7097 18.3883 29.9699C18.6454 30.4902 18.8269 30.826 18.9026 31.3161C18.9026 31.3161 18.9782 32.0724 19.075 32.1299C19.5893 32.2509 19.441 32.2993 19.5106 32.3931C19.5923 32.4929 19.8918 32.4869 19.8918 32.7682C19.9977 32.9043 20.0764 33.0435 20.1308 33.1917C20.1308 33.1917 20.2458 33.5003 20.2458 33.8512C20.2458 34.2022 20.1308 34.5743 20.1308 34.5743L20.1248 34.5773Z" fill="white"/>
<path d="M23.5063 28.1338V33.8485L21.9664 28.1338H19.2891V31.8548C19.516 31.9184 19.6975 31.997 19.7731 32.1755C19.885 32.2239 20.1452 32.3419 20.2027 32.6475C20.3025 32.7927 20.3782 32.9349 20.4326 33.0831C20.4326 33.0952 20.5657 33.4491 20.5657 33.8545C20.5657 34.2599 20.4417 34.6562 20.4356 34.6744L20.4266 34.7046C20.2057 35.2371 19.7943 35.6455 19.2921 35.8693V40.3013H21.3614V33.1043L23.3066 40.3013H25.5604V28.1338H23.5093H23.5063Z" fill="white"/>
</g>
<defs>
<filter id="filter0_dd_1261_4196" x="0" y="0" width="68" height="71" filterUnits="userSpaceOnUse" color-interpolation-filters="sRGB">
<feFlood flood-opacity="0" result="BackgroundImageFix"/>
<feColorMatrix in="SourceAlpha" type="matrix" values="0 0 0 0 0 0 0 0 0 0 0 0 0 0 0 0 0 0 127 0" result="hardAlpha"/>
<feOffset dy="3"/>
<feGaussianBlur stdDeviation="1"/>
<feColorMatrix type="matrix" values="0 0 0 0 0.0901961 0 0 0 0 0.168627 0 0 0 0 0.301961 0 0 0 0.08 0"/>
<feBlend mode="normal" in2="BackgroundImageFix" result="effect1_dropShadow_1261_4196"/>
<feColorMatrix in="SourceAlpha" type="matrix" values="0 0 0 0 0 0 0 0 0 0 0 0 0 0 0 0 0 0 127 0" result="hardAlpha"/>
<feOffset/>
<feGaussianBlur stdDeviation="1"/>
<feColorMatrix type="matrix" values="0 0 0 0 0.0901961 0 0 0 0 0.168627 0 0 0 0 0.301961 0 0 0 0.04 0"/>
<feBlend mode="normal" in2="effect1_dropShadow_1261_4196" result="effect2_dropShadow_1261_4196"/>
<feBlend mode="normal" in="SourceGraphic" in2="effect2_dropShadow_1261_4196" result="shape"/>
</filter>
</defs>
</svg>
