<svg width="568" height="33" viewBox="0 0 568 33" fill="none" xmlns="http://www.w3.org/2000/svg">
<path d="M10.6942 23.4794C12.3517 23.4843 13.5853 23.1357 13.6045 18.6566L13.6138 16.0745L7.71673 16.0505L7.70737 18.6326C7.68821 23.1117 9.03665 23.4744 10.6942 23.4794ZM7.71855 15.7247L13.6156 15.7488L13.6232 13.4924C13.6423 9.01333 12.4088 8.6529 10.7514 8.64317C9.09383 8.63823 7.74525 8.9893 7.72608 13.4684L7.71855 15.7247ZM0.259987 23.6985L0.251188 23.66C1.603 23.3857 2.56631 22.8974 2.58637 18.61L2.60508 13.4458C2.62035 9.15823 1.66263 8.66447 0.312624 8.37832L0.322981 8.34021C2.16321 8.55008 3.45504 8.63382 5.05033 8.6375L5.2802 8.64217C7.09109 8.64543 8.51836 8.4301 10.7556 8.43724C12.8729 8.44674 14.3008 8.67218 16.1116 8.68024L16.3798 8.68569C17.9799 8.68946 19.2701 8.61507 21.1138 8.42258L21.1226 8.46108C19.7707 8.73544 18.8074 9.22369 18.7874 13.5111L18.7687 18.6753C18.7534 22.9629 19.7111 23.4566 21.0611 23.7428L21.0508 23.7809C19.2105 23.571 17.9187 23.4873 16.3234 23.4836L16.0552 23.4781C14.2443 23.4749 12.8171 23.6902 10.6997 23.6807C8.46249 23.6736 7.03948 23.4434 5.22869 23.4354L4.99883 23.4307C3.39875 23.4269 2.10849 23.5013 0.264874 23.6938" fill="#C5C5C5"/>
<path d="M21.2611 23.7809L21.2523 23.7424C22.6041 23.468 23.5674 22.9798 23.5827 18.6922L23.6014 13.5281C23.6166 9.24052 22.6589 8.74676 21.3089 8.46062L21.3193 8.4225C23.1595 8.63237 24.4513 8.71612 26.0466 8.71979C27.7521 8.7257 29.6204 8.49538 31.4792 8.49962C36.6241 8.52273 38.3577 9.02747 38.3503 10.57C38.3477 10.934 38.367 11.6387 38.3625 12.0937C38.3571 13.0662 39.0506 13.5977 39.0454 14.321C39.0433 15.3702 37.9488 15.712 32.5451 15.6932C30.8492 15.6875 30.3693 15.7305 30.3669 16.0802C30.3646 16.4298 30.9817 16.4759 33.5254 16.4893C38.5841 16.5106 39.3529 16.8712 39.349 18.0066C39.3479 18.7683 38.676 19.5356 37.9897 20.3025L37.7983 20.5238C37.1316 21.272 36.5033 22.0114 36.4978 22.7539C36.4948 23.1371 36.8192 23.4407 37.5761 23.4417C38.8743 23.449 39.4913 23.2651 39.8365 22.7786L39.8794 22.7891C39.52 23.5004 38.5508 23.8113 36.4573 23.8023C33.1902 23.7886 31.206 23.3554 31.2144 21.9997C31.2198 20.0835 34.5049 18.0327 34.5098 17.319C34.5119 16.9836 34.1369 16.8083 32.719 16.7987C30.3861 16.7896 30.0514 16.5193 30.0553 16.093C30.0563 15.5708 30.5478 15.4323 32.398 15.3884C33.8646 15.3559 34.1324 15.1458 34.1345 14.8057C34.1385 14.1398 32.5375 13.7097 32.5451 12.3923C32.5469 11.3623 33.21 10.5566 33.2109 9.8044C33.216 9.08108 32.8293 8.78098 31.6364 8.7759C29.7202 8.77049 28.7473 9.0238 28.7274 13.3017L28.7038 18.7053C28.6886 22.9928 29.6463 23.4866 30.9963 23.7727L30.986 23.8109C29.1457 23.601 27.8539 23.5172 26.2586 23.5136L25.9904 23.5081C24.3903 23.5043 23.1001 23.5787 21.2565 23.7712" fill="#C5C5C5"/>
<path d="M50.4564 23.585C51.7259 23.5916 52.1148 23.3121 52.1159 22.5503C52.1185 21.9515 51.4661 21.0519 51.4717 20.0699C51.4781 18.8101 53.2719 18.4776 53.2759 17.5722C53.2789 17.189 52.8536 16.8977 51.3498 16.8719C49.1036 16.8359 48.7781 16.5897 48.7816 16.1778C48.7827 15.6556 49.2744 15.5075 51.1243 15.4732C52.6006 15.4409 52.8588 15.2306 52.8609 14.8905C52.8648 14.2246 51.2638 13.7944 51.2715 12.4771C51.2732 11.4471 51.9364 10.6413 51.9373 9.88917C51.9424 9.16585 51.5556 8.86575 50.3628 8.86067C48.4562 8.85067 47.4737 9.10857 47.4538 13.3864L47.4317 18.953C47.4143 22.8764 48.1188 23.571 50.4565 23.5802L50.4564 23.585ZM39.9828 23.856L39.974 23.8175C41.3259 23.5431 42.2892 23.0549 42.3092 18.7674L42.3279 13.6032C42.3432 9.31572 41.3855 8.82196 40.0355 8.53581L40.0458 8.4977C41.8861 8.70757 43.1779 8.79131 44.7732 8.79498C46.4786 8.8009 48.3374 8.57038 50.2057 8.57482C55.3507 8.59793 57.0843 9.10267 57.0769 10.6452C57.0743 11.0092 57.0935 11.7139 57.0891 12.1689C57.0837 13.1414 57.7771 13.6729 57.772 14.3962C57.7699 15.4454 56.6754 15.7872 51.2716 15.7684C49.5662 15.7625 49.0958 15.8057 49.0935 16.1554C49.0909 16.5194 49.5641 16.5721 51.4995 16.5779C56.3379 16.5996 57.6849 16.7947 57.6798 17.9923C57.6785 18.7636 57.2865 19.4263 57.2866 20.1306C57.283 20.7773 57.8417 21.3396 57.8366 21.8282C57.8286 23.3994 54.9396 23.8773 50.7191 23.8634C48.4914 23.8564 46.6328 23.6079 44.9419 23.5975L44.712 23.5928C43.1119 23.589 41.8217 23.6634 39.9781 23.8559" fill="#C5C5C5"/>
<path d="M58.0918 23.9365L58.083 23.898C59.4348 23.6236 60.3981 23.1353 60.4182 18.8479L60.4369 13.6837C60.4522 9.39617 59.4945 8.90241 58.1444 8.61627L58.1548 8.57815C59.995 8.78802 61.2869 8.87176 62.8821 8.87544L63.1503 8.88089C64.7504 8.88466 66.0407 8.81027 67.8843 8.61778L67.8931 8.65628C66.5413 8.93064 65.578 9.4189 65.5579 13.7063L65.5246 21.7112C65.5187 23.4167 65.8637 23.6488 66.6157 23.6546C67.5307 23.6588 68.0251 23.1418 69.0696 21.4862C70.1289 19.8118 71.3001 17.8138 72.332 15.1327L72.389 15.1531C71.9586 16.7684 71.7982 18.2935 71.7931 19.7258C71.7853 21.757 72.0875 23.3873 72.9718 23.961L72.9519 23.9989C72.2799 23.8224 71.5923 23.7126 70.9311 23.7135C69.6808 23.7073 68.3106 23.9429 66.5765 23.9364C65.5369 23.9345 64.4304 23.6868 62.8975 23.6796L62.8209 23.678C61.2208 23.6743 59.9306 23.7439 58.0869 23.9412" fill="#C5C5C5"/>
<path d="M76.0054 23.7617C75.3395 23.7577 74.6866 23.8259 73.9837 23.9937L73.9653 23.955C74.7659 23.4586 75.1659 22.3984 75.1701 21.0139C75.175 19.5959 74.8818 18.6988 74.6421 17.7645L74.7 17.7465C75.4621 19.3765 77.0095 20.7926 78.1618 21.6161C79.7672 22.7697 82.1148 23.7134 83.365 23.7196C84.3471 23.7252 84.713 23.3973 84.7195 22.8464C84.7218 22.2572 84.3573 22.0438 83.2139 21.4936C82.0705 20.9385 81.5042 20.515 81.5075 19.4132C81.5082 18.6706 81.8792 18.0936 82.2198 17.6023C82.5601 17.1206 82.8805 16.6815 82.8811 16.1785C82.8845 15.7761 82.6434 15.6179 82.2074 15.6186C81.6565 15.617 81.0023 15.9822 80.1638 16.4586C79.1313 17.0509 77.9713 17.7891 76.5916 17.785C75.231 17.7813 74.5702 17.2935 74.5756 16.3211C74.5806 15.3678 75.3536 14.8134 75.3567 13.7212C75.3617 12.7679 74.6686 11.9824 74.6753 10.943C74.6816 9.21837 77.1789 8.68942 80.2351 8.70363C82.846 8.71357 84.4846 8.94329 86.3434 8.94753C87.0475 8.95226 87.7104 8.86512 88.375 8.69658L88.3838 8.73508C87.2177 9.30066 86.7205 10.426 86.7112 12.0643C86.7061 12.7876 86.7453 13.6843 86.9329 14.3588L86.8652 14.3862C86.3227 12.7942 85.0268 11.2587 83.6754 10.3354C82.3189 9.42628 81.245 8.98765 80.4834 8.98175C79.8846 8.97917 79.5394 9.22607 79.5354 9.66196C79.5297 9.93971 79.7849 10.3473 80.262 10.9176C80.7628 11.4979 81.2384 12.1447 81.236 13.2034C81.2265 15.7951 77.375 15.5396 77.3712 16.4354C77.3691 16.7707 77.6394 16.9104 78.0227 16.9086C78.564 16.91 79.2453 16.6268 79.9043 16.2617C81.1689 15.564 82.8019 14.6534 85.5851 14.6668C87.5972 14.6742 88.5896 15.1111 88.5832 16.3662C88.5815 17.3962 88.1502 18.1061 88.1476 18.9445C88.1434 19.8594 88.6982 20.3737 88.6978 21.3367C88.6917 23.0517 85.9991 24.0031 82.502 23.9895C79.8816 23.9794 77.8785 23.7662 76.0102 23.7618" fill="#C5C5C5"/>
<path d="M159.411 16.6101C160.25 16.0141 160.658 15.0142 160.658 13.5594V13.0144C160.658 10.4774 159.411 9.24609 156.847 9.24609H152.969V25.0172H157C159.513 25.0172 160.897 23.6409 160.897 21.1391V19.9C160.897 18.2806 160.411 17.1983 159.411 16.6101ZM155.89 18.1551H156.694C157.564 18.1551 157.976 18.3943 157.976 19.7432V21.0725C157.976 22.1077 157.615 22.3116 156.996 22.3116H155.886V18.1551H155.89ZM157.741 14.1045C157.741 15.2259 157.27 15.4534 156.565 15.4534H155.89V11.9478H156.784C157.376 11.9478 157.741 12.1674 157.741 13.2536V14.1006V14.1045Z" fill="#C5C5C5"/>
<path d="M167.482 9.24609H163.529L161.008 25.0172H163.741L164.157 22.2528H166.647L167.058 25.0172H170.007L167.486 9.24609H167.482ZM166.235 19.6569H164.537L165.388 13.9829L166.239 19.6569H166.235Z" fill="#C5C5C5"/>
<path d="M173.468 9.24609H170.547V25.0172H177.409V22.3116H173.468V9.24609Z" fill="#C5C5C5"/>
<path d="M180.435 9.24609L177.914 25.0172H180.647L181.063 22.2528H183.553L183.964 25.0172H186.913L184.392 9.24609H180.439H180.435ZM183.141 19.6569H181.443L182.29 13.9829L183.141 19.6569Z" fill="#C5C5C5"/>
<path d="M193.888 16.6101C194.727 16.0141 195.139 15.0142 195.139 13.5594V13.0144C195.139 10.4774 193.892 9.24609 191.327 9.24609H187.453V25.0172H191.484C193.998 25.0172 195.382 23.6409 195.382 21.1391V19.9C195.382 18.2806 194.892 17.1983 193.892 16.6101H193.888ZM190.371 18.1551H191.174C192.045 18.1551 192.457 18.3943 192.457 19.7432V21.0725C192.457 22.1077 192.1 22.3116 191.48 22.3116H190.371V18.1551ZM192.217 14.1045C192.217 15.2259 191.747 15.4534 191.041 15.4534H190.371V11.9478H191.261C191.853 11.9478 192.217 12.1674 192.217 13.2536V14.1006V14.1045Z" fill="#C5C5C5"/>
<path fill-rule="evenodd" clip-rule="evenodd" d="M144.998 17.5984C144.638 18.4689 143.771 19.0885 142.771 19.0885C141.442 19.0885 140.367 18.0101 140.367 16.6848C140.367 15.5633 141.152 14.6144 142.199 14.3556C141.928 13.6615 141.348 12.544 141.175 12.1793C141.003 11.8185 140.61 9.53639 140.528 9.08545C140.512 8.97958 139.497 9.67755 139.493 9.71284C139.43 9.77558 138.728 11.6107 138.697 11.7009L138.677 12.0146C138.677 12.0146 139.034 12.0538 139.222 12.6538C139.422 13.2576 140.022 15.4574 140.022 15.4574L139.854 15.6143C140.61 18.1474 140.344 19.2375 140.681 19.9747C141.12 21.0373 141.226 20.8922 141.595 21.7745C141.857 22.4097 142.155 24.9389 142.253 25.0526C142.657 25.5663 142.885 25.9702 142.885 26.2643C142.885 26.5584 142.532 27.4328 142.657 27.9269C142.736 28.2327 142.771 28.9033 142.916 29.0209C142.916 29.0209 143.042 29.2797 142.983 29.3856L142.936 29.5267C143.124 30.1894 143.665 31.2442 143.155 31.9893C143.053 32.1422 142.861 32.3108 142.708 32.3971C142.602 32.4598 142.54 32.4794 142.508 32.4873C142.477 32.4794 142.426 32.4676 142.348 32.4245C142.23 32.3578 142.203 32.3304 142.144 32.2794C141.544 31.754 141.995 30.8403 142.018 29.2209C141.587 28.8327 141.877 28.6758 141.861 28.5151C141.575 27.3387 140.638 26.629 141.12 26.2408C140.999 25.8486 140.76 25.3624 140.771 25.3663C140.383 25.1467 140.011 24.884 139.662 24.6135C138.72 23.888 138.011 23.1234 137.858 22.9744C137.607 22.696 137.176 22.4176 137.085 22.1862C137.081 22.1862 137.077 22.1784 137.07 22.1705C136.681 21.7902 135.003 19.4139 134.619 18.5356L134.34 18.5003L133.913 18.4375C133.603 17.1475 132.541 16.0652 132.513 14.7634C132.505 14.2654 132.741 13.2184 132.823 13.0067C132.909 12.7988 133.317 12.4459 133.317 12.4459V12.0969C131.792 12.1401 132.235 11.9871 131.968 11.395C131.788 10.9872 131.913 10.8971 131.98 10.6108C132.184 9.77951 132.87 8.48158 133.148 7.89732C133.239 7.59931 133.529 6.88173 133.529 6.88173C133.842 6.24257 134.101 5.79555 134.344 5.47401C134.968 4.64272 135.454 4.70546 136.434 4.61527L136.505 4.51724C136.732 4.50547 136.921 4.49371 137.074 4.47803C137.787 4.38784 137.666 4.13296 137.819 3.06247C137.619 3.14089 137.568 2.65074 137.568 2.65074C137.466 1.91355 137.772 2.05079 137.917 2.03903C137.948 0.894036 138.058 0.494073 138.811 0.164691C138.928 0.109794 138.979 0.0745028 139.12 0.0392119C139.226 0.0117634 139.313 0.00392121 139.356 0C139.407 0 139.528 0.0156847 139.669 0.058818C139.85 0.113715 139.932 0.180376 139.999 0.211746C140.258 0.337224 140.426 0.490152 140.532 0.705818C140.861 0.729346 141.254 1.47046 140.642 2.56839C140.912 2.75661 140.701 3.0311 140.509 3.34087C140.45 3.4389 140.387 3.61928 140.207 3.60752C139.963 4.10551 139.685 4.57606 139.473 4.6035C139.415 4.68193 139.371 4.89367 139.462 4.9917C139.775 5.13287 140.156 5.31717 140.344 5.50146L140.36 5.61518C140.599 5.75634 140.728 5.87398 140.971 6.03475C141.618 6.44255 142.414 7.1719 142.316 9.67363C142.501 10.2226 142.583 11.2892 142.748 11.6264C143.081 12.3008 143.316 12.7361 143.414 13.3713C143.414 13.3713 143.512 14.3516 143.638 14.4261C144.304 14.583 144.112 14.6457 144.202 14.7673C144.308 14.8967 144.696 14.8888 144.696 15.2535C144.834 15.43 144.936 15.6104 145.006 15.8025C145.006 15.8025 145.155 16.2025 145.155 16.6573C145.155 17.1122 145.006 17.5945 145.006 17.5945L144.998 17.5984Z" fill="#C5C5C5"/>
<path d="M149.388 9.24609V16.6533L147.392 9.24609H143.922V14.0692C144.216 14.1515 144.451 14.2535 144.549 14.4848C144.694 14.5476 145.032 14.7005 145.106 15.0965C145.235 15.2848 145.334 15.4691 145.404 15.6612C145.404 15.6769 145.577 16.1357 145.577 16.6611C145.577 17.1865 145.416 17.7002 145.408 17.7238L145.396 17.763C145.11 18.4531 144.577 18.9825 143.926 19.2726V25.0172H146.608V15.6886L149.129 25.0172H152.051V9.24609H149.392H149.388Z" fill="#C5C5C5"/>
<path fill-rule="evenodd" clip-rule="evenodd" d="M241.674 26.5721C241.982 26.0059 242.343 25.4396 242.755 24.9249L241.725 25.0793C240.49 27.0869 238.379 29.2488 235.805 29.2488C234.879 29.2488 234.312 28.837 234.312 28.2193C234.312 27.859 234.57 27.5501 234.879 27.5501C235.188 27.5501 235.445 27.7046 235.445 28.0649C235.445 28.4252 235.188 28.5797 234.982 28.5797C234.879 28.5797 234.776 28.5797 234.776 28.6826C234.776 28.94 235.342 29.0429 235.805 29.0429C238.122 29.0429 239.614 26.5721 240.695 25.1308C239.46 25.3882 238.379 25.9544 237.658 26.6236L237.555 26.5721C238.07 25.9544 239.666 25.0793 240.798 24.9764C241.725 23.638 243.681 21.3731 245.277 20.3436V20.2921C244.608 20.7039 244.041 20.9613 243.424 20.9613C242.343 20.9613 241.982 19.8803 240.644 19.8803C239.306 19.8803 237.813 21.1157 237.813 22.4541C237.813 23.2777 238.431 23.638 238.997 23.638C240.129 23.638 241.674 22.3511 241.931 21.3216H242.034C241.776 22.557 240.541 23.7924 239.151 23.7924C238.225 23.7924 237.658 23.3291 237.658 22.3511C237.658 20.9098 239.82 19.417 241.159 19.417C242.343 19.417 243.012 20.6009 244.093 20.6009C244.762 20.6009 245.483 20.0862 246.049 19.6229L246.1 19.7773C244.247 21.1157 243.012 22.9688 241.776 24.8219L242.806 24.6675C243.321 23.8954 244.041 23.1232 244.35 22.8659L244.402 22.9173C243.938 23.3291 243.424 24.0498 243.063 24.6675L244.093 24.5131C244.916 23.4321 248.262 19.5714 249.652 19.5714C249.91 19.5714 250.064 19.7258 250.064 19.9317C250.064 21.579 246.667 24.2557 245.019 24.5131C244.453 25.3367 242.909 27.2413 242.909 28.2708C242.909 28.7856 243.372 29.0429 243.835 29.0429C245.792 29.0429 247.799 26.6236 247.799 25.697C247.799 25.2852 247.593 25.0278 247.233 25.0278C246.358 25.0278 245.38 26.0574 244.865 26.6236H244.711C245.277 25.9544 246.255 24.8734 247.233 24.8734C247.748 24.8734 248.005 25.2337 248.005 25.8C248.005 27.3957 245.483 29.2488 244.041 29.2488C243.012 29.2488 242.652 28.7341 242.652 27.859C242.652 26.8295 243.578 25.5426 244.093 24.7705L243.115 24.9249C242.806 25.3367 242.446 25.9544 242.137 26.5721H241.674ZM249.704 19.7773C248.777 19.7773 245.637 23.8439 245.174 24.4101C246.924 24.0498 249.961 21.2186 249.961 19.9317C249.961 19.8288 249.858 19.7773 249.704 19.7773Z" fill="#C5C5C5"/>
<path fill-rule="evenodd" clip-rule="evenodd" d="M253.56 26.7811C253.354 26.9355 252.942 27.1929 252.53 27.1929C252.222 27.1929 252.016 27.0899 251.861 26.9355C250.574 28.5311 249.494 29.2517 248.464 29.2517C248.104 29.2517 247.641 28.9429 247.641 28.4282C247.641 27.1414 250.111 24.8252 251.552 24.8252C251.81 24.8252 252.016 24.9281 252.067 25.134C252.119 25.0826 252.17 25.0826 252.222 25.0826C252.427 25.0826 252.479 25.237 252.479 25.4428C252.479 25.9061 252.17 26.5752 251.913 26.8326C252.119 26.987 252.324 27.0385 252.53 27.0385C252.736 27.0385 253.148 26.884 253.508 26.6267L253.56 26.7811ZM251.913 25.237C251.913 25.134 251.81 24.9796 251.604 24.9796C251.038 24.9796 249.957 26.2664 248.516 27.9135C248.207 28.2738 248.155 28.4797 248.155 28.737C248.155 28.8914 248.258 29.0973 248.619 29.0973C249.545 29.0973 250.78 28.0679 251.707 26.8326C251.604 26.6267 251.552 26.4208 251.552 26.1634C251.552 25.7517 251.707 25.3914 251.913 25.237Z" fill="#C5C5C5"/>
<path fill-rule="evenodd" clip-rule="evenodd" d="M257.622 22.3057H258.497L256.798 24.1072H257.673L257.57 24.2616H256.695L253.401 27.8131C252.835 28.4307 252.526 28.7396 252.526 28.894C252.526 28.9969 252.681 29.0484 252.835 29.0484C253.195 29.0484 254.019 28.6881 256.181 26.7322L256.284 26.8351C254.431 28.5337 253.35 29.2543 252.784 29.2543C252.475 29.2543 252.32 29.0484 252.32 28.7396C252.32 28.3793 252.526 27.8646 253.298 27.041L255.82 24.313H254.945L255.048 24.1586H255.975L257.622 22.3057Z" fill="#C5C5C5"/>
<path fill-rule="evenodd" clip-rule="evenodd" d="M260.405 26.9859C259.17 28.0668 257.574 29.2506 256.133 29.2506C255.721 29.2506 255.258 29.0962 255.258 28.633C255.258 27.1918 257.883 24.9785 259.324 24.9785C259.633 24.9785 259.89 25.2359 259.89 25.5447C259.89 26.78 257.523 27.4491 256.596 27.4491C255.773 28.3241 255.67 28.633 255.67 28.7874C255.67 29.0447 255.927 29.0962 256.184 29.0962C257.368 29.0962 258.758 28.1183 260.353 26.8315V26.9859H260.405ZM259.324 25.0815C258.809 25.0815 258.089 25.6991 256.699 27.2432C258.14 27.2432 259.581 26.0079 259.581 25.3388C259.581 25.1844 259.478 25.0815 259.324 25.0815Z" fill="#C5C5C5"/>
<path fill-rule="evenodd" clip-rule="evenodd" d="M264.008 27.1395C262.001 28.9411 260.971 29.1985 260.405 29.1985C259.89 29.1985 259.633 28.8896 259.633 28.3749C259.633 26.7791 266.376 19.624 267.714 19.624C267.972 19.624 268.178 19.7785 268.178 20.0873C268.178 21.6316 264.266 24.1539 262.258 25.4922C262.258 25.4922 259.89 28.3749 259.89 28.6837C259.89 28.8896 260.045 28.9926 260.199 28.9926C260.971 28.9926 261.949 28.5808 263.493 27.2424L264.008 27.1395ZM267.817 19.8299C267.303 19.8299 265.398 21.5801 262.567 25.1834H262.618C265.192 23.3817 268.075 21.5286 268.075 20.1903C268.075 19.9329 267.972 19.8299 267.817 19.8299Z" fill="#C5C5C5"/>
<path fill-rule="evenodd" clip-rule="evenodd" d="M276.828 25.0812C275.953 25.9047 274.769 27.243 273.791 28.2724C273.585 28.5297 273.482 28.6842 273.482 28.7871C273.482 28.993 273.637 29.0444 273.791 29.0444C274.614 29.0444 276.622 27.4488 277.24 26.7282L277.394 26.8312C276.725 27.5003 274.717 29.1989 273.739 29.1989C273.379 29.1989 273.173 28.9415 273.173 28.6842C273.173 28.4783 273.225 28.3239 273.328 28.1694H273.276C272.504 28.8386 271.835 29.2503 271.32 29.2503C270.806 29.2503 270.445 28.9415 270.445 28.3753C270.445 26.7282 273.379 24.9268 274.46 24.9268C274.872 24.9268 275.284 25.1326 275.284 25.4415C275.284 25.5444 275.284 25.5959 275.232 25.7503H275.284L275.953 25.0812H276.828ZM274.614 25.0812C274.048 25.0812 273.534 25.3385 271.32 27.7062C270.806 28.2724 270.806 28.5812 270.806 28.7356C270.806 28.9415 270.96 29.0959 271.32 29.0959C272.556 29.0959 275.129 26.265 275.129 25.5959C275.078 25.2356 274.82 25.0812 274.614 25.0812Z" fill="#C5C5C5"/>
<path fill-rule="evenodd" clip-rule="evenodd" d="M278.884 25.0815H279.708L278.524 26.3168L278.575 26.3682C279.193 25.8021 280.222 24.9785 280.84 24.9785C281.303 24.9785 281.664 25.2873 281.664 25.8021C281.664 26.8829 279.399 28.4786 279.399 28.9418C279.399 29.0447 279.45 29.0962 279.605 29.0962C280.017 29.0962 280.892 28.4785 282.745 26.78V26.9344C281.303 28.2727 280.12 29.2506 279.605 29.2506C279.296 29.2506 279.09 29.0962 279.09 28.6844C279.09 27.655 281.355 26.0594 281.355 25.5447C281.355 25.3388 281.2 25.1844 280.943 25.1844C280.12 25.1844 278.009 26.9859 276.208 29.0962H275.281L278.884 25.0815Z" fill="#C5C5C5"/>
<path fill-rule="evenodd" clip-rule="evenodd" d="M291.03 21.1201H292.008L285.265 28.1208C284.853 28.5326 284.75 28.7385 284.75 28.8929C284.75 29.0474 284.853 29.0989 285.11 29.0989C285.882 29.0989 286.809 28.4811 288.611 26.7824L288.662 26.8854C286.757 28.6356 285.934 29.2533 285.007 29.2533C284.801 29.2533 284.441 29.1503 284.441 28.79C284.441 28.5841 284.441 28.4297 284.544 28.2752C283.978 28.8415 283.257 29.3048 282.691 29.3048C282.073 29.3048 281.867 28.8929 281.867 28.4297C281.867 26.9883 284.338 25.0323 285.779 25.0323C286.243 25.0323 286.654 25.1867 286.654 25.547C286.654 25.7015 286.603 25.8044 286.551 25.9588L291.03 21.1201ZM285.934 25.1352C285.316 25.1352 283.309 26.7824 282.588 27.812C282.228 28.3267 282.176 28.4811 282.176 28.687C282.176 28.9444 282.382 29.0989 282.691 29.0989C283.772 29.0989 286.449 26.2162 286.449 25.5985C286.397 25.2896 286.191 25.1352 285.934 25.1352Z" fill="#C5C5C5"/>
<path fill-rule="evenodd" clip-rule="evenodd" d="M298.86 20.8586C298.86 22.6602 297.11 24.8222 295.308 24.8222C294.536 24.8222 294.124 24.3075 294.124 23.5868C294.124 21.5793 297.522 19.4688 300.662 19.4688C301.537 19.4688 302.309 19.6232 302.721 19.8291C303.03 19.6747 303.339 19.5717 303.647 19.5202L303.699 19.6232C303.441 19.7261 303.184 19.8291 302.927 19.8806C303.596 20.2409 304.162 20.8586 304.162 21.6307C304.162 23.0206 302.515 23.8957 301.331 24.1016C301.434 24.3075 301.485 24.4619 301.485 24.6678C301.485 25.5943 299.478 27.0357 299.478 28.2196C299.478 28.7858 299.993 29.0432 300.507 29.0432C301.691 29.0432 303.802 27.0871 303.802 25.9032C303.802 25.5429 303.493 25.2855 303.133 25.2855C302.618 25.2855 301.949 25.9032 301.64 26.315L301.485 26.2635C301.846 25.8517 302.515 25.1311 303.133 25.1311C303.544 25.1311 304.008 25.3884 304.008 26.0062C304.008 27.396 302.155 29.2491 300.559 29.2491C299.684 29.2491 299.066 28.6829 299.066 27.7563C299.066 26.3665 301.125 25.1311 301.125 24.153C300.971 24.2045 300.713 24.256 300.353 24.256C299.89 24.256 299.478 23.9471 299.478 23.5868H299.426C297.831 25.8517 295.823 29.3006 292.58 29.3006C291.602 29.3006 290.984 28.8888 290.984 28.2196C290.984 27.8078 291.345 27.5504 291.602 27.5504C291.962 27.5504 292.22 27.8078 292.22 28.1681C292.22 28.6314 291.551 28.5799 291.551 28.6829C291.551 28.8888 292.014 29.0947 292.632 29.0947C296.08 29.0947 298.706 21.3219 302.515 19.9835C302 19.7261 301.125 19.6747 300.765 19.6747C297.161 19.6747 294.279 22.0425 294.279 23.5353C294.279 24.153 294.588 24.7193 295.308 24.7193C296.544 24.7193 298.706 22.6088 298.706 20.9101H298.86V20.8586ZM302.721 19.9835C301.846 20.4983 300.971 21.2704 299.529 23.2779L299.581 23.3294C299.684 23.2265 299.89 23.2265 300.096 23.2265C300.404 23.2265 301.022 23.3809 301.28 23.8957C302.36 23.6383 303.544 22.4543 303.544 21.3733C303.544 20.7042 303.184 20.2924 302.721 19.9835ZM301.074 23.9986C300.971 23.5868 300.507 23.4324 300.044 23.4324C299.787 23.4324 299.632 23.4838 299.632 23.6383C299.632 23.7927 299.89 24.0501 300.404 24.0501C300.662 24.0501 300.919 24.0501 301.074 23.9986Z" fill="#C5C5C5"/>
<path fill-rule="evenodd" clip-rule="evenodd" d="M309.153 26.9859C307.918 28.0668 306.116 29.2506 304.727 29.2506C304.315 29.2506 303.852 29.0962 303.852 28.633C303.852 27.1918 306.477 24.9785 307.918 24.9785C308.227 24.9785 308.484 25.2359 308.484 25.5447C308.484 26.78 306.116 27.4491 305.19 27.4491C304.366 28.3241 304.263 28.633 304.263 28.7874C304.263 29.0447 304.521 29.0962 304.778 29.0962C305.962 29.0962 307.557 28.1183 309.102 26.8315V26.9859H309.153ZM307.918 25.0815C307.403 25.0815 306.682 25.6991 305.293 27.2432C306.734 27.2432 308.175 26.0079 308.175 25.3388C308.175 25.1844 308.072 25.0815 307.918 25.0815Z" fill="#C5C5C5"/>
<path fill-rule="evenodd" clip-rule="evenodd" d="M318.314 26.7811C318.057 26.9355 317.697 27.1929 317.234 27.1929C316.925 27.1929 316.77 27.0899 316.564 26.9355C315.278 28.5311 314.197 29.2517 313.219 29.2517C312.807 29.2517 312.344 28.9429 312.344 28.4282C312.344 27.1414 314.866 24.8252 316.256 24.8252C316.513 24.8252 316.719 24.9281 316.822 25.134C316.873 25.0826 316.925 25.0826 316.976 25.0826C317.131 25.0826 317.234 25.237 317.234 25.4428C317.234 25.9061 316.873 26.5752 316.667 26.8326C316.822 26.987 317.028 27.0385 317.234 27.0385C317.491 27.0385 317.903 26.884 318.211 26.6267L318.314 26.7811ZM316.667 25.237C316.616 25.134 316.513 24.9796 316.358 24.9796C315.792 24.9796 314.711 26.2664 313.27 27.9135C312.961 28.2738 312.858 28.4797 312.858 28.737C312.858 28.8914 313.013 29.0973 313.373 29.0973C314.3 29.0973 315.535 28.0679 316.461 26.8326C316.358 26.6267 316.307 26.4208 316.307 26.1634C316.307 25.7517 316.461 25.3914 316.667 25.237Z" fill="#C5C5C5"/>
<path fill-rule="evenodd" clip-rule="evenodd" d="M319.656 25.0812H320.583L318.884 26.9341C319.296 26.6253 319.862 26.4194 320.531 26.1621C320.634 25.5959 321.355 24.9268 321.664 24.9268C321.87 24.9268 321.972 24.9782 321.972 25.1841C321.972 25.6474 321.097 26.1621 320.686 26.265C320.686 26.6253 320.84 26.9341 321.149 26.9341C321.406 26.9341 323.465 25.9562 323.568 25.8532L323.62 25.9562C323.517 26.0591 321.355 27.0885 321.149 27.0885C320.789 27.0885 320.531 26.7797 320.531 26.265C319.399 26.5224 318.627 27.14 317.855 27.9636L317.031 28.9415H316.156L319.656 25.0812Z" fill="#C5C5C5"/>
<path fill-rule="evenodd" clip-rule="evenodd" d="M326.239 22.3057H327.166L325.467 24.1072H326.291L326.188 24.2616H325.313L322.018 27.8131C321.504 28.4307 321.195 28.7396 321.195 28.894C321.195 28.9969 321.349 29.0484 321.452 29.0484C321.864 29.0484 323.254 28.791 325.467 26.8866L325.415 26.9895C323.717 28.6881 322.07 29.2543 321.401 29.2543C321.092 29.2543 320.938 29.0484 320.938 28.7396C320.938 28.3793 321.195 27.8646 321.967 27.041L324.489 24.313H323.563L323.717 24.1586H324.592L326.239 22.3057Z" fill="#C5C5C5"/>
<path fill-rule="evenodd" clip-rule="evenodd" d="M235.85 3.61786H234.203V3.20605H243.366L243.469 6.55197H243.057C242.8 5.47098 242.594 4.28704 241.461 3.82376C241.101 3.66934 240.432 3.61786 239.762 3.61786H238.012V8.35362C239.557 8.35362 240.432 8.09624 240.535 6.34607H240.946V10.9789H240.535C240.38 9.12576 239.762 8.71395 238.012 8.8169V13.81H239.608V14.2218H234.203V13.81H235.85V3.61786Z" fill="#C5C5C5"/>
<path fill-rule="evenodd" clip-rule="evenodd" d="M243.727 9.94611C243.727 7.93873 245.477 5.87988 247.587 5.87988C249.594 5.87988 251.447 7.88726 251.447 9.94611C251.447 12.2108 250.058 14.4756 247.587 14.4756C245.116 14.4756 243.727 12.1594 243.727 9.94611ZM249.594 8.65933C249.594 8.19609 249.543 7.78432 249.388 7.42402C249.183 6.65195 248.616 6.13724 247.587 6.13724C246.455 6.13724 245.94 6.65195 245.734 7.42402C245.58 7.78432 245.528 8.14461 245.528 8.65933V11.3358C245.528 11.7991 245.528 12.3138 245.631 12.7256C245.888 13.6006 246.403 14.1667 247.535 14.1667C248.719 14.1667 249.183 13.6006 249.388 12.7256C249.491 12.3138 249.543 11.7991 249.543 11.3358V8.65933H249.594Z" fill="#C5C5C5"/>
<path fill-rule="evenodd" clip-rule="evenodd" d="M260.869 6.03418V6.34301H259.634V11.4901C259.634 12.7254 259.376 13.2916 258.862 13.8063C258.347 14.2181 257.575 14.424 256.443 14.424C255.568 14.424 254.796 14.1666 254.281 13.7549C253.766 13.3946 253.509 12.571 253.509 11.1813V6.34301H252.273V6.03418H256.288V6.34301H255.053V10.821C255.053 12.5195 254.898 14.0122 257.112 14.0122C258.553 14.0122 259.119 13.0857 259.119 11.7475V6.34301H257.935V6.03418H260.869Z" fill="#C5C5C5"/>
<path fill-rule="evenodd" clip-rule="evenodd" d="M264.576 13.9093H265.812V14.2181H261.797V13.9093H263.032V6.34301H261.797V6.03418H265.915C267.253 6.03418 268.848 6.18859 268.848 7.88714C268.848 9.27686 267.407 9.7401 266.223 9.89452C268.128 10.2033 268.591 11.2328 268.591 13.2401C268.591 13.6519 268.643 14.1666 269.826 13.9093V14.1666C269.518 14.2696 269.157 14.321 268.797 14.321C267.51 14.321 266.893 13.7034 266.893 12.4681C266.893 11.4387 266.738 10.6666 266.429 10.4092C266.069 10.1519 265.657 9.99746 265.297 9.99746H264.628V13.9093H264.576ZM264.576 9.68863H265.606C266.738 9.68863 267.15 9.17392 267.15 8.04156C267.15 6.7033 266.79 6.34301 265.657 6.34301H264.576V9.68863Z" fill="#C5C5C5"/>
<path fill-rule="evenodd" clip-rule="evenodd" d="M274.976 14.3761H274.719V11.0817H275.182C275.491 12.6774 276.469 14.1187 278.219 14.1187C279.506 14.1187 280.69 13.1407 280.69 11.8023C280.69 10.2581 279.3 9.94921 278.065 9.48593C277.756 9.38298 277.447 9.28003 277.035 9.17708C275.542 8.7138 274.719 7.58133 274.719 5.98559C274.719 4.28689 276.006 3 277.756 3C278.734 3 279.403 3.2059 280.175 3.82361L280.793 3.2059H281.05V6.29444H280.535C280.381 4.75017 279.352 3.41181 277.704 3.41181C276.623 3.41181 275.645 4.23542 275.645 5.3164C275.645 6.6033 276.572 6.70625 277.55 6.96362C277.962 7.06658 278.322 7.221 278.579 7.27248C278.888 7.37543 279.352 7.47838 279.712 7.63281C281.102 8.30199 281.565 9.38298 281.565 10.8758C281.565 12.9348 280.227 14.4791 278.116 14.4791C277.293 14.4791 276.314 14.1702 275.748 13.604L274.976 14.3761Z" fill="#C5C5C5"/>
<path fill-rule="evenodd" clip-rule="evenodd" d="M285.94 6.34301V9.84304C287.124 9.84304 287.742 9.68863 287.793 8.35038H288.102V11.7475H287.793C287.69 10.4092 287.279 10.1004 285.94 10.1519V13.9093H287.639C289.234 13.9093 289.595 12.9828 289.904 11.5931H290.212L290.109 14.2181H283.109V13.9093H284.345V6.34301H283.109V6.03418H289.955L290.007 8.29891H289.698C289.44 7.11507 288.926 6.65183 288.308 6.49742C287.999 6.39448 287.69 6.39448 287.227 6.39448H285.94V6.34301Z" fill="#C5C5C5"/>
<path fill-rule="evenodd" clip-rule="evenodd" d="M291.141 14.269V13.9602H292.17L295.104 5.93066H295.516L298.295 13.9602H299.325V14.269H295.413V13.9602H296.7L295.927 11.8499H293.251L292.479 13.9602H293.714V14.269H291.141ZM293.354 11.4896H295.773L294.641 8.04098L293.354 11.4896Z" fill="#C5C5C5"/>
<path fill-rule="evenodd" clip-rule="evenodd" d="M300.55 14.3726H300.344V11.902H300.653C300.91 13.0858 301.631 14.1667 302.969 14.1667C303.947 14.1667 304.77 13.3947 304.77 12.4682C304.77 11.2844 303.741 11.0785 302.866 10.7696C302.608 10.6667 302.351 10.6152 302.094 10.5123C300.91 10.2035 300.395 9.32845 300.395 8.14461C300.395 6.85783 301.373 5.87988 302.66 5.87988C303.329 5.87988 303.895 6.0343 304.41 6.44607L304.873 5.98283H305.079V8.3505H304.719C304.564 7.16666 303.792 6.18871 302.608 6.18871C301.785 6.18871 301.064 6.75489 301.064 7.6299C301.064 8.55638 301.733 8.65932 302.506 8.86521C302.814 8.96815 303.02 9.01962 303.278 9.12257C303.535 9.17404 303.844 9.27698 304.153 9.37992C305.182 9.84316 305.542 10.6667 305.542 11.7991C305.542 13.3432 304.513 14.527 302.917 14.527C302.351 14.527 301.579 14.2697 301.167 13.9094L300.55 14.3726Z" fill="#C5C5C5"/>
<path fill-rule="evenodd" clip-rule="evenodd" d="M307.094 9.94611C307.094 7.93873 308.844 5.87988 310.954 5.87988C312.961 5.87988 314.763 7.88726 314.763 9.94611C314.763 12.2108 313.373 14.4756 310.954 14.4756C308.483 14.4756 307.094 12.1594 307.094 9.94611ZM312.91 8.65933C312.91 8.19609 312.859 7.78432 312.756 7.42402C312.498 6.65195 311.984 6.13724 310.954 6.13724C309.822 6.13724 309.307 6.65195 309.101 7.42402C308.998 7.78432 308.947 8.19609 308.947 8.65933V11.3358C308.947 11.7991 308.947 12.3138 309.05 12.7256C309.256 13.6006 309.822 14.1667 310.954 14.1667C312.138 14.1667 312.601 13.6006 312.807 12.7256C312.91 12.3138 312.91 11.7991 312.91 11.3358V8.65933Z" fill="#C5C5C5"/>
<path fill-rule="evenodd" clip-rule="evenodd" d="M322.897 14.424H322.536L317.338 6.60036V13.9093H318.522V14.2696H315.742V13.9093H316.926V6.34301H315.742V6.03418H318.882L322.536 11.4386V6.34301H321.353V6.03418H324.132V6.34301H322.897V14.424Z" fill="#C5C5C5"/>
<path fill-rule="evenodd" clip-rule="evenodd" d="M325.628 14.3726H325.422V11.902H325.782C326.04 13.0858 326.76 14.1667 328.047 14.1667C329.025 14.1667 329.9 13.3947 329.9 12.4682C329.9 11.2844 328.819 11.0785 327.944 10.7696C327.738 10.6667 327.481 10.6152 327.172 10.5123C326.04 10.2035 325.473 9.32845 325.473 8.14461C325.473 6.85783 326.451 5.87988 327.738 5.87988C328.51 5.87988 328.973 6.0343 329.54 6.44607L330.003 5.98283H330.209V8.3505H329.797C329.694 7.16666 328.922 6.18871 327.738 6.18871C326.915 6.18871 326.194 6.75489 326.194 7.6299C326.194 8.55638 326.812 8.65932 327.584 8.86521C327.892 8.96815 328.15 9.01962 328.407 9.12257C328.613 9.17404 328.922 9.27698 329.231 9.37992C330.26 9.84316 330.62 10.6667 330.62 11.7991C330.62 13.3432 329.591 14.527 328.047 14.527C327.481 14.527 326.709 14.2697 326.297 13.9094L325.628 14.3726Z" fill="#C5C5C5"/>
<path fill-rule="evenodd" clip-rule="evenodd" d="M329.38 27.0872C329.226 27.2416 328.093 28.0651 327.012 28.4769C327.115 28.3225 327.218 28.2195 327.321 28.1166C327.63 27.7563 327.784 27.3445 327.784 26.8298C327.733 26.2636 327.27 25.8519 326.909 25.3886C327.115 25.1827 327.527 24.771 327.527 24.3592C327.527 24.2563 327.424 24.1533 327.321 24.1533C326.858 24.1533 326.652 24.668 326.652 25.0798C326.652 25.1827 326.755 25.3886 326.755 25.3886C326.137 26.3666 324.85 27.1901 324.49 27.4989C324.387 27.6019 324.027 28.0137 324.027 28.4769C323.975 28.9401 324.078 29.4034 324.799 29.4034C325.262 29.4034 326.034 29.1975 326.652 28.7857C328.042 28.374 329.431 27.2416 329.431 27.2416L329.38 27.0872ZM324.696 29.249C324.284 29.249 324.233 28.8887 324.233 28.5798C324.284 28.2195 324.439 27.9622 324.645 27.7563C324.902 27.4475 326.189 26.5725 326.909 25.4916C326.909 25.4916 327.27 26.1092 327.27 26.4695C327.373 27.7563 325.52 29.146 324.696 29.249Z" fill="#C5C5C5"/>
<path fill-rule="evenodd" clip-rule="evenodd" d="M313.216 27.0351C313.061 27.1381 311.929 27.9616 310.848 28.3734C310.951 28.2704 311.054 28.116 311.157 28.0131C311.466 27.6528 311.62 27.241 311.62 26.7263C311.569 26.1601 311.106 25.7484 310.745 25.3366C310.951 25.0792 311.363 24.6675 311.363 24.3072C311.363 24.2042 311.26 24.0498 311.157 24.0498C310.694 24.0498 310.488 24.5645 310.488 24.9763C310.488 25.1307 310.591 25.2851 310.591 25.2851C309.973 26.2631 308.686 27.1381 308.326 27.3954C308.223 27.5498 307.863 27.9616 307.863 28.3734C307.811 28.8366 307.914 29.2999 308.635 29.2999C309.098 29.2999 309.87 29.094 310.488 28.6822C311.878 28.2704 313.267 27.1381 313.267 27.1381L313.216 27.0351ZM308.48 29.1454C308.069 29.1969 308.017 28.8366 308.017 28.4763C308.069 28.1675 308.223 27.9101 308.429 27.6528C308.686 27.344 309.973 26.4689 310.694 25.3881C310.694 25.3881 311.054 26.0057 311.054 26.366C311.157 27.6528 309.304 29.094 308.48 29.1454Z" fill="#C5C5C5"/>
<path fill-rule="evenodd" clip-rule="evenodd" d="M268.278 27.0442C268.072 27.1986 266.992 28.0222 265.859 28.3825C265.962 28.2795 266.117 28.1766 266.168 28.0222C266.477 27.6619 266.683 27.353 266.631 26.7354C266.58 26.1692 266.117 25.7574 265.756 25.3457C265.962 25.1398 266.374 24.728 266.374 24.3162C266.374 24.2133 266.271 24.1104 266.168 24.1104C265.756 24.1104 265.55 24.6251 265.55 25.0368C265.55 25.1398 265.602 25.3457 265.602 25.3457C264.984 26.3236 263.749 27.1471 263.44 27.456C263.286 27.5589 262.977 27.9707 262.925 28.4339C262.874 28.8972 262.977 29.3089 263.697 29.3089C264.161 29.3089 264.933 29.1545 265.55 28.6913C266.94 28.331 268.33 27.1986 268.33 27.1986L268.278 27.0442ZM263.543 29.1545C263.131 29.206 263.08 28.8457 263.131 28.4854C263.131 28.1766 263.337 27.9192 263.492 27.6619C263.749 27.353 265.036 26.478 265.808 25.5001C265.808 25.5001 266.117 26.0663 266.117 26.478C266.219 27.7133 264.418 29.1031 263.543 29.1545Z" fill="#C5C5C5"/>
<path fill-rule="evenodd" clip-rule="evenodd" d="M428.044 17.5886C427.285 21.4209 424.408 22.7295 421.824 22.7295H407.735V11.0132C407.735 10.2043 407.967 10.0785 408.717 9.63273L403.423 9.5824C403.705 9.71182 404.498 10.0821 404.498 10.9485L404.479 22.2622C404.479 23.2148 404.049 23.5564 403.419 23.7649L421.952 23.7577C426.759 23.7757 428.713 22.0608 430.109 20.5222C431.633 18.8576 432.441 15.7839 430.712 13.1379C429.471 11.2289 427.131 9.62194 424.458 9.23368C423.839 9.1438 423.054 9 422.08 9C421.113 9 420.235 9.10426 419.554 9.23368C417.35 9.71901 414.542 11.0456 413.258 13.2278C411.931 15.4927 412.597 17.9517 413.579 19.325C414.465 20.5941 416.584 22.2622 419.427 22.3484L419.512 22.3161C417.644 21.4173 416.696 19.7852 416.12 17.585C415.691 15.9025 416 13.3968 417.574 11.8185C418.746 10.6609 420.486 10.0318 422.08 10.0138C423.689 10.0318 425.352 10.589 426.516 11.743C428.105 13.3249 428.372 15.9924 428.044 17.5886ZM371.531 22.6396L366.812 17.0673C372.049 16.2908 371.531 9.47455 365.316 9.47455H354.703C355.426 9.70823 355.91 10.0498 355.91 10.7041V22.2729C355.918 22.8158 355.515 23.4377 354.97 23.7541H360.017C359.476 23.4953 358.942 22.7583 358.942 22.3161V17.3046H363.266L368.468 23.7721L372.919 23.7649C372.444 23.5528 371.972 23.1645 371.531 22.6396ZM363.254 16.2692H358.938L358.919 10.5279L364.055 10.5099C367.768 10.5279 368.653 16.2045 363.254 16.2692ZM390.872 11.0564C390.493 10.2798 390.942 9.83405 391.596 9.57521H385.651C386.27 10.0282 386.978 10.3589 387.252 11.2325L393.963 23.7577H395.529L401.81 10.8155C402.17 10.0462 402.525 9.86281 402.885 9.5788H399.389C400.027 9.74777 400.541 10.2655 400.139 11.0995L395.533 20.6012L390.872 11.0564ZM434.15 22.1327C434.15 22.9884 433.358 23.5708 433.048 23.7577H436.432C436.123 23.5708 435.38 23.1178 435.38 22.2622V12.232L445.946 23.7541H447.497V10.9305C447.497 10.0749 448.248 9.76575 448.549 9.5788H445.181C445.482 9.76575 446.275 10.2007 446.275 11.0492L446.256 19.3466L437.136 9.5824H432.271C432.789 9.82686 434.15 10.3517 434.15 11.5237V22.1327ZM385.303 9.57521H373.004C373.588 9.86641 374.122 10.0857 374.122 10.9665L374.118 22.3197C374.118 23.1034 373.774 23.4593 373.19 23.7577H385.91L387.109 20.328C386.491 21.0075 385.017 22.7115 382.329 22.7043L377.475 22.6972V17.0062H381.006C382.124 17.0062 382.712 17.5814 383.083 18.1314V14.7521C382.557 15.4495 382.093 15.9313 380.999 15.9313H377.475V10.5674L382.445 10.5818C384.537 10.5998 385.435 11.8365 385.899 12.5627L385.303 9.57521Z" fill="#C5C5C5"/>
<path d="M538.239 14.0509C538.163 14.0004 538.128 13.9701 538.087 13.9499C537.358 13.5912 537.094 12.7323 537.495 12.0351C537.586 11.8734 537.712 11.838 537.874 11.838C538.214 11.838 538.558 11.8532 538.898 11.8178C539.495 11.7572 540.093 11.6612 540.691 11.5804C540.797 11.5652 540.903 11.5298 541.01 11.5197C541.506 11.4743 541.774 11.6966 541.815 12.1866C541.825 12.323 541.83 12.4645 541.84 12.6969C541.997 12.5655 542.109 12.4746 542.215 12.3837C543.446 11.3176 544.955 11.2621 546.186 11.9441C547.062 12.4291 547.564 13.2274 547.842 14.1469C548.298 15.6676 548.258 17.1934 547.665 18.6737C547.229 19.77 546.48 20.5885 545.33 20.9725C544.175 21.3565 543.102 21.1897 542.129 20.4369C542.058 20.3814 541.977 20.3359 541.856 20.25C541.84 20.3864 541.82 20.4824 541.815 20.5784C541.815 21.0129 541.815 21.4423 541.815 21.8768C541.83 22.5336 542.058 23.1146 542.489 23.6098C542.944 24.1402 542.879 24.6707 542.539 25.2467C542.418 25.2467 542.296 25.2568 542.175 25.2467C540.964 25.1507 539.759 25.2315 538.548 25.2618C538.406 25.2618 538.27 25.2719 538.128 25.2669C537.358 25.2366 536.978 24.5141 537.383 23.8523C537.464 23.7209 537.565 23.5997 537.657 23.4784C537.971 23.0641 538.183 22.6094 538.194 22.0789C538.194 21.8465 538.224 21.6192 538.224 21.3868C538.224 19.088 538.224 16.7892 538.224 14.4905V14.056L538.239 14.0509ZM541.825 18.6333C542.21 18.8606 542.58 18.9819 543.005 18.9011C543.74 18.7647 544.064 18.2443 544.231 17.6026C544.408 16.9054 544.403 16.1931 544.256 15.4958C544.196 15.2129 544.104 14.9249 543.957 14.6824C543.542 14.0054 542.798 13.8337 542.099 14.1974C541.916 14.2934 541.825 14.4046 541.825 14.6269C541.835 15.9556 541.825 17.2793 541.825 18.6434V18.6333Z" fill="#C5C5C5"/>
<path d="M483.712 20.8051C483.433 20.7798 483.16 20.7293 482.881 20.7293C482.182 20.7293 481.483 20.7445 480.789 20.7647C480.511 20.7697 480.232 20.7798 479.953 20.8051C478.971 20.896 478.657 20.0978 478.991 19.4056C479.457 18.4457 479.528 17.4605 479.498 16.4349C479.487 16.0206 479.503 15.6013 479.482 15.187C479.452 14.6262 479.189 14.3534 478.621 14.2927C478.409 14.2725 478.186 14.2826 477.978 14.3281C477.421 14.4494 477.34 14.5656 477.34 15.1466C477.34 15.8084 477.345 16.4753 477.34 17.1372C477.33 17.8596 477.456 18.5467 477.801 19.1884C478.09 19.7239 478.009 20.2493 477.786 20.795C477.345 20.7647 476.93 20.7141 476.514 20.7192C475.724 20.7293 474.934 20.7748 474.144 20.8051C474.022 20.8051 473.896 20.8051 473.769 20.8051C473.111 20.8404 472.64 20.2342 472.944 19.4763C472.994 19.35 473.075 19.2338 473.156 19.1227C473.516 18.6225 473.734 18.0718 473.734 17.4453C473.734 16.2581 473.734 15.0708 473.734 13.8582C473.708 13.838 473.673 13.7976 473.632 13.7875C472.802 13.54 472.736 12.6154 472.944 12.0192C473.06 11.6908 473.09 11.6807 473.445 11.6605C474.124 11.6252 474.807 11.5948 475.486 11.5393C475.744 11.5191 476.003 11.4433 476.256 11.3826C477.001 11.2159 477.315 11.4534 477.33 12.2062C477.33 12.4285 477.33 12.6558 477.33 12.9943C477.472 12.8276 477.543 12.7518 477.598 12.671C478.51 11.3978 479.953 11.0492 481.397 11.509C482.364 11.8171 483.048 12.676 483.089 14.025C483.119 15.0758 483.109 16.1217 483.089 17.1725C483.079 17.895 483.251 18.5518 483.691 19.1227C484.127 19.6885 484.046 20.2291 483.696 20.8101L483.712 20.8051Z" fill="#C5C5C5"/>
<path d="M490.125 15.4027C490.125 15.0238 490.14 14.6853 490.125 14.3468C490.09 13.8214 489.821 13.5789 489.284 13.5637C489.178 13.5637 489.066 13.5637 488.96 13.5738C488.494 13.6193 488.423 13.69 488.352 14.1498C488.317 14.3771 488.271 14.6045 488.226 14.8672C487.577 15.0743 486.909 15.1754 486.245 14.943C485.496 14.6802 485.177 13.9022 485.48 13.1696C485.663 12.725 485.987 12.3966 486.377 12.1339C487.03 11.6893 487.77 11.4519 488.545 11.3761C489.487 11.2851 490.434 11.2649 491.361 11.5428C491.883 11.6994 492.374 11.9217 492.794 12.2804C493.508 12.8917 493.731 13.7102 493.741 14.6045C493.752 15.4229 493.741 16.2414 493.741 17.0599C493.741 17.2316 493.741 17.3984 493.752 17.5701C493.792 18.2623 493.99 18.52 494.648 18.7473C494.689 18.7625 494.729 18.7827 494.764 18.8029C494.896 19.6921 494.228 20.6722 493.24 20.8996C492.07 21.1673 491.057 20.9299 490.328 19.8992C490.312 19.879 490.282 19.8689 490.186 19.8083C490.135 19.8841 490.084 19.98 490.014 20.0609C488.975 21.2178 486.975 21.2532 485.825 20.4802C484.7 19.7224 484.478 18.2522 485.334 17.2013C485.653 16.8123 486.043 16.5092 486.493 16.297C487.37 15.8827 488.291 15.6452 489.254 15.5341C489.527 15.5038 489.806 15.4633 490.125 15.4229V15.4027ZM490.125 16.9032C489.487 16.883 489.077 17.0245 488.803 17.3327C488.59 17.5701 488.53 17.9693 488.676 18.237C488.828 18.5199 489.102 18.5856 489.391 18.5604C489.573 18.5402 489.745 18.4694 489.917 18.4088C490.064 18.3583 490.13 18.2522 490.125 18.0905C490.115 17.7065 490.125 17.3226 490.125 16.9083V16.9032Z" fill="#C5C5C5"/>
<path d="M531.058 16.8495L525.391 16.6979C525.436 17.188 525.669 17.5417 525.933 17.8701C526.925 19.0927 528.759 18.9765 529.726 17.9812C529.848 17.8549 529.949 17.7438 530.152 17.7539C530.648 17.769 530.932 17.9155 530.81 18.4814C530.754 18.7542 530.76 19.0371 530.679 19.2998C530.618 19.4918 530.501 19.6939 530.354 19.8354C529.752 20.4113 528.997 20.6892 528.202 20.8509C526.915 21.1136 525.639 21.0429 524.403 20.5781C522.564 19.8859 521.516 18.345 521.47 16.3796C521.435 14.8539 521.972 13.5706 523.117 12.5601C524.033 11.7568 525.122 11.3628 526.343 11.3274C527.3 11.3021 528.227 11.4234 529.103 11.8377C531.17 12.8178 531.783 15.0913 531.058 16.8495ZM527.726 15.2429C527.751 14.8438 527.705 14.5154 527.553 14.2021C527.224 13.515 526.272 13.318 525.725 13.9141C525.33 14.3436 525.244 14.8438 525.254 15.4349L527.726 15.2429Z" fill="#C5C5C5"/>
<path d="M559.093 17.0304L553.4 16.8737C553.456 17.3689 553.684 17.7225 553.952 18.0509C554.945 19.2685 556.784 19.1523 557.741 18.1418C557.898 17.9802 558.045 17.9044 558.263 17.9246C558.663 17.96 558.921 18.0812 558.825 18.6117C558.774 18.8997 558.764 19.1978 558.688 19.4756C558.637 19.6575 558.526 19.8445 558.389 19.9758C557.782 20.5669 557.007 20.8549 556.196 21.0216C554.925 21.2793 553.659 21.2136 552.443 20.764C550.488 20.0465 549.51 18.3793 549.47 16.4898C549.424 14.388 550.761 12.2762 553.127 11.675C554.515 11.3213 555.897 11.4022 557.199 12.0589C558.921 12.9279 559.726 14.7568 559.215 16.6161C559.185 16.7323 559.144 16.8485 559.088 17.0202L559.093 17.0304ZM555.735 15.4237C555.766 15.0145 555.715 14.676 555.548 14.3527C555.209 13.6908 554.277 13.519 553.745 14.0899C553.345 14.5194 553.269 15.0246 553.258 15.6208L555.735 15.4237Z" fill="#C5C5C5"/>
<path d="M517.17 20.8067C516.896 20.8371 516.638 20.8825 516.374 20.8926C515.534 20.9229 514.703 20.8472 513.872 20.7107C513.589 20.6653 513.427 20.539 513.31 20.256C512.464 18.1745 511.598 16.098 510.747 14.0165C510.656 13.7942 510.555 13.6376 510.312 13.5264C509.516 13.1627 509.592 12.0967 509.886 11.6319C509.937 11.551 510.089 11.4904 510.195 11.4904C511.482 11.4803 512.773 11.4651 514.06 11.4954C514.911 11.5157 515.245 12.1674 514.799 12.9101C514.602 13.2385 514.581 13.5265 514.713 13.87C514.926 14.4156 515.113 14.9663 515.316 15.517C515.503 16.0223 515.665 16.5376 515.66 17.0883C515.66 17.2297 515.64 17.3965 515.868 17.4874C515.888 17.3611 515.924 17.2651 515.919 17.1691C515.914 16.6487 516.04 16.1637 516.233 15.6888C516.506 15.0219 516.775 14.35 517.058 13.6477C516.587 13.2284 516.466 12.6928 516.567 12.0967C516.592 11.9603 516.633 11.8289 516.683 11.6975C516.734 11.5561 516.835 11.4803 517.002 11.4803C518.086 11.4853 519.175 11.4803 520.259 11.5005C520.649 11.5056 520.933 11.6824 521.065 12.0765C521.191 12.4756 521.125 12.8444 520.791 13.0768C520.148 13.5315 519.834 14.1782 519.555 14.8754C518.775 16.8357 517.97 18.7858 517.149 20.8017L517.17 20.8067Z" fill="#C5C5C5"/>
<path d="M499.898 11.4887H502.04C502.101 12.1607 502.065 12.7771 501.802 13.3682C501.665 13.6713 501.432 13.8633 501.093 13.8886C500.723 13.9138 500.353 13.9239 499.958 13.9441C499.943 14.0553 499.923 14.1563 499.923 14.2624C499.923 15.187 499.918 16.1166 499.923 17.0412C499.923 17.7737 500.212 18.0466 500.946 18.0314C501.164 18.0314 501.377 17.9859 501.589 17.9607C501.802 17.9354 502.015 17.9051 502.217 17.8798C502.663 18.5568 502.445 19.8047 501.64 20.4161C501.204 20.7445 500.708 20.9011 500.181 20.9617C499.006 21.088 497.922 20.9162 497.076 19.9967C496.469 19.3399 496.327 18.5265 496.322 17.6777C496.317 16.5966 496.322 15.5154 496.322 14.4392C496.322 14.2877 496.322 14.1361 496.322 13.934C495.734 13.8835 495.228 13.7117 495.005 13.1307C494.787 12.5548 494.893 12.0091 495.218 11.4736H496.281C496.296 11.3675 496.322 11.2765 496.317 11.1906C496.281 10.0893 496.985 9.60424 497.861 9.43247C498.12 9.38194 498.383 9.35668 498.646 9.34658C499.047 9.33142 499.452 9.34658 499.903 9.34658V11.4988L499.898 11.4887Z" fill="#C5C5C5"/>
<path d="M565.312 11.6668H567.434C567.49 12.2781 567.445 12.8238 567.267 13.3593C567.125 13.8039 566.832 14.0616 566.356 14.0818C566.031 14.0919 565.707 14.0818 565.348 14.0818C565.332 14.2283 565.312 14.3496 565.312 14.4658C565.312 15.3752 565.307 16.2846 565.312 17.199C565.312 17.9518 565.601 18.2347 566.366 18.1994C566.781 18.1842 567.191 18.1084 567.607 18.0579C568.052 18.6541 567.865 19.9576 567.044 20.5739C566.624 20.8922 566.148 21.0438 565.631 21.1196C564.897 21.2257 564.173 21.1853 563.489 20.8872C562.486 20.4527 561.878 19.6797 561.777 18.5935C561.696 17.7194 561.721 16.8353 561.706 15.9562C561.696 15.355 561.706 14.7537 561.706 14.1071C561.083 14.0363 560.546 13.8494 560.354 13.1774C560.191 12.6166 560.313 12.1215 560.607 11.6365H561.66C561.676 11.5254 561.701 11.4243 561.706 11.3233C561.746 10.3785 562.136 9.89348 563.058 9.64592C563.6 9.49941 564.669 9.45394 565.312 9.56004V11.6618V11.6668Z" fill="#C5C5C5"/>
<path d="M508.857 20.8071C508.563 20.7818 508.269 20.7313 507.975 20.7313C507.231 20.7313 506.486 20.7464 505.742 20.7616C505.321 20.7717 504.906 20.8071 504.486 20.797C503.751 20.7818 503.356 20.1098 503.69 19.4581C503.777 19.2964 503.898 19.1499 504.004 19.0034C504.329 18.574 504.546 18.1041 504.546 17.5585C504.551 16.2954 504.562 15.0273 504.562 13.7642C504.562 13.7339 504.541 13.7087 504.526 13.6682C504.496 13.648 504.46 13.6177 504.42 13.5975C503.69 13.2388 503.427 12.3799 503.827 11.6827C503.923 11.516 504.05 11.4958 504.212 11.4907C504.567 11.4907 504.926 11.5008 505.281 11.4655C505.96 11.3998 506.633 11.3088 507.307 11.228C507.57 11.1977 507.828 11.1674 508.092 11.1623C508.735 11.1472 509.115 11.9606 508.781 12.4052C508.213 13.163 508.143 14.0168 508.153 14.9111C508.163 15.7144 508.153 16.5177 508.153 17.321C508.153 17.9576 508.325 18.5538 508.75 19.0337C509.247 19.5945 509.257 20.1604 508.841 20.8172L508.857 20.8071Z" fill="#C5C5C5"/>
<path d="M504.318 8.81512C504.282 8.0624 504.773 7.36525 505.629 7.11771C506.095 6.98637 506.571 6.95606 507.052 7.07225C507.807 7.24906 508.308 7.74414 508.42 8.4615C508.541 9.24453 508.192 9.98209 507.498 10.3206C506.784 10.6691 506.029 10.7095 505.29 10.4014C504.596 10.1134 504.308 9.54258 504.313 8.81007L504.318 8.81512Z" fill="#C5C5C5"/>
</svg>
