<svg width="68" height="71" viewBox="0 0 68 71" fill="none" xmlns="http://www.w3.org/2000/svg">
<g filter="url(#filter0_dd_1236_4373)">
<circle cx="34" cy="34" r="32" fill="#19CAE2"/>
<circle cx="34" cy="34" r="31" stroke="white" stroke-width="2"/>
<g clip-path="url(#clip0_1236_4373)">
<path fill-rule="evenodd" clip-rule="evenodd" d="M43.686 16.9577C44.0315 16.4972 44.0492 16.0659 43.8017 15.7117C45.5986 16.5973 47.2492 17.7202 48.707 19.0371L48.707 34.0839C47.9323 33.0936 46.8554 32.2988 45.6115 32.0693C45.7899 31.3777 45.8172 30.6445 45.634 29.9607C45.4266 29.1874 44.9541 28.6468 44.0942 28.576C43.5365 28.5298 42.4982 28.9102 41.8007 29.2044L41.8007 22.5828C42.2427 20.2139 42.9306 17.9651 43.6844 16.9593L43.686 16.9577ZM34.4573 13.449C36.656 13.4937 38.7711 13.8541 40.7576 14.4856C38.7068 14.1098 36.1818 14.0112 34.4573 13.9974L34.4573 13.449V13.449ZM34.0008 13.4444L34.0169 13.4444L34.0169 13.9958C33.9574 13.9958 33.8963 13.9958 33.8385 13.9958C32.3871 13.9989 29.8172 14.0682 27.6008 14.3747C29.6211 13.7709 31.77 13.4444 34.0008 13.4444V13.4444ZM19.7672 18.6228C20.9292 17.6339 22.2021 16.7667 23.5683 16.0367C23.504 16.317 23.5843 16.6297 23.8302 16.9577C25.4134 19.0694 26.6991 26.6491 26.0546 29.3507C25.4101 29.0611 24.0794 28.519 23.4204 28.5744C22.5589 28.6468 22.0864 29.1874 21.8807 29.9591C21.6653 30.7616 21.7408 31.6303 22.0092 32.4205C21.9578 32.4451 21.908 32.4697 21.8582 32.4944C21.7955 32.5267 21.7328 32.5606 21.6701 32.596C21.6074 32.6315 21.5464 32.6684 21.4869 32.7054C21.4258 32.7439 21.3663 32.7824 21.3069 32.8225C21.2474 32.8625 21.1896 32.9041 21.1317 32.9472C21.0738 32.9904 21.016 33.035 20.9597 33.0797C20.9035 33.1259 20.8472 33.1721 20.7926 33.2199C20.7379 33.2676 20.6833 33.3169 20.6302 33.3662C20.5772 33.417 20.5242 33.4678 20.4727 33.5202C20.4213 33.5726 20.3699 33.6249 20.32 33.6789C20.2702 33.7328 20.2204 33.7882 20.1722 33.8452C20.124 33.9022 20.0773 33.9592 20.0307 34.0162C19.9841 34.0747 19.9391 34.1332 19.8941 34.1933C19.8523 34.2503 19.8105 34.3088 19.7704 34.3674L19.7704 18.6243L19.7672 18.6228ZM19.3268 48.9891C19.1612 48.8397 18.9973 48.6872 18.835 48.5332C16.8565 46.6371 15.2621 44.3729 14.1756 41.8607C13.1293 39.441 12.5523 36.7856 12.5523 33.9992C12.5523 31.2129 13.1293 28.5575 14.1756 26.1377C15.2621 23.624 16.8548 21.3614 18.835 19.4653C18.9957 19.3113 19.1596 19.1588 19.3268 19.0094L19.3268 35.1067C19.3171 35.1252 19.3075 35.1436 19.2978 35.1621C19.2641 35.2299 19.2303 35.2992 19.1982 35.3685C19.166 35.4394 19.1355 35.5087 19.105 35.5811C19.076 35.6519 19.0471 35.7243 19.0198 35.7967C18.9925 35.8691 18.9668 35.9415 18.9426 36.0154C18.9185 36.0894 18.8944 36.1633 18.8719 36.2388C18.8494 36.3142 18.8285 36.3897 18.8092 36.4652C18.79 36.5407 18.7723 36.6177 18.7546 36.6947C18.7385 36.7717 18.7224 36.8487 18.708 36.9273C18.6935 37.0058 18.6823 37.0844 18.671 37.1629C18.6598 37.2415 18.6501 37.3216 18.6421 37.4001C18.6341 37.4802 18.6276 37.5603 18.6228 37.6404C18.618 37.7205 18.6148 37.8021 18.6132 37.8822C18.6116 37.9639 18.6116 38.0455 18.6132 38.1271C18.6148 38.2088 18.618 38.2904 18.6228 38.3736C18.6276 38.4552 18.6341 38.5384 18.6421 38.62C18.6501 38.7032 18.6614 38.7848 18.6726 38.868C18.6839 38.9512 18.6983 39.0344 18.7144 39.116C18.7305 39.1992 18.7466 39.2823 18.7658 39.3655C18.7851 39.4487 18.806 39.5319 18.8285 39.615C18.851 39.6982 18.8767 39.7814 18.9025 39.8646C18.9298 39.9477 18.9587 40.0309 18.9893 40.1125C19.0198 40.1957 19.0535 40.2789 19.0873 40.3605C19.1227 40.4437 19.158 40.5253 19.1966 40.607C19.2352 40.6901 19.2769 40.7718 19.3187 40.8519C19.3203 40.8549 19.3219 40.858 19.3236 40.8611L19.3236 48.9922L19.3268 48.9891ZM26.6718 53.3234C26.3777 53.2202 26.0868 53.1124 25.7975 52.9984C23.5747 52.1158 21.5399 50.8852 19.7671 49.3757L19.7672 41.582C19.8218 41.659 19.8764 41.736 19.9343 41.813C19.9938 41.8915 20.0565 41.9701 20.1191 42.0471C20.1834 42.1257 20.2493 42.2027 20.3184 42.2782C20.3875 42.3552 20.4583 42.4322 20.5306 42.5061C20.5708 42.5477 20.6109 42.5893 20.6511 42.6293C20.6913 42.6694 20.7299 42.7094 20.7701 42.7495C20.8102 42.788 20.8488 42.828 20.889 42.8665C20.9276 42.905 20.9661 42.942 21.0063 42.979C21.0449 43.0159 21.0835 43.0514 21.122 43.0883C21.1606 43.1238 21.1976 43.1576 21.2362 43.1931C21.2731 43.227 21.3117 43.2608 21.3503 43.2947C21.3872 43.3271 21.4242 43.361 21.4628 43.3933C21.4997 43.4256 21.5367 43.4565 21.5737 43.4873C21.6106 43.5181 21.646 43.5489 21.683 43.5781C21.7183 43.6074 21.7553 43.6367 21.7923 43.6659C21.8276 43.6937 21.863 43.7229 21.8999 43.7506C21.9353 43.7784 21.9707 43.8046 22.006 43.8323C22.0398 43.8585 22.0751 43.8831 22.1105 43.9093C22.1442 43.9339 22.1796 43.9586 22.215 43.9832C22.2487 44.0079 22.2841 44.031 22.3178 44.0556C22.3516 44.0787 22.3853 44.1003 22.4191 44.1234C22.4528 44.145 22.4866 44.1681 22.5203 44.1896C22.5541 44.2096 22.5862 44.2312 22.62 44.2512C22.6537 44.2713 22.6859 44.2913 22.7196 44.3098C22.7518 44.3282 22.7839 44.3467 22.8177 44.3652C22.8498 44.3837 22.882 44.4006 22.9141 44.4176C22.9463 44.4345 22.9784 44.4515 23.0105 44.4684C23.0427 44.4838 23.0732 44.5008 23.1054 44.5146C23.1375 44.53 23.1697 44.5454 23.2018 44.5593C23.2629 44.587 23.3256 44.6147 23.3882 44.6394C23.4782 44.6763 23.5699 44.7102 23.6631 44.7395C23.6936 44.7487 23.7225 44.758 23.7531 44.7672C23.782 44.7765 23.8126 44.7842 23.8415 44.7919C23.8704 44.7996 23.8993 44.8073 23.9299 44.815C23.9588 44.8227 23.9877 44.8288 24.0183 44.835C24.0761 44.8473 24.134 44.8581 24.1919 44.8673C24.3028 44.8843 24.4153 44.8951 24.5278 44.8997C24.5551 44.8997 24.5824 44.9012 24.6081 44.9012C24.6355 44.9012 24.6628 44.9012 24.6901 44.9012C24.7174 44.9012 24.7431 44.8997 24.7705 44.8981C24.7962 44.8981 24.8219 44.8951 24.8476 44.892C24.8733 44.8889 24.9007 44.8874 24.9264 44.8827C24.9521 44.8797 24.9794 44.875 25.0051 44.872C25.0308 44.8673 25.0549 44.8643 25.0807 44.8581C25.1048 44.8535 25.1289 44.8489 25.153 44.8427C25.1771 44.8365 25.2012 44.8304 25.2253 44.8242C25.2494 44.818 25.2751 44.8103 25.2992 44.8042C25.3217 44.798 25.3442 44.7903 25.3668 44.7826C25.3909 44.7749 25.4134 44.7672 25.4359 44.758C25.4584 44.7503 25.4793 44.741 25.5018 44.7318C25.5243 44.7226 25.5452 44.7133 25.5677 44.7025C25.5885 44.6933 25.6094 44.684 25.6287 44.6733C25.6496 44.6625 25.6689 44.6532 25.6898 44.6425C25.7107 44.6317 25.7316 44.6194 25.7525 44.6086C25.7718 44.5978 25.7895 44.587 25.8087 44.5747C25.828 44.5624 25.8473 44.55 25.8666 44.5377C25.8666 44.5377 25.8682 44.5377 25.8698 44.5362C25.8746 44.5362 25.8795 44.5393 25.8859 44.5408C25.8939 44.5423 25.9004 44.5454 25.9084 44.547C25.9164 44.55 25.9245 44.5516 25.9325 44.5547C25.9389 44.5562 25.947 44.5593 25.9534 44.5624C25.9614 44.5654 25.9679 44.567 25.9743 44.5701C25.9823 44.5731 25.9887 44.5762 25.9968 44.5793C26.0032 44.5824 26.0112 44.5855 26.0177 44.5886C26.0257 44.5916 26.0338 44.5963 26.0418 44.5993C26.0466 44.6009 26.0514 44.604 26.0546 44.6055L26.0659 44.6117C26.0659 44.6117 26.0755 44.6178 26.082 44.6194C26.0884 44.6224 26.0948 44.6271 26.1013 44.6301C26.1093 44.6348 26.1173 44.6394 26.1254 44.644C26.1318 44.6486 26.1382 44.6517 26.1447 44.6563C26.1511 44.6609 26.1591 44.6656 26.1655 44.6702C26.172 44.6748 26.18 44.6794 26.1864 44.684C26.1929 44.6887 26.2009 44.6933 26.2073 44.6994C26.2122 44.7025 26.217 44.7072 26.2234 44.7102L26.2539 44.7349C26.2539 44.7349 26.2604 44.741 26.2652 44.7441L26.2957 44.7688L26.3359 44.8057L26.3568 44.8258L26.3986 44.8673L26.4388 44.9105L26.4806 44.9582L26.4998 44.9813L26.54 45.0306L26.5802 45.083L26.5995 45.1092L26.6397 45.1646L26.6782 45.2201L26.6782 53.3249L26.6718 53.3234ZM32.3293 54.3138C32.3373 54.3769 32.3566 54.437 32.3823 54.494C30.5517 54.3631 28.7853 54.0134 27.1138 53.4713L27.1138 46.0872C27.2247 46.4554 27.2954 46.919 27.3533 47.2239C27.4658 47.8108 27.6072 48.5332 27.9512 49.0384C28.5459 49.9102 29.5327 50.5324 30.3122 51.244C30.5051 51.4212 30.7028 51.5952 30.9005 51.7677L31.5594 52.3422C31.7362 52.5024 31.9066 52.6672 32.0464 52.8336C32.0528 52.8428 32.0609 52.8505 32.0673 52.8582C32.1236 52.9429 32.1814 53.0277 32.2312 53.1155C32.3196 53.2695 32.3534 53.3881 32.3984 53.5544C32.4096 53.5929 32.4305 53.6468 32.4354 53.6854C32.3968 53.9164 32.2939 54.0612 32.3277 54.3153L32.3293 54.3138ZM41.3635 53.3111C39.205 54.0673 36.881 54.4986 34.4589 54.5479L34.4589 54.1936C34.4798 54.1767 34.499 54.1582 34.5215 54.1413C34.6951 54.1012 34.8285 54.0196 34.9651 53.8887C35.1564 53.7054 35.3412 53.4512 35.4939 53.2371L35.5245 53.1925L35.547 53.1447C35.547 53.1447 35.547 53.1432 35.547 53.1416L35.7157 53.0692C35.8154 53.0261 35.915 52.9799 36.0131 52.9322C36.942 52.4793 37.5833 51.9217 38.3243 51.244C39.0154 50.6125 39.9235 49.9872 40.4442 49.2217C40.7656 48.7503 41.0067 47.84 41.1739 47.2886C41.2301 47.1007 41.2928 46.8835 41.3603 46.6633L41.3603 53.3141L41.3635 53.3111ZM48.7086 48.9598C46.8281 50.6587 44.6278 52.0357 42.2057 52.9969C42.0723 53.0492 41.9389 53.1016 41.8039 53.1524L41.8039 45.5774C42.0338 45.1554 42.352 44.6625 42.8277 44.5377C43.4176 44.9336 44.144 44.9859 44.8528 44.7934C46.1049 44.4561 47.3039 43.3964 48.1637 42.5046C48.3598 42.3013 48.5414 42.0902 48.7086 41.8715L48.7086 48.9598V48.9598ZM47.6928 42.0872C45.1936 44.6794 43.7165 44.5316 43.0174 43.8939C42.0563 43.9185 41.5323 44.721 41.1337 45.4865C40.7335 46.252 40.3028 48.3098 39.9106 48.8843C39.4702 49.5313 38.6103 50.1335 37.8839 50.7974C37.3712 51.2656 36.717 51.8986 35.7238 52.3823C35.6354 52.4254 35.5454 52.467 35.4537 52.5071C35.5245 52.296 35.547 52.0496 35.5148 51.8324C35.4811 51.6075 35.3878 51.4135 35.3669 51.2317C35.3461 51.05 35.3975 50.8821 35.3702 50.9113C35.3412 50.9406 35.2335 51.1686 35.2207 51.3349C35.2078 51.5013 35.2898 51.6045 35.3268 51.7385C35.3637 51.8725 35.3525 52.0357 35.2962 52.2098C35.24 52.3838 35.1355 52.5671 35.0535 52.7181C35.0198 52.7812 34.9892 52.8382 34.9651 52.8875C34.806 53.1124 34.6244 53.3434 34.5135 53.4497C34.364 53.5929 34.3383 53.5144 34.2258 53.5806C34.1149 53.6468 33.9172 53.8609 33.8095 53.9056C33.7003 53.9503 33.681 53.8271 33.6408 53.8271C33.6006 53.8271 33.5443 53.9503 33.4833 53.9688C33.4206 53.9857 33.3547 53.8964 33.3049 53.9149C33.255 53.9318 33.2245 54.0566 33.1554 54.1505C33.0863 54.2445 32.977 54.3092 32.9674 54.2321C32.9577 54.1551 33.0445 53.9364 33.0702 53.7808C33.0959 53.6253 33.0606 53.5298 33.0204 53.3912C32.9818 53.2525 32.94 53.0692 32.7954 52.8151C32.7359 52.7104 32.6588 52.5948 32.5832 52.4855C32.5704 52.4716 32.5591 52.4578 32.5479 52.4439C32.3068 52.1559 31.9291 51.8278 31.4967 51.452C31.4839 51.4027 30.9519 50.976 30.7542 50.7958C30.0277 50.132 29.0039 49.4558 28.488 48.698C27.9721 47.9402 27.9608 46.2536 27.5638 45.4865L27.5638 45.4834L27.5429 45.448L27.5237 45.4126L27.5044 45.3772L27.4851 45.3417L27.4658 45.3063L27.4465 45.2709L27.4272 45.2355L27.4063 45.2L27.3854 45.1646L27.3645 45.1292L27.3436 45.0938L27.3228 45.0583L27.3019 45.0229L27.2794 44.9875L27.2569 44.9536L27.2344 44.9197L27.2119 44.8858L27.1894 44.8519L27.1652 44.818L27.1411 44.7842L27.117 44.7518L27.0929 44.7195L27.0688 44.6871L27.0431 44.6548L27.0174 44.6224L26.9917 44.5916L26.9659 44.5608L26.9402 44.53L26.9129 44.5008L26.8856 44.4715L26.8583 44.4422L26.8309 44.4145L26.802 44.3868L26.7731 44.3591L26.7441 44.3329L26.7152 44.3067L26.6847 44.282C26.675 44.2743 26.6638 44.2651 26.6541 44.2574L26.6236 44.2327C26.6124 44.225 26.6027 44.2173 26.5915 44.2096C26.5802 44.2019 26.5706 44.1942 26.5593 44.1865C26.5481 44.1788 26.5384 44.1711 26.5272 44.165C26.5159 44.1573 26.5047 44.1511 26.4934 44.1434C26.4822 44.1357 26.4709 44.1296 26.4597 44.1234C26.4484 44.1172 26.4372 44.1095 26.4259 44.1034C26.4147 44.0972 26.4034 44.091 26.3922 44.0849C26.3809 44.0787 26.3697 44.0726 26.3568 44.0664C26.3456 44.0602 26.3327 44.0541 26.3214 44.0495C26.3102 44.0433 26.2973 44.0387 26.2861 44.0325C26.2732 44.0279 26.262 44.0217 26.2491 44.0171C26.2363 44.0125 26.225 44.0079 26.2122 44.0017C26.1993 43.9971 26.1864 43.9925 26.1752 43.9878C26.1623 43.9832 26.1495 43.9786 26.1366 43.9755C26.1238 43.9709 26.1109 43.9678 26.098 43.9632C26.0852 43.9586 26.0723 43.9555 26.0595 43.9524C26.0466 43.9493 26.0338 43.9447 26.0193 43.9416C26.0064 43.9386 25.992 43.9355 25.9791 43.9324C25.9662 43.9293 25.9518 43.9262 25.9373 43.9247C25.9229 43.9216 25.91 43.9201 25.8955 43.917C25.8811 43.9155 25.8666 43.9124 25.8537 43.9108C25.8393 43.9093 25.8248 43.9078 25.8103 43.9062C25.7959 43.9062 25.7814 43.9031 25.7669 43.9016C25.7525 43.9016 25.738 43.9001 25.7236 43.8985C25.7091 43.8985 25.693 43.8985 25.6786 43.897C25.6673 43.9062 25.6561 43.917 25.6448 43.9262C25.6336 43.9355 25.6223 43.9463 25.611 43.9555C25.5998 43.9647 25.5869 43.974 25.5757 43.9832C25.5628 43.9925 25.5516 44.0017 25.5387 44.011C25.5259 44.0202 25.513 44.0279 25.5001 44.0371C25.4873 44.0464 25.4744 44.0541 25.4616 44.0618C25.4487 44.0695 25.4343 44.0787 25.4214 44.0864C25.4069 44.0941 25.3941 44.1018 25.3796 44.1095C25.3651 44.1172 25.3507 44.1249 25.3362 44.1311C25.3217 44.1388 25.3073 44.145 25.2928 44.1511C25.2784 44.1573 25.2623 44.165 25.2478 44.1711C25.2333 44.1773 25.2173 44.1835 25.2012 44.1896C25.1851 44.1958 25.1691 44.2019 25.153 44.2066C25.1369 44.2112 25.1208 44.2173 25.1048 44.222C25.0887 44.2266 25.071 44.2312 25.0549 44.2358C25.0389 44.2404 25.0212 44.2451 25.0035 44.2482C24.9858 44.2512 24.9682 44.2559 24.9505 44.2589C24.9328 44.262 24.9151 44.2651 24.8974 44.2682C24.8798 44.2713 24.8605 44.2743 24.8428 44.2759C24.8235 44.279 24.8058 44.2805 24.7865 44.282C24.7673 44.2836 24.748 44.2851 24.7287 44.2867C24.7094 44.2867 24.6901 44.2882 24.6708 44.2897C24.6515 44.2897 24.6306 44.2897 24.6113 44.2897C24.5905 44.2897 24.5712 44.2897 24.5503 44.2897C24.4683 44.2867 24.3815 44.279 24.2931 44.2651C24.2481 44.2574 24.2031 44.2497 24.1565 44.2404C24.134 44.2358 24.1099 44.2297 24.0858 44.225C24.0617 44.2189 24.0376 44.2127 24.0151 44.2066C23.991 44.2004 23.9669 44.1927 23.9427 44.1865C23.9186 44.1788 23.8929 44.1711 23.8688 44.1634C23.7933 44.1388 23.7177 44.1111 23.639 44.0787C23.5859 44.0572 23.5329 44.0341 23.4783 44.0094C23.4509 43.9971 23.4236 43.9848 23.3963 43.9709C23.369 43.957 23.34 43.9432 23.3127 43.9293C23.2838 43.9155 23.2565 43.9001 23.2275 43.8846C23.1986 43.8692 23.1697 43.8538 23.1407 43.8369C23.1118 43.82 23.0829 43.8046 23.0523 43.7876C23.0234 43.7707 22.9929 43.7522 22.9639 43.7352C22.9334 43.7168 22.9045 43.6983 22.8739 43.6798C22.8434 43.6613 22.8129 43.6413 22.7823 43.6213C22.7518 43.6012 22.7196 43.5797 22.6891 43.5597C22.6586 43.5381 22.6264 43.5165 22.5943 43.495C22.5621 43.4719 22.53 43.4503 22.4978 43.4257C22.4657 43.4025 22.4335 43.3779 22.3998 43.3533C22.3677 43.3286 22.3339 43.304 22.3002 43.2778C22.2664 43.2516 22.2343 43.2254 22.2005 43.1992C22.1667 43.173 22.133 43.1453 22.0992 43.1176C22.0655 43.0899 22.0301 43.0606 21.9964 43.0313C21.961 43.0021 21.9273 42.9728 21.8919 42.942C21.8566 42.9112 21.8212 42.8804 21.7858 42.8496C21.7505 42.8172 21.7151 42.7864 21.6781 42.7526C21.6428 42.7202 21.6058 42.6863 21.5689 42.6524C21.5319 42.6186 21.4949 42.5831 21.458 42.5492C21.421 42.5138 21.384 42.4784 21.3455 42.4414C21.3085 42.4045 21.2699 42.3675 21.2313 42.329C21.1928 42.2905 21.1542 42.252 21.1156 42.2135C21.077 42.175 21.0385 42.1349 20.9999 42.0933C20.9324 42.024 20.8681 41.9532 20.8054 41.8823C20.7427 41.8115 20.6817 41.7406 20.6238 41.6697C20.5659 41.5989 20.5081 41.5265 20.4534 41.4557C20.3988 41.3833 20.3458 41.3109 20.2959 41.2385C20.2461 41.1661 20.1963 41.0937 20.1497 41.0198C20.1031 40.9458 20.0581 40.8734 20.0163 40.7995C19.9745 40.7256 19.9327 40.6516 19.8941 40.5777C19.8555 40.5038 19.8186 40.4298 19.7832 40.3559C19.7479 40.282 19.7157 40.2065 19.6836 40.1326C19.653 40.0586 19.6225 39.9832 19.5952 39.9092C19.5679 39.8338 19.5421 39.7598 19.518 39.6843C19.4939 39.6089 19.4714 39.5349 19.4505 39.4595C19.4296 39.384 19.4103 39.3101 19.3943 39.2346C19.3766 39.1591 19.3605 39.0852 19.3477 39.0097C19.3332 38.9342 19.3219 38.8603 19.3107 38.7848C19.2994 38.7094 19.2914 38.6354 19.2834 38.5615C19.2753 38.4876 19.2705 38.4121 19.2657 38.3382C19.2609 38.2642 19.2577 38.1903 19.2577 38.1164C19.2577 38.0424 19.2577 37.9685 19.2577 37.8961C19.2577 37.8222 19.2625 37.7498 19.2673 37.6774C19.2721 37.605 19.2769 37.5326 19.285 37.4602C19.2914 37.3878 19.3011 37.317 19.3107 37.2446C19.3203 37.1737 19.3316 37.1029 19.3444 37.032C19.3573 36.9612 19.3702 36.8903 19.3862 36.821C19.4007 36.7517 19.4184 36.6824 19.4361 36.6131C19.4537 36.5437 19.473 36.476 19.4923 36.4082C19.5116 36.3404 19.5341 36.2727 19.5566 36.2064C19.5791 36.1402 19.6032 36.074 19.6273 36.0077C19.6514 35.9415 19.6771 35.8768 19.7045 35.8121C19.7318 35.7474 19.7591 35.6843 19.788 35.6196C19.817 35.5564 19.8475 35.4933 19.878 35.4317C19.9086 35.3701 19.9407 35.3085 19.9745 35.2484C20.0082 35.1883 20.042 35.1282 20.0773 35.0682C20.1127 35.0096 20.1481 34.9511 20.185 34.8926C20.222 34.8356 20.259 34.7786 20.2991 34.7216C20.3377 34.6662 20.3779 34.6107 20.4181 34.5568C20.4583 34.5029 20.5 34.449 20.5418 34.3966C20.5836 34.3442 20.627 34.2919 20.6704 34.2426C20.7138 34.1918 20.7588 34.1425 20.8038 34.0932C20.8488 34.0439 20.8938 33.9961 20.9404 33.9499C20.987 33.9037 21.0337 33.8575 21.0819 33.8129C21.1301 33.7682 21.1783 33.7251 21.2265 33.6819C21.2747 33.6388 21.3246 33.5972 21.376 33.5572C21.4258 33.5171 21.4772 33.4771 21.5287 33.4401C21.5801 33.4016 21.6315 33.3646 21.6846 33.3292C21.7376 33.2938 21.789 33.2584 21.8421 33.226C21.8951 33.1921 21.9498 33.1613 22.0028 33.1305C22.0575 33.0997 22.1121 33.0705 22.1668 33.0427C22.2214 33.015 22.2776 32.9873 22.3323 32.9626C22.3885 32.9364 22.4432 32.9133 22.5011 32.8902C22.5573 32.8671 22.6136 32.8456 22.6714 32.8255C22.7277 32.8055 22.7855 32.787 22.8434 32.7701L22.845 32.7701C22.8354 32.7485 22.8241 32.7285 22.8129 32.7069C22.3259 31.6626 22.3452 30.7262 22.5075 30.1193C22.6698 29.5124 22.9752 29.2352 23.4831 29.1936C23.991 29.1505 25.3732 29.7265 25.82 29.9283C26.2668 30.1301 26.45 30.3442 26.6429 29.6618C27.4304 26.8801 26.0643 18.8846 24.3574 16.6066C24.134 16.3078 24.0729 16.0536 24.6322 15.7656C27.424 14.3285 39.7418 14.1406 42.9001 15.7656C43.4594 16.0536 43.3983 16.3093 43.1749 16.6066C41.4664 18.8846 40.1003 26.8786 40.8894 29.6618C41.0823 30.3426 41.2655 30.1301 41.7123 29.9283C42.1591 29.7265 43.5413 29.1505 44.0492 29.1936C44.5571 29.2367 44.8625 29.5124 45.0248 30.1193C45.1839 30.7108 45.2064 31.6149 44.7564 32.6269C48.1959 32.479 51.6193 38.0332 47.7009 42.0964L47.6928 42.0872ZM41.3635 24.636L41.3635 29.2799C41.2301 28.4266 41.018 26.8201 41.3635 24.636V24.636ZM55.3786 35.6827C55.1954 37.8561 54.6586 39.9339 53.826 41.8623C52.7395 44.376 51.1468 46.6386 49.1666 48.5347L49.1474 48.5532L49.1474 41.2339C50.1921 39.5165 50.393 37.4879 49.5717 35.5457C49.4543 35.2669 49.3113 34.9912 49.1474 34.7232L49.1474 19.4468L49.1666 19.4653C51.1452 21.3614 52.7395 23.6255 53.826 26.1377C54.6602 28.0661 55.1954 30.1439 55.3786 32.3173L55.3786 35.6812L55.3786 35.6827ZM58 36.3281L58 31.6704C58 31.3638 57.738 31.1128 57.4182 31.1128L56.8814 31.1128L57.3989 30.9803C57.7091 30.9002 57.8939 30.5937 57.8103 30.2964L56.5519 25.7973C56.4683 25.5001 56.1485 25.3229 55.8383 25.403L55.3207 25.5355L55.7852 25.2783C56.0633 25.1242 56.1581 24.7823 55.999 24.5158L53.5689 20.4834C53.4081 20.2169 53.0513 20.1261 52.7733 20.2786L52.3088 20.5358L52.6881 20.1723C52.9147 19.9551 52.9147 19.5993 52.6881 19.3821L49.2518 16.089C49.0252 15.8719 48.6539 15.8719 48.4273 16.089L48.048 16.4525L48.3164 16.0074C48.4771 15.7409 48.3807 15.399 48.1027 15.245L43.8949 12.9161C43.6169 12.7621 43.2601 12.8545 43.0993 13.1209L42.8309 13.5661L42.9692 13.0701C43.0527 12.7728 42.8663 12.4663 42.5577 12.3862L37.8646 11.1818C37.5544 11.1017 37.2346 11.2803 37.151 11.5761L37.0128 12.0736L37.0128 11.5576C37.0128 11.2511 36.7508 11 36.4293 11L31.5691 11C31.2492 11 30.9872 11.2511 30.9872 11.5576L30.9872 12.072L30.849 11.5761C30.7654 11.2788 30.4456 11.1017 30.1354 11.1818L25.4407 12.3878C25.1305 12.4679 24.9457 12.7744 25.0292 13.0717L25.1675 13.5676L24.899 13.1225C24.7383 12.856 24.3815 12.7651 24.1035 12.9176L19.8957 15.2465C19.6177 15.4005 19.5229 15.7425 19.682 16.0089L19.9504 16.4541L19.5711 16.0906C19.3444 15.8734 18.9732 15.8734 18.7466 16.0906L15.3103 19.3837C15.0837 19.6008 15.0837 19.9566 15.3103 20.1738L15.6896 20.5373L15.2251 20.2801C14.9471 20.1261 14.5903 20.2185 14.4295 20.4849L11.9994 24.5174C11.8387 24.7838 11.9351 25.1258 12.2132 25.2798L12.6777 25.537L12.1585 25.4046C11.8483 25.3245 11.5285 25.5031 11.4449 25.7989L10.1864 30.298C10.1029 30.5952 10.2893 30.9018 10.5979 30.9819L11.1154 31.1143L10.5786 31.1143C10.2588 31.1143 9.99678 31.3654 9.99678 31.6719L9.99678 36.3296C9.99678 36.6362 10.2588 36.8872 10.5786 36.8872L11.1154 36.8872L10.5979 37.0197C10.2877 37.0998 10.1029 37.4063 10.1864 37.7036L11.4449 42.2027C11.5285 42.5 11.8483 42.6771 12.1585 42.597L12.676 42.4645L12.2115 42.7217C11.9335 42.8758 11.8387 43.2177 11.9978 43.4842L14.4279 47.5181C14.5886 47.7846 14.9455 47.8755 15.2235 47.723L15.688 47.4658L15.3087 47.8293C15.0821 48.0464 15.0821 48.4022 15.3087 48.6194L18.7449 51.9125C18.9716 52.1297 19.3428 52.1297 19.5695 51.9125L19.9488 51.549L19.6804 51.9941C19.5196 52.2606 19.6161 52.6025 19.8941 52.7566L24.1035 55.0855C24.3815 55.2395 24.7383 55.1471 24.899 54.8806L25.1675 54.4355L25.0292 54.9314C24.9457 55.2287 25.1321 55.5352 25.4407 55.6153L30.1354 56.8213C30.4456 56.9014 30.7654 56.7228 30.849 56.427L30.9872 55.9311L30.9872 56.444C30.9872 56.7505 31.2492 57.0015 31.5691 57.0015L36.4293 57.0015C36.7492 57.0015 37.0111 56.7505 37.0111 56.444L37.0111 55.9295L37.1494 56.4255C37.2329 56.7228 37.5528 56.8999 37.863 56.8198L42.5577 55.6138C42.8679 55.5337 43.0527 55.2272 42.9692 54.9299L42.8309 54.4339L43.0993 54.8791C43.2601 55.1455 43.6169 55.2364 43.8949 55.0839L48.1027 52.755C48.3807 52.601 48.4755 52.2591 48.3164 51.9926L48.048 51.5475L48.4273 51.911C48.6539 52.1281 49.0252 52.1281 49.2518 51.911L52.6881 48.6179C52.9147 48.4007 52.9147 48.0449 52.6881 47.8277L52.3088 47.4642L52.7733 47.7214C53.0513 47.8755 53.4081 47.7831 53.5689 47.5166L55.999 43.4826C56.1597 43.2162 56.0633 42.8742 55.7852 42.7202L55.3207 42.463L55.8383 42.5954C56.1485 42.6755 56.4683 42.4969 56.5519 42.2011L57.8103 37.702C57.8939 37.4048 57.7075 37.0982 57.3989 37.0181L56.8814 36.8857L57.4182 36.8857C57.738 36.8872 58 36.6362 58 36.3281Z" fill="white"/>
<path fill-rule="evenodd" clip-rule="evenodd" d="M34.9882 29.4093C35.0766 29.7527 35.1731 29.956 35.2631 30.0978C35.419 30.3442 35.5556 30.4058 35.9461 30.3396C36.3367 30.2733 36.9796 30.0793 37.4666 29.896C37.9536 29.7127 38.2863 29.5386 38.2252 29.5433C38.1641 29.5463 37.7093 29.7265 37.2143 29.8544C36.7192 29.9822 36.184 30.0592 35.8336 29.9299C35.636 29.8575 35.4961 29.7204 35.3884 29.4478C35.255 29.4416 35.12 29.4277 34.9882 29.4077L34.9882 29.4093Z" fill="white"/>
<path fill-rule="evenodd" clip-rule="evenodd" d="M32.7308 28.2479C32.6247 28.1601 32.5187 28.0677 32.411 27.9722C32.3917 28.157 32.3708 28.328 32.3499 28.4835C32.4737 28.4527 32.5958 28.4142 32.718 28.3696C32.7228 28.3295 32.7276 28.2895 32.7324 28.2494L32.7308 28.2479Z" fill="white"/>
<path fill-rule="evenodd" clip-rule="evenodd" d="M34.7923 28.2447C34.7988 28.2986 34.8036 28.3525 34.81 28.4034L34.81 28.4172C34.9322 28.4619 35.0559 28.5019 35.1797 28.5312C35.1556 28.3633 35.1331 28.1769 35.1122 27.9736C35.0045 28.0676 34.8968 28.1585 34.7923 28.2447V28.2447Z" fill="white"/>
<path fill-rule="evenodd" clip-rule="evenodd" d="M32.867 23.8707C32.7529 23.9015 32.6372 23.9261 32.5215 23.9462C32.5295 24.1325 32.536 24.3204 32.5392 24.5068C32.5585 25.3355 32.5392 26.1472 32.499 26.865C32.5585 26.9204 32.6195 26.9759 32.6822 27.0298C32.7272 27.0698 32.7738 27.1099 32.8204 27.1484C32.8735 26.2627 32.896 25.2184 32.8751 24.1911C32.8735 24.0832 32.8703 23.9754 32.867 23.8691L32.867 23.8707Z" fill="white"/>
<path fill-rule="evenodd" clip-rule="evenodd" d="M31.1761 20.5328C31.1922 20.5867 31.2211 20.6529 31.2678 20.7346C31.4478 21.0565 31.8046 21.4723 32.0682 21.7496L32.1051 21.7896C32.1051 21.7896 32.1051 21.7896 32.1051 21.7881C32.1453 21.8297 32.1855 21.8713 32.2241 21.9129C32.2241 21.9159 32.2273 21.9206 32.2273 21.9236C32.3398 22.0438 32.4571 22.1639 32.5728 22.281C32.5696 22.2733 32.5648 22.264 32.5616 22.2548C32.6307 22.3226 32.695 22.3873 32.7528 22.4442C32.7641 22.4612 32.7753 22.4766 32.7866 22.4905L32.8445 22.5444L32.8557 22.5551C32.8557 22.5551 32.8477 22.5413 32.8428 22.532C32.8653 22.5536 32.8878 22.5752 32.9071 22.5937C32.9103 22.5998 32.9136 22.606 32.9168 22.6106C32.9682 22.6583 33.0196 22.7046 33.0711 22.7492C33.1 22.7338 33.1305 22.7169 33.1595 22.6999C33.1595 22.6984 33.1595 22.6969 33.1579 22.6953L33.2655 22.6275C33.2655 22.6275 33.2688 22.6337 33.2688 22.6352C33.3347 22.5952 33.4006 22.5536 33.4632 22.512L33.4681 22.5089C33.4681 22.5089 33.4648 22.5043 33.4648 22.5028L33.5018 22.4797C33.5018 22.4797 33.5034 22.4828 33.505 22.4843C33.5436 22.4581 33.5822 22.4319 33.6191 22.4042C33.6191 22.4042 33.3989 22.2317 33.1386 22.0161C33.01 21.9052 32.8846 21.7943 32.7673 21.6834C32.7753 21.6957 32.785 21.7095 32.793 21.7249C32.7673 21.7034 32.7432 21.6818 32.7191 21.6603C32.7078 21.6418 32.6982 21.6248 32.6886 21.6094C32.6387 21.5617 32.5905 21.5155 32.5439 21.4693C32.1373 21.0657 31.8624 20.7238 31.6953 20.5266C31.5715 20.3818 31.5056 20.3141 31.4478 20.2817L31.4269 20.2648C31.4269 20.2648 31.4124 20.2632 31.4044 20.2617C31.3979 20.2602 31.3931 20.2586 31.3867 20.2571C31.3256 20.2417 31.2549 20.2478 31.2067 20.294C31.144 20.3387 31.1392 20.4234 31.1745 20.5328L31.1761 20.5328Z" fill="white"/>
<path fill-rule="evenodd" clip-rule="evenodd" d="M36.4769 23.4685C36.4801 23.4392 36.4769 23.4099 36.4657 23.3838C36.4319 23.2944 36.3226 23.2282 36.2326 23.219C36.2278 23.219 36.2246 23.219 36.2198 23.219C36.2005 23.2174 36.1812 23.219 36.1635 23.222C36.0703 23.2436 35.8163 23.3037 35.519 23.2913C35.4226 23.2806 35.3133 23.2621 35.1927 23.2297C35.0738 23.1989 34.9436 23.1573 34.8022 23.1004C34.6366 23.0249 34.5177 22.9556 34.5177 22.9556L34.5032 22.9663C34.5032 22.9663 34.492 22.9617 34.4872 22.9586C34.4164 23.0187 34.3457 23.0772 34.2734 23.1342L34.0548 23.2944C34.0548 23.2944 34.0548 23.2944 34.0564 23.2975C34.0532 23.3006 34.0484 23.3021 34.0452 23.3052L34.0645 23.3237C34.1143 23.3699 34.1673 23.4084 34.2155 23.4377C34.3843 23.5655 34.6864 23.7411 35.1204 23.8012C35.7681 23.8905 36.2069 23.7796 36.3114 23.7149C36.3998 23.661 36.4769 23.5655 36.4785 23.4716L36.4769 23.4685Z" fill="white"/>
<path fill-rule="evenodd" clip-rule="evenodd" d="M34.655 23.8687C34.6518 23.9765 34.6486 24.0844 34.647 24.1922C34.6261 25.2118 34.6486 26.2469 34.7 27.1264C34.7595 27.0771 34.8174 27.0278 34.8736 26.9801C34.9234 26.9369 34.9733 26.8923 35.0215 26.8491C34.9813 26.1345 34.962 25.3289 34.9813 24.5064C34.9861 24.32 34.9909 24.1321 34.999 23.9442C34.8817 23.9242 34.7659 23.898 34.6534 23.8672L34.655 23.8687Z" fill="white"/>
<path fill-rule="evenodd" clip-rule="evenodd" d="M36.0078 40.3698C36.6346 41.1615 37.6279 41.6729 38.7449 41.6729C39.285 41.6729 39.7961 41.5528 40.2493 41.3402L40.709 39.8569L36.1653 39.8569L36.0062 40.3698L36.0078 40.3698Z" fill="white"/>
<path fill-rule="evenodd" clip-rule="evenodd" d="M29.0158 41.7343C29.5558 41.7343 30.0669 41.6142 30.5201 41.4016L31.0039 39.8413L26.4603 39.8413L26.277 40.4312C26.9055 41.2229 27.8971 41.7328 29.0142 41.7328L29.0158 41.7343Z" fill="white"/>
<path fill-rule="evenodd" clip-rule="evenodd" d="M38.5977 46.4736C38.5334 46.6169 38.5028 46.6924 38.5543 46.5845C38.5719 46.5476 38.5864 46.5106 38.5977 46.4736Z" fill="white"/>
<path fill-rule="evenodd" clip-rule="evenodd" d="M38.597 46.4738C38.687 46.2766 38.8429 45.9532 38.9473 45.813C39.1852 45.314 39.1466 44.5253 37.9653 44.607C38.8734 44.0278 39.1884 44.9736 39.3025 45.4326C39.2511 44.2804 38.8557 43.9755 37.6374 43.3131C38.6307 43.558 39.1209 43.957 39.3668 44.5823C39.3636 44.5469 39.3604 44.5099 39.3572 44.473L39.3347 44.473C39.2141 43.7644 37.9814 42.9959 37.2774 42.8526C37.7403 42.6739 38.642 43.1222 39.2109 43.689C39.2045 43.6628 39.1965 43.6351 39.1884 43.6089C38.7079 42.9096 38.2112 42.8002 37.3739 42.5754C38.0505 42.5476 38.515 42.6123 38.9361 42.8942C38.8493 42.6863 38.7513 42.4814 38.6484 42.2873C38.8445 42.2843 39.0775 42.2673 39.3556 42.2334C40.0885 42.1456 41.1476 41.9454 41.7632 41.4001C42.3788 40.8549 42.5491 39.9646 42.66 39.4194C42.7709 38.8741 42.824 38.6739 43.0008 38.5722C43.1776 38.4721 43.4781 38.4721 43.6356 38.2965C43.7931 38.1209 43.806 37.7697 43.7465 37.5818C43.6871 37.3939 43.5569 37.3693 43.3672 37.3123C43.1776 37.2553 42.9285 37.1675 42.7581 37.0612C42.5877 36.9549 42.4961 36.8286 42.2615 36.5529C42.0847 36.3465 41.8275 36.0554 41.4498 35.9507L41.4787 35.9815L41.5077 36.0123L41.5077 36.0154C41.5237 36.0308 41.5366 36.0462 41.5511 36.0616L41.5671 36.0801C41.5816 36.0955 41.5945 36.1124 41.6089 36.1294L41.6218 36.1448C41.6362 36.1617 41.6507 36.1786 41.6636 36.1971L41.6748 36.211C41.6893 36.2295 41.7037 36.248 41.7182 36.2664L41.7262 36.2772C41.7407 36.2957 41.7552 36.3142 41.768 36.3342L41.7793 36.3496C41.7905 36.3666 41.8034 36.382 41.8146 36.3989L41.8371 36.4312L41.8629 36.4698L41.8902 36.5113L41.9095 36.5406L41.9368 36.5853L41.9545 36.6145C41.9641 36.6299 41.9738 36.6469 41.9834 36.6638L41.9979 36.69C42.0075 36.707 42.0172 36.7239 42.0252 36.7393L42.0445 36.7747L42.0654 36.8132L42.0847 36.8533L42.1056 36.8979L42.1216 36.9318L42.1441 36.9796L42.1586 37.0119C42.1666 37.0304 42.1747 37.0489 42.1827 37.0674L42.1923 37.0905C42.2004 37.1105 42.2084 37.129 42.2148 37.149L42.2229 37.1721C42.2309 37.1921 42.2373 37.2122 42.2454 37.2322L42.2534 37.2537C42.2598 37.2738 42.2679 37.2953 42.2743 37.3154L42.2807 37.3369C42.2872 37.3585 42.2952 37.38 42.3016 37.4016L42.3065 37.4186C42.3129 37.4432 42.3209 37.4663 42.3273 37.4909L42.3306 37.5017C42.337 37.5279 42.3434 37.5526 42.3499 37.5787L42.3531 37.5911C42.3595 37.6172 42.3659 37.6434 42.3707 37.6712L42.3707 37.6742L42.3707 37.6789C42.3772 37.705 42.382 37.7328 42.3868 37.759L42.3868 37.7713C42.3932 37.7959 42.3981 37.8206 42.4029 37.8467L42.4029 37.8606C42.4093 37.8868 42.4125 37.9114 42.4157 37.9376L42.4157 37.9499C42.4206 37.9761 42.4238 38.0023 42.427 38.03L42.427 38.0393C42.4302 38.067 42.4334 38.0947 42.435 38.1225L42.435 38.1286C42.4382 38.1579 42.4399 38.1871 42.4415 38.2149L42.4415 38.2195C42.4431 38.2488 42.4447 38.2796 42.4447 38.3088L42.4447 38.3104C42.4447 38.3412 42.4447 38.372 42.4447 38.4028C42.4447 40.3974 40.7571 42.0147 38.6757 42.0147C38.6436 42.0147 38.6114 42.0147 38.5793 42.0147C38.5487 42.0147 38.5198 42.0132 38.4909 42.0116C37.7596 41.9777 37.083 41.7436 36.5188 41.3663C36.5349 41.394 36.5477 41.4217 36.559 41.4463C36.5863 41.5095 36.6008 41.568 36.6024 41.6204C36.649 41.6358 36.7004 41.662 36.7519 41.7067C36.8435 41.7852 36.9351 41.9161 36.9447 42.0578C36.9544 42.1995 36.882 42.3489 36.7486 42.506C36.6152 42.6632 36.4176 42.8264 36.3854 42.8264C36.3533 42.8264 36.4835 42.6632 36.5397 42.503C36.596 42.3428 36.5751 42.1857 36.4899 42.1056C36.4465 42.064 36.3854 42.0424 36.3324 42.0224C36.2793 42.0609 36.2183 42.101 36.154 42.1425L36.1266 42.1595C36.125 42.2673 36.0752 42.3859 35.9916 42.4922C35.9563 42.4398 35.9257 42.3659 35.8968 42.3012C35.8277 42.3428 35.757 42.3828 35.6847 42.4244C35.6991 42.5045 35.6895 42.6 35.6429 42.7124C35.5882 42.6277 35.5497 42.5646 35.5159 42.5168C35.413 42.5707 35.3102 42.6216 35.2105 42.6662C35.2475 42.7294 35.2603 42.7987 35.233 42.8742C35.1462 42.8203 35.0803 42.7787 35.0241 42.7448L34.9887 42.7571C34.873 42.8002 34.7653 42.831 34.6689 42.8619C34.7075 42.9019 34.7364 42.9512 34.7525 43.0113C34.738 43.0236 34.5291 43.0113 34.3474 43.0082C34.2864 43.0559 34.2349 43.1175 34.198 43.2023C34.0678 43.4964 34.0935 44.074 34.1128 44.5885C34.1321 45.1029 34.1449 45.5542 34.1128 45.3971C34.0806 45.24 34.0019 44.476 33.8974 43.9801C33.7929 43.4841 33.6612 43.2592 33.4072 43.059C33.1517 42.8588 32.7724 42.6832 32.348 42.5138C31.9977 42.3736 31.6151 42.2396 31.3757 42.101C31.3339 42.1872 31.3323 42.3089 31.3757 42.4306C31.4319 42.5908 31.5621 42.754 31.53 42.754C31.4978 42.754 31.3017 42.5908 31.1667 42.4337C31.0333 42.2765 30.961 42.1271 30.9706 41.9854C30.9803 41.8437 31.0719 41.7128 31.1635 41.6343C31.2182 41.5881 31.2728 41.5603 31.321 41.5449C31.4785 41.491 31.7003 41.4849 31.9173 41.454C32.1729 41.4171 32.4204 41.3416 32.7868 41.4094C33.1533 41.4787 33.637 41.6912 34.0164 41.7036C34.3957 41.7159 34.6705 41.528 34.9453 41.4772C35.2202 41.4263 35.495 41.5141 35.6718 41.5649C35.8486 41.6158 35.9273 41.6281 36.0977 41.5588C36.2054 41.5157 36.3501 41.4386 36.4256 41.3016C35.72 40.7979 35.2057 40.0616 35.0032 39.213C34.7059 38.9927 34.3973 38.8217 34.0903 38.7309C33.6563 38.6015 33.2272 38.6292 32.7531 38.8957C32.7274 39.0759 32.6888 39.2499 32.6357 39.4209C32.827 39.2006 32.9797 39.062 33.2256 39.1575C32.7274 39.4009 32.774 39.6273 32.565 39.9384C32.8061 39.7906 33.0231 39.7028 33.1886 39.7351C32.2227 40.3897 32.0893 40.7671 31.1699 41.3832L31.1619 41.374C30.6396 41.7205 30.0224 41.9454 29.3538 42.0024L29.3072 42.0055C29.2734 42.0085 29.2429 42.0101 29.2107 42.0116C29.1786 42.0132 29.1464 42.0147 29.1143 42.0147C29.0805 42.0147 29.0484 42.0147 29.0163 42.0147C26.9349 42.0147 25.2473 40.3974 25.2473 38.4028C25.2473 38.3735 25.2473 38.3427 25.2473 38.3134L25.2473 38.3073C25.2473 38.278 25.2489 38.2488 25.2505 38.2195L25.2505 38.2149C25.2537 38.1548 25.2585 38.0963 25.265 38.0362L25.265 38.0316C25.2682 38.0023 25.2714 37.9746 25.2762 37.9469L25.2762 37.9392C25.281 37.9114 25.2843 37.8853 25.2891 37.8575L25.2891 37.8529L25.2907 37.8467C25.2939 37.8221 25.2987 37.7959 25.3035 37.7713L25.3068 37.7559C25.3116 37.7297 25.3164 37.7035 25.3228 37.6789L25.3228 37.6696C25.3309 37.6434 25.3357 37.6188 25.3421 37.5926L25.3453 37.5772C25.3502 37.5541 25.3566 37.531 25.363 37.5079L25.3678 37.4925C25.3743 37.4694 25.3807 37.4463 25.3871 37.4232L25.3919 37.4062C25.3984 37.3831 25.4064 37.3585 25.4144 37.3354L25.4193 37.32C25.4257 37.2984 25.4337 37.2769 25.4418 37.2553L25.4498 37.2337C25.4562 37.2137 25.4643 37.1937 25.4723 37.1737L25.4819 37.1505C25.49 37.1305 25.498 37.1105 25.5061 37.0905L25.5157 37.0658C25.5237 37.0473 25.5302 37.0304 25.5382 37.0119L25.5511 36.9827C25.5591 36.9657 25.5671 36.9488 25.5752 36.9318L25.588 36.9041C25.5961 36.8872 25.6041 36.8718 25.6121 36.8548L25.6282 36.824L25.6491 36.7824L25.6716 36.7408L25.6925 36.7039L25.715 36.6638L25.7375 36.6253L25.76 36.5884L25.7793 36.556L25.8082 36.5113L25.8259 36.4836C25.8371 36.4667 25.8484 36.4513 25.8596 36.4343L25.8629 36.4297L25.8821 36.402C25.8163 36.3666 25.7504 36.3296 25.6845 36.2926C25.5864 36.385 25.5028 36.479 25.4337 36.5622C25.1975 36.8379 25.1059 36.9626 24.9371 37.0705C24.7667 37.1767 24.5176 37.2645 24.328 37.3215C24.1383 37.3785 24.0081 37.4032 23.9486 37.5911C23.8892 37.779 23.9036 38.1302 24.0595 38.3057C24.2171 38.4813 24.5176 38.4813 24.6944 38.5815C24.8712 38.6816 24.9226 38.8818 25.0351 39.4286C25.146 39.9739 25.3164 40.8641 25.932 41.4094C26.5475 41.9546 27.6067 42.1549 28.3396 42.2427C28.6739 42.2827 28.9391 42.2997 29.1593 42.2966L29.148 42.3166C29.1577 42.3104 29.1689 42.3027 29.1802 42.2966C29.4325 42.292 29.6206 42.2611 29.7797 42.2119C29.7974 42.2072 29.8134 42.2011 29.8311 42.1949C29.2107 42.5245 28.9407 42.8064 28.8121 43.0528C28.8025 43.0806 28.7928 43.1098 28.7832 43.1391C29.0548 42.868 29.3907 42.6724 29.7427 42.8172C29.1464 43.0498 28.8989 43.3039 28.7671 43.5411C28.9455 43.4025 29.1802 43.2977 29.492 43.2562L29.4856 43.2562C29.5515 43.2469 29.5177 43.2485 29.5868 43.2562C29.5595 43.287 29.5515 43.3039 29.5113 43.3208C28.8829 43.6043 28.6803 43.9231 28.6 44.2265C28.8507 43.957 29.2541 43.8291 29.8986 43.8784C29.4904 44.0093 29.2911 44.3651 29.0918 44.4807C27.4171 44.3605 28.1435 46.0502 28.9182 45.9485C28.5309 45.488 28.5903 45.3432 28.7703 44.935C31.3082 47.535 36.3179 47.418 38.5921 44.9997C38.9506 45.4125 38.8429 45.7267 38.5134 45.9963C34.6978 48.5901 31.2053 47.7399 29.1866 45.9747C30.7055 48.9351 36.4336 49.2124 38.5279 46.0055C38.6275 46.0872 38.6677 46.272 38.6002 46.4846L38.597 46.4738Z" fill="white"/>
<path fill-rule="evenodd" clip-rule="evenodd" d="M32.541 29.3906C32.4092 29.4106 32.2758 29.4245 32.1424 29.4307C32.0331 29.7156 31.8933 29.8589 31.6908 29.9328C31.3404 30.0606 30.8052 29.9852 30.3102 29.8573C29.8151 29.7295 29.3603 29.5493 29.2992 29.5462C29.2382 29.5431 29.5708 29.7156 30.0578 29.8989C30.5448 30.0822 31.1893 30.2763 31.5783 30.3425C31.9688 30.4087 32.1055 30.3456 32.2614 30.1007C32.353 29.9559 32.451 29.748 32.541 29.3922L32.541 29.3906Z" fill="white"/>
<path fill-rule="evenodd" clip-rule="evenodd" d="M31.9765 34.0731L32.1453 33.0134L30.5397 31.4562L32.793 31.1019L32.8477 31.0003C30.4481 30.8155 28.4021 29.9683 27.2561 28.7808C27.24 29.4893 27.1725 30.1038 27.0407 30.5659C26.9073 31.0372 26.7787 31.0604 26.5553 30.9633C27.2834 32.4882 29.3567 33.6819 31.9749 34.0731L31.9765 34.0731Z" fill="white"/>
<path fill-rule="evenodd" clip-rule="evenodd" d="M42.8988 16.7268C42.8988 16.3233 42.8747 16.6144 42.8297 16.5605C42.6834 16.6329 42.497 16.7006 42.2736 16.7669C42.6256 16.3494 42.1546 15.6563 41.261 15.7672C41.2321 15.7703 41.2321 15.7749 41.208 15.7919C41.3799 15.8951 41.6259 15.8504 41.8493 16.0044C42.3555 16.3541 42.2221 16.5913 41.9135 16.8639C41.7239 16.9101 41.5166 16.9548 41.2932 16.9964C41.5969 16.6744 41.5825 16.1954 40.7499 15.9967C41.2948 16.4711 41.4973 16.6883 40.9155 17.0626C40.7306 17.0934 40.5378 17.1227 40.3352 17.1504C40.6583 16.7977 40.6647 16.2647 40.0556 16.2801C40.0588 16.2817 40.4124 16.5066 40.3626 16.522C40.3031 16.8562 40.2115 17.0487 40.0379 17.192C39.8081 17.2212 39.567 17.249 39.3163 17.2751C39.5622 16.9794 39.6924 16.485 39.3822 16.3787C39.3773 16.3833 39.4657 16.9501 39.0495 17.3013C38.8646 17.3198 38.6766 17.3368 38.4837 17.3522C38.6203 17.2567 38.7103 17.1227 38.7103 16.9363C38.7103 16.8901 38.675 16.7869 38.6171 16.8269C38.6846 17.0595 38.2475 17.2674 37.889 17.3968C36.6033 17.4877 36.8154 17.7264 33.8629 17.7264C30.9104 17.7264 25.7882 17.0472 24.6358 16.4804C24.5908 16.5343 24.5667 16.2432 24.5667 16.6467C24.5667 17.0503 28.7375 18.2686 33.8629 18.2686C38.9884 18.2686 42.9004 17.1273 42.9004 16.7237L42.8988 16.7268Z" fill="white"/>
<path fill-rule="evenodd" clip-rule="evenodd" d="M38.7398 18.2313C38.7189 18.2144 37.9088 18.3592 37.229 18.5086C36.5491 18.658 36.001 18.8105 35.6426 18.983C35.2858 19.1555 35.1187 19.3496 34.9676 20.2152C34.9129 20.5294 34.8599 20.9314 34.8133 21.392L34.8583 21.3488C34.9965 21.2117 35.1251 21.0731 35.2504 20.933C35.2762 20.725 35.3019 20.5356 35.326 20.3723C35.4594 19.4682 35.5542 19.3095 35.8644 19.1401C36.1746 18.9707 36.7018 18.7905 37.3495 18.6102C37.9956 18.43 38.7623 18.2498 38.7398 18.2329L38.7398 18.2313Z" fill="white"/>
<path fill-rule="evenodd" clip-rule="evenodd" d="M35.0996 22.3887C35.0032 22.4842 34.9067 22.5781 34.8119 22.6659C34.7766 22.6998 34.7412 22.7322 34.7042 22.766L34.6978 22.8662C34.8135 22.9201 34.9325 22.9678 35.053 23.0079C35.0675 22.7968 35.0835 22.5904 35.0996 22.3887V22.3887Z" fill="white"/>
<path fill-rule="evenodd" clip-rule="evenodd" d="M28.7822 18.2313C28.7613 18.2483 29.5263 18.4285 30.1724 18.6087C30.8185 18.7889 31.3473 18.9691 31.6575 19.1386C31.9677 19.308 32.0625 19.4682 32.1959 20.3708C32.22 20.5325 32.2458 20.7173 32.2699 20.9222C32.3984 21.067 32.5302 21.2087 32.6717 21.3488L32.707 21.3843C32.6604 20.9268 32.6074 20.5279 32.5527 20.2152C32.4017 19.3496 32.2345 19.1555 31.8777 18.983C31.5209 18.8105 30.9712 18.658 30.2914 18.5086C29.6131 18.3592 28.8031 18.2144 28.7806 18.2313L28.7822 18.2313Z" fill="white"/>
<path fill-rule="evenodd" clip-rule="evenodd" d="M32.8178 22.7583C32.784 22.7275 32.7519 22.6967 32.7181 22.6659C32.6201 22.5735 32.5205 22.478 32.4208 22.3794C32.4385 22.5842 32.4546 22.7953 32.469 23.0094C32.5896 22.9693 32.7069 22.9231 32.8242 22.8692L32.8178 22.7568L32.8178 22.7583Z" fill="white"/>
<path fill-rule="evenodd" clip-rule="evenodd" d="M35.5146 20.9055C35.3715 21.0703 35.198 21.2613 34.9874 21.4692C34.9408 21.5154 34.8926 21.5632 34.8428 21.6094C34.8331 21.6248 34.8235 21.6417 34.8122 21.6587C34.7865 21.6818 34.7624 21.7049 34.7351 21.728C34.7447 21.711 34.7544 21.6972 34.764 21.6833C34.5824 21.8527 34.3863 22.0268 34.1854 22.19C33.9475 22.378 33.6952 22.5643 33.438 22.7353C33.0105 23.0033 32.636 23.1543 32.3371 23.2313C32.3339 23.2313 32.3323 23.2313 32.329 23.2328C31.9963 23.3021 31.7199 23.2929 31.5592 23.2759C31.4402 23.2497 31.376 23.2143 31.2972 23.2205C31.2924 23.2205 31.2876 23.2205 31.2827 23.222C31.1911 23.2159 31.0818 23.2405 31.0642 23.3838C31.0417 23.4407 31.0497 23.507 31.0883 23.5717C31.1059 23.6117 31.1365 23.6487 31.1831 23.6764L31.1895 23.681C31.3068 23.7488 31.7762 23.9937 32.8948 23.6641C33.1728 23.5824 33.4396 23.4577 33.6904 23.3067C33.6904 23.3114 33.6936 23.3144 33.7 23.316L33.7032 23.316C33.7964 23.259 33.8897 23.1958 33.9845 23.1281C33.9925 23.1188 33.999 23.1096 34.007 23.0988C34.1115 23.0249 34.2127 22.9463 34.3124 22.8662C34.3124 22.8693 34.3124 22.8708 34.3124 22.8739C34.412 22.7907 34.5117 22.703 34.6145 22.6075C34.6145 22.6075 34.6161 22.6044 34.6161 22.6028C34.6354 22.5844 34.6563 22.5659 34.6756 22.5474C34.6756 22.5474 34.6756 22.5505 34.674 22.5505L34.6852 22.5397L34.7431 22.4858C34.7431 22.4858 34.7463 22.4827 34.7463 22.4812C34.8186 22.4118 34.8894 22.3425 34.9585 22.2748C34.9585 22.2748 34.9585 22.2763 34.9585 22.2778C35.0758 22.1608 35.1915 22.0406 35.304 21.9205C35.304 21.919 35.304 21.9159 35.3056 21.9143C35.3474 21.8697 35.3876 21.8265 35.4262 21.7834C35.4262 21.7834 35.4262 21.785 35.4262 21.7865L35.4631 21.7464C35.4631 21.7464 35.4648 21.7418 35.4664 21.7403C35.5001 21.7049 35.5307 21.6694 35.5612 21.6371C35.7685 21.4138 35.9309 21.2151 36.0514 21.0456C36.0643 21.0271 36.0771 21.0102 36.09 20.9933C36.3664 20.6144 36.3937 20.448 36.3632 20.3556C36.3584 20.3356 36.3487 20.3186 36.3359 20.3063C36.2893 20.2462 36.2089 20.2385 36.1414 20.2539C36.0835 20.2678 36.0353 20.3001 35.9453 20.3972C35.836 20.5035 35.6882 20.676 35.513 20.9024L35.5146 20.9055Z" fill="white"/>
<path fill-rule="evenodd" clip-rule="evenodd" d="M34.5062 28.4727L34.1189 28.7514C34.1189 28.7514 34.1205 28.753 34.1221 28.7545C34.1253 28.7576 34.1301 28.7622 34.1382 28.7699C34.1639 28.7961 34.1912 28.8192 34.2169 28.8408C34.2941 28.9039 34.3744 28.9471 34.4387 28.9779C34.6846 29.1057 35.08 29.2397 35.6554 29.2258C36.0009 29.2181 36.2211 29.1796 36.3577 29.1273C36.3802 29.1242 36.3947 29.118 36.3995 29.1103C36.6149 29.0117 36.5779 28.8716 36.5281 28.7853C36.4477 28.6452 36.3288 28.5974 36.0749 28.7022C35.9752 28.7422 35.8643 28.7622 35.7502 28.7684C35.6506 28.7715 35.5332 28.7668 35.3966 28.7468C35.2616 28.7253 35.1378 28.6945 35.0478 28.6652C34.7521 28.5712 34.5078 28.4757 34.5078 28.4757L34.5062 28.4727Z" fill="white"/>
<path fill-rule="evenodd" clip-rule="evenodd" d="M33.5687 27.9459L33.5768 27.9412C33.5221 27.9043 33.4675 27.8658 33.4112 27.8257C33.4193 27.8334 33.4273 27.8411 33.4353 27.8488C33.3775 27.8057 33.3067 27.7549 33.2312 27.6963C33.228 27.6933 33.2248 27.6902 33.2232 27.6871C33.1316 27.6193 33.0432 27.55 32.9548 27.4807C32.8053 27.3606 32.659 27.2358 32.5497 27.1264C32.3199 26.8969 32.3151 26.9262 31.6481 26.1669L31.6015 26.1284C31.3074 25.9173 30.8541 26.2115 31.4809 26.7876C32.0226 27.2851 33.0335 28.2816 33.0335 28.2816L33.5977 27.9643C33.5977 27.9643 33.588 27.9566 33.5703 27.9443L33.5687 27.9459Z" fill="white"/>
<path fill-rule="evenodd" clip-rule="evenodd" d="M36.0946 26.0515C36.048 26.0885 35.9917 26.144 35.9114 26.2256C35.8471 26.2903 35.7683 26.3735 35.6751 26.469C35.4951 26.6399 35.2524 26.8679 34.9261 27.1652C34.9052 27.1852 34.8844 27.2037 34.8619 27.2221C34.8554 27.2283 34.8474 27.2329 34.841 27.2391C34.841 27.2391 34.841 27.2406 34.8394 27.2422C34.8088 27.2699 34.7783 27.2961 34.7461 27.3223C34.7493 27.3176 34.7542 27.3115 34.7574 27.3069C34.4697 27.5394 34.1466 27.7797 33.8332 27.9846C33.3768 28.2634 32.9364 28.4621 32.5571 28.5976C32.4928 28.6207 32.4317 28.6392 32.3723 28.6546C32.3208 28.6669 32.271 28.6777 32.2244 28.6869C32.1215 28.7054 32.0283 28.7177 31.9431 28.7224C31.7326 28.7331 31.5654 28.707 31.4497 28.6792C31.3308 28.6438 31.2665 28.6022 31.1861 28.6053C31.1652 28.6053 31.1427 28.6099 31.1202 28.6161C31.0511 28.6238 30.9852 28.6515 30.9466 28.7193C30.9466 28.7193 30.8936 28.784 30.9338 28.9241C30.9707 29.0551 31.0591 29.1136 31.514 29.1767C31.5092 29.1783 31.5092 29.1798 31.514 29.1814C31.522 29.1829 31.5413 29.1844 31.567 29.1844C31.5863 29.1875 31.6072 29.1891 31.6281 29.1921C32.1231 29.2553 32.7708 29.2168 33.5729 28.8641C33.5729 28.8641 33.5761 28.8656 33.5777 28.8671L33.5809 28.8671C33.6082 28.8533 33.6355 28.8394 33.6613 28.824C33.7304 28.7917 33.7995 28.7578 33.8702 28.7208C34.4231 28.4359 35.1367 27.7705 35.6671 27.2083C35.8503 27.025 36.011 26.8525 36.1316 26.7108C36.2601 26.5583 36.3421 26.4412 36.3919 26.3488C36.3919 26.3488 36.3935 26.3457 36.3935 26.3442C36.416 26.3057 36.4305 26.2687 36.4402 26.2364C36.4643 26.1624 36.4594 26.1116 36.445 26.0747C36.4096 25.9838 36.318 25.9638 36.2376 25.9776C36.2216 25.9807 36.2071 25.9838 36.191 25.9899C36.1573 25.9992 36.1251 26.0146 36.1059 26.0377C36.1026 26.0408 36.0994 26.0454 36.0946 26.05L36.0946 26.0515Z" fill="white"/>
<path fill-rule="evenodd" clip-rule="evenodd" d="M34.6495 31.4411L33.8571 29.9717L33.0648 31.4411L31.3627 31.7091L32.5762 32.8843L32.3158 34.5185L33.8571 33.7761L35.3985 34.5185L35.1381 32.8843L36.3516 31.7091L34.6495 31.4411Z" fill="white"/>
<path fill-rule="evenodd" clip-rule="evenodd" d="M34.8519 31.0003L34.9065 31.1019L37.1599 31.4562L35.5542 33.0134L35.723 34.0731C38.3412 33.6834 40.4145 32.4897 41.1426 30.9633C40.9192 31.0604 40.7906 31.0372 40.6572 30.5659C40.5254 30.1038 40.4579 29.4893 40.4418 28.7808C39.2975 29.9683 37.2515 30.8155 34.8503 31.0003L34.8519 31.0003Z" fill="white"/>
</g>
</g>
<defs>
<filter id="filter0_dd_1236_4373" x="0" y="0" width="68" height="71" filterUnits="userSpaceOnUse" color-interpolation-filters="sRGB">
<feFlood flood-opacity="0" result="BackgroundImageFix"/>
<feColorMatrix in="SourceAlpha" type="matrix" values="0 0 0 0 0 0 0 0 0 0 0 0 0 0 0 0 0 0 127 0" result="hardAlpha"/>
<feOffset dy="3"/>
<feGaussianBlur stdDeviation="1"/>
<feColorMatrix type="matrix" values="0 0 0 0 0.0901961 0 0 0 0 0.168627 0 0 0 0 0.301961 0 0 0 0.08 0"/>
<feBlend mode="normal" in2="BackgroundImageFix" result="effect1_dropShadow_1236_4373"/>
<feColorMatrix in="SourceAlpha" type="matrix" values="0 0 0 0 0 0 0 0 0 0 0 0 0 0 0 0 0 0 127 0" result="hardAlpha"/>
<feOffset/>
<feGaussianBlur stdDeviation="1"/>
<feColorMatrix type="matrix" values="0 0 0 0 0.0901961 0 0 0 0 0.168627 0 0 0 0 0.301961 0 0 0 0.04 0"/>
<feBlend mode="normal" in2="effect1_dropShadow_1236_4373" result="effect2_dropShadow_1236_4373"/>
<feBlend mode="normal" in="SourceGraphic" in2="effect2_dropShadow_1236_4373" result="shape"/>
</filter>
<clipPath id="clip0_1236_4373">
<rect width="46" height="48" fill="white" transform="translate(58 11) rotate(90)"/>
</clipPath>
</defs>
</svg>
