<svg width="68" height="71" viewBox="0 0 68 71" fill="none" xmlns="http://www.w3.org/2000/svg">
<g filter="url(#filter0_dd_1236_4365)">
<circle cx="34" cy="34" r="32" fill="#F8B1AB"/>
<circle cx="34" cy="34" r="31" stroke="white" stroke-width="2"/>
<g clip-path="url(#clip0_1236_4365)">
<path d="M14.1258 48.9201L13.3383 48.5515C12.7006 48.2535 12.2128 47.7311 12.2096 46.9074C12.2032 45.8018 13.1023 45.0679 14.5722 45.0583C15.1397 45.0583 15.8571 45.132 16.6096 45.3627L15.9687 47.0517L15.9464 47.0517L15.0377 45.4396C14.9676 45.3243 14.9325 45.2666 14.7699 45.2666L14.6073 45.2666C14.0971 45.2698 13.6731 45.539 13.6731 46.0838C13.6731 46.5966 14.0589 46.8369 14.7412 47.135L15.4841 47.4555C16.2015 47.7663 16.7722 48.1573 16.7754 49.0547C16.7786 50.3142 15.7296 50.9936 14.1928 51C13.5328 51 12.7229 50.8782 12.0629 50.6507L12.691 48.8464L12.7134 48.8464L13.6476 50.6443C13.6954 50.7372 13.7623 50.7949 13.8899 50.7949L14.1545 50.7949C14.8241 50.7917 15.2386 50.4392 15.2386 49.9392C15.2386 49.4617 14.8783 49.2662 14.1226 48.9233L14.1258 48.9201Z" fill="white"/>
<path d="M19.2663 47.7439L19.2663 47.7663C19.2727 49.2758 20.0411 49.8911 20.9307 49.8847C21.6257 49.8815 22.3049 49.5771 22.6843 48.8079L22.7066 48.8079C22.4133 50.2725 21.5141 50.9647 20.1622 50.9712C18.7051 50.9776 17.3246 50.1026 17.315 48.0548C17.3054 45.9043 18.6637 45.039 20.2037 45.0294C21.428 45.023 22.7385 45.5999 22.748 47.4683C22.748 47.5035 22.748 47.5837 22.7385 47.7247L19.2695 47.7407L19.2663 47.7439ZM19.2663 47.5356L20.9657 47.526C20.9753 47.3753 20.9753 47.2247 20.9753 47.1766C20.9689 45.6544 20.6533 45.2473 20.1814 45.2505C19.6043 45.2505 19.2823 45.8466 19.2663 47.5324L19.2663 47.5356Z" fill="white"/>
<path d="M32.9226 49.981C32.9226 50.1316 32.9354 50.1669 33.0406 50.2598L33.6113 50.7918L33.6113 50.8142L30.3751 50.8303L30.3751 50.8078L30.9171 50.2694C31.0096 50.1765 31.0319 50.1284 31.0319 50.0002C31.0319 49.8143 31.0574 48.2568 31.0542 47.6991C31.0479 46.6544 30.8852 45.9461 30.1551 45.9493C29.7852 45.9493 29.4728 46.1512 29.2432 46.4525C29.3134 46.7441 29.3516 47.0678 29.3516 47.4396C29.3548 48.1606 29.3357 49.0772 29.3293 49.997C29.3293 50.1476 29.3421 50.1829 29.4345 50.2758L30.0148 50.8078L30.0148 50.8303L26.7658 50.8463L26.7658 50.8238L27.3174 50.2854C27.4099 50.1925 27.4194 50.1444 27.4194 50.0162C27.4194 49.8432 27.445 48.2728 27.4418 47.7152C27.4354 46.6576 27.2728 45.9621 26.5554 45.9653C26.1855 45.9653 25.9081 46.1768 25.7009 46.4813L25.7168 50.013C25.7168 50.1637 25.7168 50.1989 25.8221 50.2918L26.3928 50.8238L26.3928 50.8463L23.1565 50.8623L23.1565 50.8399L23.7209 50.3015C23.8261 50.2085 23.8229 50.1733 23.8229 50.0226L23.8038 46.0006C23.8038 45.85 23.791 45.8147 23.6986 45.7089L23.1278 45.1321L23.1278 45.1096L25.6945 45.0968L25.7009 46.3275C25.9847 45.5134 26.5968 44.9975 27.5342 44.9943C28.3887 44.9911 28.969 45.4654 29.2177 46.3563C29.4792 45.5872 30.171 44.9814 31.1435 44.975C32.2881 44.9686 32.9386 45.8147 32.9481 47.4203C32.9513 48.1863 32.9322 49.058 32.9258 49.9778L32.9226 49.981Z" fill="white"/>
<path d="M38.8869 47.7086L38.8263 49.3591C38.804 49.8142 38.9092 50.0321 39.142 50.0321C39.2918 50.0321 39.3971 49.9616 39.464 49.8206L39.4863 49.8206C39.4863 49.9264 39.464 50.0994 39.3971 50.2405C39.2153 50.625 38.8231 50.8814 38.2684 50.8846C37.6084 50.8846 37.0408 50.4968 37.0026 49.7629C36.773 50.4392 36.1863 50.8942 35.4339 50.8974C34.5889 50.9007 33.8588 50.3366 33.8524 49.2662C33.846 48.1157 34.8376 47.5067 35.7878 47.5003C36.2852 47.5003 36.7028 47.5901 37.0153 47.808L37.0313 46.5645L37.0313 46.5068C37.0281 45.7056 36.7826 45.1704 36.18 45.1736C35.9472 45.1736 35.9376 45.1864 35.8675 45.3146L34.9397 47.0613L34.9173 47.0613L34.1808 45.4044C34.9556 45.1224 35.775 44.9557 36.5147 44.9525C37.2895 44.9493 37.8921 45.0839 38.3098 45.4781C38.6829 45.8242 38.8933 46.3947 38.8965 47.2888C38.8965 47.4042 38.8869 47.6734 38.8869 47.7086V47.7086ZM35.6571 49.0611C35.6571 49.6988 35.9504 50.0482 36.3426 50.045C36.5976 50.045 36.8495 49.8687 36.9994 49.6347L36.9994 49.6219L37.0153 47.9234C36.875 47.8785 36.7379 47.8561 36.5881 47.8561C35.9855 47.8561 35.6539 48.3849 35.6571 49.0579L35.6571 49.0611Z" fill="white"/>
<path d="M42.3577 45.0197L42.38 49.9359C42.38 50.0865 42.38 50.1218 42.4852 50.2147L43.0527 50.7467L43.0527 50.7691L39.8165 50.7852L39.8165 50.7627L40.3808 50.2243C40.4861 50.1314 40.4829 50.0961 40.4829 49.9455L40.4637 45.9234C40.4637 45.7728 40.451 45.7376 40.3585 45.6318L39.7878 45.0549L39.7878 45.0325L42.3545 45.0197L42.3577 45.0197ZM40.4414 43.5294C40.4414 42.9718 40.8655 42.6193 41.3629 42.6193C41.8826 42.6193 42.3003 42.9622 42.3035 43.5198C42.3035 44.0422 41.8922 44.3819 41.3724 44.3851C40.8751 44.3851 40.4446 44.0518 40.4446 43.5294L40.4414 43.5294Z" fill="white"/>
<path d="M49.5821 49.9008C49.5821 50.0514 49.5948 50.0867 49.6873 50.1796L50.2676 50.7116L50.2676 50.7341L47.0186 50.7501L47.0186 50.7277L47.5702 50.1892C47.6627 50.0963 47.6722 50.0482 47.6722 49.92C47.6722 49.747 47.6977 48.1766 47.6945 47.619C47.6882 46.5614 47.5255 45.8659 46.8082 45.8691C46.4383 45.8691 46.1609 46.0807 45.9537 46.3851L45.9696 49.9168C45.9696 50.0675 45.9696 50.1027 46.0748 50.1957L46.6455 50.7277L46.6455 50.7501L43.4093 50.7661L43.4093 50.7437L43.9737 50.2053C44.0789 50.1123 44.0757 50.0771 44.0757 49.9264L44.0566 45.9044C44.0566 45.7538 44.0438 45.7185 43.9513 45.6128L43.3806 45.0359L43.3806 45.0135L45.9473 45.0006L45.9537 46.2313C46.2374 45.4173 46.8496 44.9013 47.787 44.8981C48.9444 44.8917 49.5948 45.7377 49.6012 47.3434C49.6044 48.0644 49.5853 48.981 49.5789 49.9008L49.5821 49.9008Z" fill="white"/>
<path d="M52.4863 47.5867L52.4863 47.6091C52.4927 49.1186 53.2611 49.7339 54.1506 49.7275C54.8457 49.7243 55.5248 49.4198 55.9043 48.6507L55.9266 48.6507C55.6301 50.1153 54.7341 50.8075 53.379 50.8139C51.9219 50.8203 50.5414 49.9454 50.5318 47.8975C50.5222 45.7471 51.8805 44.8818 53.4205 44.8722C54.6448 44.8658 55.9553 45.4426 55.9648 47.3111C55.9648 47.3463 55.9648 47.4264 55.9553 47.5674L52.4863 47.5835L52.4863 47.5867ZM52.4863 47.3784L54.1857 47.3687C54.1953 47.2181 54.1953 47.0675 54.1953 47.0194C54.1889 45.4971 53.8732 45.0901 53.4014 45.0933C52.8243 45.0933 52.5022 45.6894 52.4863 47.3752L52.4863 47.3784Z" fill="white"/>
<path d="M19.452 17.0002C19.452 25.0764 25.9659 31.6206 33.9975 31.6206C42.0291 31.6206 48.543 25.0731 48.543 17.0002" fill="white"/>
<path d="M27.4346 41.5811C27.4346 37.9372 30.3743 34.9823 33.9995 34.9823C37.6247 34.9823 40.5645 37.9372 40.5645 41.5811" fill="white"/>
<path d="M42.873 41.5811L42.6307 41.5811C42.6307 36.7962 38.76 32.9056 33.9997 32.9056C29.2394 32.9056 25.3687 36.7962 25.3687 41.5811L25.1264 41.5811C25.1264 36.6616 29.1055 32.662 33.9997 32.662C38.8939 32.662 42.873 36.6616 42.873 41.5811Z" fill="white"/>
<path d="M45.0605 41.5811L44.8182 41.5811C44.8182 35.5848 39.9655 30.7071 34 30.7071C28.0345 30.7071 23.1817 35.5848 23.1817 41.5811L22.9394 41.5811C22.9394 35.4502 27.9005 30.4635 34 30.4635C40.0994 30.4635 45.0605 35.4502 45.0605 41.5811V41.5811Z" fill="white"/>
<path d="M47.248 41.5811L47.0057 41.5811C47.0057 34.3734 41.1709 28.5086 34.0002 28.5086C26.8295 28.5086 20.9947 34.3734 20.9947 41.5811L20.7524 41.5811C20.7524 34.2388 26.6956 28.265 34.0002 28.265C41.3049 28.265 47.248 34.2388 47.248 41.5811V41.5811Z" fill="white"/>
<path d="M49.435 41.5811L49.1927 41.5811C49.1927 33.1588 42.3759 26.3101 34 26.3101C25.6208 26.3101 18.8072 33.162 18.8072 41.5811L18.5649 41.5811C18.5649 33.0242 25.4901 26.0633 34.0031 26.0633C42.5162 26.0633 49.4414 33.0242 49.4414 41.5811L49.435 41.5811Z" fill="white"/>
<path d="M51.625 41.5811L51.3827 41.5811C51.3827 31.9473 43.5838 24.1083 33.9995 24.1083C24.4151 24.1083 16.6163 31.9473 16.6163 41.5811L16.374 41.5811C16.374 31.8127 24.2812 23.8648 33.9995 23.8648C43.7178 23.8648 51.625 31.8127 51.625 41.5811V41.5811Z" fill="white"/>
<path d="M53.8125 41.5811L53.5702 41.5811C53.5702 30.7359 44.7925 21.9098 33.9997 21.9098C23.2102 21.9098 14.4293 30.7327 14.4293 41.5811L14.187 41.5811C14.187 30.6013 23.0763 21.6663 33.9997 21.6663C44.9232 21.6663 53.8125 30.6013 53.8125 41.5811V41.5811Z" fill="white"/>
<path d="M56 41.5811L55.7577 41.5811C55.7577 29.5213 45.998 19.7113 34 19.7113C22.002 19.7113 12.2423 29.5213 12.2423 41.5811L12 41.5811C12 29.3867 21.8681 19.4678 34 19.4678C46.1319 19.4646 56 29.3867 56 41.5811Z" fill="white"/>
</g>
</g>
<defs>
<filter id="filter0_dd_1236_4365" x="0" y="0" width="68" height="71" filterUnits="userSpaceOnUse" color-interpolation-filters="sRGB">
<feFlood flood-opacity="0" result="BackgroundImageFix"/>
<feColorMatrix in="SourceAlpha" type="matrix" values="0 0 0 0 0 0 0 0 0 0 0 0 0 0 0 0 0 0 127 0" result="hardAlpha"/>
<feOffset dy="3"/>
<feGaussianBlur stdDeviation="1"/>
<feColorMatrix type="matrix" values="0 0 0 0 0.0901961 0 0 0 0 0.168627 0 0 0 0 0.301961 0 0 0 0.08 0"/>
<feBlend mode="normal" in2="BackgroundImageFix" result="effect1_dropShadow_1236_4365"/>
<feColorMatrix in="SourceAlpha" type="matrix" values="0 0 0 0 0 0 0 0 0 0 0 0 0 0 0 0 0 0 127 0" result="hardAlpha"/>
<feOffset/>
<feGaussianBlur stdDeviation="1"/>
<feColorMatrix type="matrix" values="0 0 0 0 0.0901961 0 0 0 0 0.168627 0 0 0 0 0.301961 0 0 0 0.04 0"/>
<feBlend mode="normal" in2="effect1_dropShadow_1236_4365" result="effect2_dropShadow_1236_4365"/>
<feBlend mode="normal" in="SourceGraphic" in2="effect2_dropShadow_1236_4365" result="shape"/>
</filter>
<clipPath id="clip0_1236_4365">
<rect width="44" height="34" fill="white" transform="translate(56 51) rotate(-180)"/>
</clipPath>
</defs>
</svg>
