<svg width="68" height="71" viewBox="0 0 68 71" fill="none" xmlns="http://www.w3.org/2000/svg">
<g filter="url(#filter0_dd_1236_4580)">
<circle cx="34" cy="34" r="32" fill="#D7877C"/>
<circle cx="34" cy="34" r="31" stroke="white" stroke-width="2"/>
<path d="M38.425 25.5229H35.9648V25.632C36.2498 25.632 36.4908 25.8175 36.6799 26.183L36.9648 26.7694V33.607C36.9018 33.8879 36.6114 34.9734 35.9648 34.957V35.0661H37.9921V34.957C37.3456 34.9734 37.0552 33.8879 36.9922 33.607V26.8294L40.9837 35.0689H41.0961L42.0686 33.0478L42.0111 32.9251L38.425 25.5257V25.5229Z" fill="white"/>
<path d="M47.1601 26.1148C47.3437 25.7902 47.5711 25.632 47.8341 25.632V25.5229H45.5794L45.0479 26.6221V33.2933C45.0479 33.7597 44.9548 34.1524 44.7712 34.477C44.5794 34.7988 44.3521 34.957 44.0918 34.957V35.0661H47.8341V34.957C47.5711 34.957 47.3437 34.7988 47.1601 34.477C46.9683 34.1524 46.8752 33.7624 46.8752 33.2933V27.2985C46.8752 26.8321 46.9683 26.4394 47.1601 26.1148V26.1148Z" fill="white"/>
<path d="M12.2858 34.7307C12.4831 34.8807 12.6694 34.957 12.8447 34.957V35.0661H10.0723V34.957C10.3353 34.957 10.6311 34.7988 10.9654 34.4825C11.2695 34.1879 11.5242 33.8279 11.7242 33.4024L11.7872 33.9124C11.8229 34.2425 11.9845 34.5179 12.2831 34.7307H12.2858ZM15.0501 25.5229H15.1624L18.4389 33.3015C18.6444 33.7761 18.8937 34.1688 19.1759 34.4852C19.4526 34.8016 19.6991 34.9598 19.9128 34.9598V35.0689H15.913V34.9598C16.176 34.9598 16.3678 34.7743 16.4938 34.3952C16.5431 34.237 16.5705 34.0788 16.5705 33.907C16.5705 33.6588 16.513 33.3915 16.4062 33.1024L15.9952 32.126L15.9459 32.0169H15.9541L14.1899 27.8276L14.1405 27.6831L15.0473 25.5229H15.0501Z" fill="white"/>
<path d="M23.9706 40.7192C24.0583 40.8529 24.1021 41.0029 24.1021 41.172C24.1021 41.3602 24.0473 41.5293 23.9405 41.6793C23.8309 41.8293 23.6747 41.9356 23.472 41.9984C23.3378 42.042 23.1542 42.0611 22.9213 42.0611C22.5898 42.0611 22.3542 42.0529 22.2145 42.0393L21.9707 42.012V38.8428H23.0063C23.1515 38.8428 23.2802 38.8619 23.3925 38.9028C23.5706 38.9628 23.7103 39.061 23.809 39.1946C23.9076 39.3283 23.9569 39.4864 23.9569 39.6692C23.9569 39.8083 23.9268 39.9337 23.8692 40.0401C23.8117 40.1465 23.7213 40.2283 23.598 40.2856C23.5651 40.3019 23.5186 40.3183 23.4556 40.3347C23.535 40.3538 23.5843 40.3674 23.6062 40.381C23.7596 40.471 23.8802 40.5856 23.9679 40.7192H23.9706ZM22.2501 39.0964V40.2337H22.998C23.198 40.2337 23.3624 40.1847 23.4857 40.0837C23.609 39.9828 23.672 39.8383 23.672 39.6501C23.672 39.4837 23.6199 39.3528 23.5131 39.2601C23.409 39.1673 23.2583 39.1128 23.0693 39.0991H22.2501V39.0964ZM23.5925 41.6465C23.7432 41.5374 23.8199 41.3793 23.8199 41.172C23.8199 40.9647 23.7514 40.8065 23.6117 40.6783C23.4747 40.5501 23.2802 40.4874 23.0337 40.4874H22.2529V41.7884L22.6529 41.802L22.9679 41.8102C23.2336 41.8102 23.4446 41.7556 23.5953 41.6465H23.5925Z" fill="white"/>
<path d="M26.6484 38.8901H28.7168V39.1465H26.9306V40.2347H28.2456V40.4911H26.9306V41.7621H28.81V42.0185H26.6484V38.8929V38.8901Z" fill="white"/>
<path d="M32.346 38.8042H32.4364L33.8199 42.0143H33.5185L33.061 40.9779H31.7186L31.2721 42.0143H30.9707L32.346 38.8042ZM32.5049 39.6524C32.4556 39.5297 32.4145 39.4124 32.3871 39.2951C32.3487 39.4397 32.3131 39.557 32.2747 39.6524L31.8309 40.7216H32.9459L32.5021 39.6524H32.5049Z" fill="white"/>
<path d="M36.7648 41.8957C36.5812 41.7866 36.4415 41.6366 36.3401 41.443C36.2388 41.2521 36.1895 41.0339 36.1895 40.7939V38.8901H36.4716V40.7939C36.4716 40.9984 36.5127 41.1757 36.5922 41.3284C36.6716 41.4812 36.7839 41.5984 36.9264 41.683C37.0689 41.7675 37.2278 41.8085 37.4031 41.8085C37.5784 41.8085 37.7428 41.7675 37.8825 41.683C38.025 41.5984 38.1345 41.4812 38.2113 41.3257C38.2907 41.173 38.3291 40.9957 38.3291 40.7939V38.8901H38.6112V40.7939C38.6112 41.0475 38.5592 41.2684 38.4523 41.4621C38.3482 41.653 38.203 41.8003 38.0167 41.9039C37.8305 42.0076 37.6222 42.0594 37.3894 42.0594C37.1565 42.0594 36.9401 42.0048 36.7593 41.8957H36.7648Z" fill="white"/>
<path d="M42.0876 39.1465H40.9863V38.8901H43.4739V39.1465H42.3725V42.0157H42.0904V39.1465H42.0876Z" fill="white"/>
<path d="M45.7546 39.1826C45.7272 39.1308 45.6724 39.1063 45.5957 39.1063V38.8472C45.6888 38.8472 45.7683 38.8635 45.8313 38.899C45.8943 38.9344 45.9464 38.989 45.9902 39.0654L46.7244 40.3636L47.5682 38.8881H47.8887L46.8669 40.65L46.8751 42.0164H46.5874V40.6609L45.7546 39.1854V39.1826Z" fill="white"/>
<path d="M24.3801 25.5229H21.9199V25.632C22.2048 25.632 22.4459 25.8175 22.635 26.183L22.9199 26.7694V33.607C22.8569 33.8879 22.5665 34.9734 21.9199 34.957V35.0661H23.9472V34.957C23.3007 34.9734 23.0103 33.8879 22.9473 33.607V26.8294L26.9388 35.0689H27.0511L28.0237 33.0478L27.9662 32.9251L24.3801 25.5257V25.5229Z" fill="white"/>
<path d="M33.1133 26.1148C33.2968 25.7902 33.5242 25.632 33.7872 25.632V25.5229H31.5325L31.001 26.6221V33.2933C31.001 33.7597 30.9079 34.1524 30.7243 34.477C30.5326 34.7988 30.3052 34.957 30.0449 34.957V35.0661H33.7872V34.957C33.5242 34.957 33.2968 34.7988 33.1133 34.477C32.9215 34.1524 32.8283 33.7624 32.8283 33.2933V27.2985C32.8283 26.8321 32.9215 26.4394 33.1133 26.1148V26.1148Z" fill="white"/>
<path d="M55.1792 25.5213V25.6304C55.4422 25.6304 55.6696 25.7886 55.8532 26.1049C56.045 26.4268 56.1381 26.8195 56.1381 27.2886V31.257C56.1381 32.0343 56.045 32.6943 55.8696 33.2453C55.6915 33.7962 55.4148 34.2353 55.0258 34.5735C54.6368 34.9117 54.1245 35.0835 53.4944 35.0835C53.4067 35.0835 53.3437 35.0863 53.2972 35.0917C52.7657 35.059 52.0178 34.9254 51.4644 34.4862C50.9904 34.1099 50.7219 33.5698 50.6726 32.8798C50.5658 31.4125 50.637 28.4123 50.6781 27.0514C50.7302 26.765 50.974 25.6304 51.6781 25.6277V25.5186H49.6562V25.6277C50.3357 25.6277 50.5877 26.6913 50.6507 27.0186C50.6096 28.366 50.5384 31.4016 50.6452 32.8825C50.6973 33.5808 50.9658 34.129 51.4479 34.5081C51.9794 34.9281 52.6807 35.0672 53.2095 35.1108C53.1958 35.1381 53.4697 35.179 53.9875 35.179C54.8587 35.179 55.5957 35.0481 56.1847 34.7863C56.7737 34.5244 57.2202 34.1044 57.5188 33.5289C57.8229 32.9589 57.9736 32.2007 57.9736 31.2597V27.2914C57.9736 26.825 58.0668 26.4322 58.2503 26.1077C58.4421 25.7913 58.6695 25.6331 58.9297 25.6331V25.524H55.1875L55.1792 25.5213Z" fill="white"/>
</g>
<defs>
<filter id="filter0_dd_1236_4580" x="0" y="0" width="68" height="71" filterUnits="userSpaceOnUse" color-interpolation-filters="sRGB">
<feFlood flood-opacity="0" result="BackgroundImageFix"/>
<feColorMatrix in="SourceAlpha" type="matrix" values="0 0 0 0 0 0 0 0 0 0 0 0 0 0 0 0 0 0 127 0" result="hardAlpha"/>
<feOffset dy="3"/>
<feGaussianBlur stdDeviation="1"/>
<feColorMatrix type="matrix" values="0 0 0 0 0.0901961 0 0 0 0 0.168627 0 0 0 0 0.301961 0 0 0 0.08 0"/>
<feBlend mode="normal" in2="BackgroundImageFix" result="effect1_dropShadow_1236_4580"/>
<feColorMatrix in="SourceAlpha" type="matrix" values="0 0 0 0 0 0 0 0 0 0 0 0 0 0 0 0 0 0 127 0" result="hardAlpha"/>
<feOffset/>
<feGaussianBlur stdDeviation="1"/>
<feColorMatrix type="matrix" values="0 0 0 0 0.0901961 0 0 0 0 0.168627 0 0 0 0 0.301961 0 0 0 0.04 0"/>
<feBlend mode="normal" in2="effect1_dropShadow_1236_4580" result="effect2_dropShadow_1236_4580"/>
<feBlend mode="normal" in="SourceGraphic" in2="effect2_dropShadow_1236_4580" result="shape"/>
</filter>
</defs>
</svg>
