<svg width="136" height="136" viewBox="0 0 136 136" fill="none" xmlns="http://www.w3.org/2000/svg">
<path d="M27.8028 91.2923L27.3721 90.576L23.3828 92.9787L23.8361 93.7312C24.0265 94.044 24.2487 94.2979 24.5071 94.4974C24.7655 94.6923 25.0375 94.8283 25.3276 94.9008C25.6132 94.9734 25.9079 94.987 26.2116 94.9371C26.5153 94.8918 26.8055 94.783 27.082 94.6153C27.3676 94.443 27.6033 94.239 27.7937 93.9942C27.9841 93.7539 28.1111 93.4864 28.1836 93.2008C28.2561 92.9152 28.2607 92.607 28.2017 92.2851C28.1428 91.9633 28.0113 91.6323 27.8073 91.2878L27.8028 91.2923Z" fill="#36B37E"/>
<path d="M42.6401 25.6364C42.5313 25.4687 42.4043 25.3327 42.2593 25.2284C42.1142 25.1242 41.9555 25.0562 41.7878 25.0199C41.6201 24.9836 41.4433 24.9882 41.2619 25.0199C41.0806 25.0562 40.9038 25.1332 40.7315 25.242L39.5801 25.981L41.0398 28.2567L42.1913 27.5178C42.3635 27.4044 42.5086 27.2775 42.6174 27.1279C42.7262 26.9783 42.8033 26.8196 42.8395 26.6519C42.8803 26.4842 42.8803 26.3119 42.8486 26.1396C42.8169 25.9628 42.7443 25.7951 42.6401 25.6319V25.6364Z" fill="#36B37E"/>
<path d="M70.5068 114.366L69.0742 114.439L69.1966 116.837L70.6292 116.764C70.8604 116.751 71.0598 116.71 71.2276 116.633C71.3953 116.556 71.5313 116.461 71.6356 116.343C71.7398 116.225 71.8214 116.089 71.8668 115.935C71.9121 115.781 71.9302 115.627 71.9212 115.468C71.903 115.11 71.7761 114.829 71.5404 114.629C71.3046 114.43 70.9601 114.339 70.5068 114.362V114.366Z" fill="#36B37E"/>
<path d="M78.5898 21.865L80.6298 22.3818L80.3216 19.3218L78.5898 21.865Z" fill="#36B37E"/>
<path d="M51.9233 23.474L49.906 21.1575L49.9604 24.2356L51.9233 23.474Z" fill="#36B37E"/>
<path d="M103.936 39.2862C104.145 39.5446 104.385 39.7486 104.657 39.8891C104.929 40.0342 105.215 40.1203 105.514 40.1475C105.813 40.1747 106.112 40.1475 106.407 40.0568C106.702 39.9707 106.974 39.8256 107.223 39.6262C107.477 39.4222 107.676 39.1864 107.826 38.9144C107.976 38.6424 108.066 38.3614 108.107 38.0667C108.143 37.772 108.125 37.4728 108.044 37.1736C107.962 36.8744 107.821 36.5934 107.617 36.3395C107.413 36.0856 107.173 35.8862 106.901 35.7456C106.625 35.6051 106.339 35.519 106.044 35.4918C105.75 35.4646 105.455 35.4918 105.156 35.5824C104.857 35.6731 104.585 35.8136 104.331 36.0176C104.081 36.2171 103.882 36.4528 103.732 36.7203C103.583 36.9878 103.488 37.2734 103.447 37.568C103.406 37.8627 103.429 38.1619 103.506 38.4566C103.583 38.7512 103.728 39.0278 103.932 39.2862H103.936Z" fill="#36B37E"/>
<path d="M112.042 47.9129C112.173 48.0353 112.318 48.126 112.468 48.1804C112.618 48.2348 112.772 48.2529 112.93 48.2348C113.089 48.2167 113.239 48.1759 113.384 48.1079C113.71 47.9537 113.919 47.7271 114.014 47.4324C114.109 47.1377 114.059 46.7841 113.864 46.3761L113.248 45.0796L111.076 46.1132L111.693 47.4097C111.792 47.6183 111.91 47.786 112.042 47.9129V47.9129Z" fill="#36B37E"/>
<path d="M68 0C30.4459 0 0 30.4459 0 68C0 105.554 30.4459 136 68 136C105.554 136 136 105.554 136 68C136 30.4459 105.554 0 68 0ZM115.083 45.9227C115.265 46.2989 115.364 46.6661 115.396 47.0197C115.423 47.3733 115.387 47.6997 115.283 48.0035C115.178 48.3072 115.02 48.5792 114.802 48.8149C114.585 49.0552 114.322 49.2501 114.009 49.3952C113.596 49.5901 113.166 49.6717 112.721 49.6355C112.277 49.5992 111.874 49.4451 111.515 49.164L109.725 51.6029L109.049 50.1795L110.618 48.1395L109.915 46.6616L107.843 47.6453L107.241 46.376L113.818 43.2525L115.083 45.9181V45.9227ZM103.451 34.9112C103.854 34.5893 104.294 34.3581 104.77 34.2267C105.241 34.0952 105.717 34.0544 106.193 34.1043C106.669 34.1541 107.123 34.2947 107.558 34.5259C107.993 34.7571 108.374 35.0744 108.696 35.4779C109.018 35.8813 109.249 36.3256 109.38 36.8016C109.512 37.2776 109.548 37.7536 109.494 38.2296C109.439 38.7056 109.294 39.1589 109.063 39.5941C108.832 40.0293 108.514 40.4101 108.111 40.732C107.707 41.0539 107.268 41.2851 106.792 41.4165C106.32 41.548 105.844 41.5888 105.368 41.5344C104.892 41.48 104.434 41.3395 103.995 41.1037C103.555 40.8725 103.174 40.5507 102.852 40.1472C102.53 39.7437 102.304 39.304 102.172 38.828C102.041 38.352 102.005 37.876 102.059 37.4045C102.113 36.9285 102.258 36.4752 102.49 36.0445C102.721 35.6093 103.043 35.2331 103.446 34.9112H103.451ZM97.9064 26.9733L98.7269 25.9669L102.925 29.3896L102.104 30.396L100.549 29.1312L96.7685 33.7688L95.6941 32.8939L99.4749 28.2563L97.9064 26.9779V26.9733ZM68.4715 15.9619L73.1544 16.2067L73.0864 17.5395L69.8179 17.3672L69.7317 19.0491L73.0003 19.2213L72.9323 20.536L69.6637 20.3637L69.5096 23.3013L68.0952 23.2288L68.476 15.9573L68.4715 15.9619ZM29.0133 33.5149L30.0469 34.3445L27.8619 37.0645L29.1357 38.0891L31.3208 35.3691L32.3544 36.1987L30.1693 38.9187L31.4613 39.9568L33.6464 37.2368L34.6891 38.0755L31.62 41.8925L25.9443 37.332L29.0133 33.5149ZM20.876 45.968L23.4963 47.2872L24.82 44.6579L22.1997 43.3387L22.8299 42.0829L29.3352 45.356L28.7051 46.6117L26.0485 45.2744L24.7248 47.9037L27.3813 49.2411L26.7467 50.5059L20.2413 47.2328L20.876 45.968V45.968ZM18.7408 55.9776L18.2376 57.936L16.9819 57.6141L18.3328 52.3691L19.5885 52.6909L19.0899 54.6312L24.8835 56.1227L24.5389 57.4645L18.7453 55.9731L18.7408 55.9776ZM27.8211 95.8347C27.3768 96.1021 26.9144 96.2699 26.4339 96.3379C25.9533 96.4059 25.4909 96.3787 25.0421 96.2563C24.5933 96.1339 24.1717 95.9253 23.7728 95.6307C23.3739 95.336 23.0384 94.9507 22.7573 94.4837L21.5288 92.4437L27.7667 88.6901L28.9816 90.7075C29.2808 91.2016 29.4712 91.7003 29.5528 92.1989C29.6344 92.6976 29.6208 93.1691 29.512 93.6224C29.4032 94.0757 29.2037 94.4883 28.9181 94.8691C28.6325 95.2499 28.2653 95.5763 27.8211 95.8437V95.8347ZM28.9861 103.011L34.3355 98.0741L35.3011 99.1213L29.9517 104.058L28.9861 103.011V103.011ZM42.2144 106.742L39.5896 104.788L38.5832 106.139L41.208 108.093L40.4237 109.149L37.7989 107.195L36.0445 109.557L34.9067 108.709L39.2496 102.866L43.0123 105.663L42.2144 106.737V106.742ZM44.2136 26.8509C44.1411 27.1864 44.0051 27.4992 43.7965 27.7984C43.588 28.0976 43.3115 28.356 42.9669 28.5781L41.7475 29.3579L42.8173 31.0307L41.6251 31.7968L37.6992 25.6677L40.1155 24.1173C40.4555 23.8997 40.8045 23.7547 41.1627 23.6912C41.5208 23.6232 41.8608 23.6277 42.1917 23.7003C42.5227 23.7728 42.8309 23.9088 43.1165 24.1083C43.4021 24.3077 43.6424 24.5616 43.8419 24.8699C44.0368 25.1736 44.1637 25.4955 44.2272 25.84C44.2907 26.1845 44.2861 26.52 44.2136 26.8555V26.8509ZM51.4851 111.52L48.4931 110.201L47.8131 111.742L50.8051 113.061L50.2747 114.267L47.2827 112.948L46.0995 115.641L44.8029 115.07L47.736 108.406L52.0245 110.296L51.4851 111.52ZM53.7517 25.5635L52.8269 24.4981L49.9891 25.5952L50.0208 27.0051L48.6699 27.5264L48.6109 19.7427L49.9029 19.244L55.0936 25.0421L53.7427 25.5635H53.7517ZM61.8256 114.122L58.3939 113.478L58.0901 115.088L61.5219 115.731L61.2771 117.037L57.8453 116.393L57.5416 118.021L60.9733 118.665L60.7285 119.979L55.9141 119.077L57.256 111.923L62.0704 112.826L61.8256 114.131V114.122ZM62.9272 23.5461L60.6379 20.2504L59.704 21.8235L60.0304 23.9813L58.6296 24.1899L57.5461 16.9909L58.9469 16.7824L59.4501 20.128L61.6488 16.3789L63.308 16.1296L61.5128 19.1443L64.4685 23.3195L62.9317 23.5507L62.9272 23.5461ZM72.1797 120.274L70.8968 118.043L69.2648 118.125L69.3781 120.414L67.9728 120.487L67.6056 113.215L70.5523 113.066C70.9693 113.043 71.3456 113.089 71.6811 113.197C72.0165 113.306 72.3021 113.469 72.5424 113.678C72.7827 113.891 72.9731 114.14 73.1091 114.435C73.2451 114.73 73.3267 115.047 73.3403 115.391C73.3629 115.849 73.2723 116.275 73.0683 116.674C72.8643 117.069 72.5651 117.382 72.1707 117.608L73.7392 120.197L72.1661 120.278L72.1797 120.274ZM77.0395 24.1581L75.6387 23.8045L80.0904 17.4171L81.4368 17.7571L82.3253 25.4909L80.9245 25.1373L80.784 23.732L77.8328 22.9885L77.044 24.1581H77.0395ZM80.6435 118.941L78.5717 111.964L83.2683 110.568L83.6445 111.837L80.2989 112.83L80.7659 114.399L84.1115 113.406L84.4877 114.675L81.1421 115.668L81.6136 117.255L84.9592 116.262L85.34 117.545L80.648 118.941H80.6435ZM87.1533 27.3541C86.836 26.9733 86.6048 26.5563 86.4643 26.1075C86.3237 25.6587 86.2739 25.1872 86.3147 24.7021C86.3555 24.2171 86.4915 23.7411 86.7272 23.2787C86.9675 22.8027 87.2757 22.4083 87.6475 22.0864C88.0237 21.7645 88.4363 21.5333 88.8851 21.3837C89.3384 21.2341 89.8053 21.1797 90.2949 21.216C90.7845 21.2523 91.2651 21.3883 91.7411 21.6285C92.0493 21.7827 92.3259 21.9731 92.5752 22.1952C92.8245 22.4173 93.0331 22.6621 93.2099 22.9296C93.3821 23.1971 93.5227 23.4781 93.6224 23.7819C93.7221 24.0856 93.7856 24.3893 93.8037 24.7067L92.3485 24.8427C92.3485 24.4165 92.2443 24.0312 92.0448 23.6867C91.8408 23.3421 91.5371 23.0656 91.1291 22.8616C90.8344 22.712 90.5307 22.6259 90.2224 22.6077C89.9141 22.5896 89.6195 22.6304 89.3429 22.7256C89.0619 22.8208 88.8035 22.9749 88.5723 23.1789C88.3365 23.3829 88.1461 23.6323 88.0011 23.9224C87.856 24.208 87.7699 24.5027 87.7427 24.8109C87.7155 25.1192 87.7427 25.4139 87.8333 25.6949C87.9195 25.976 88.06 26.2389 88.2549 26.4747C88.4499 26.7104 88.6947 26.9053 88.9893 27.0549C89.4336 27.2816 89.8688 27.3587 90.2949 27.2952C90.7211 27.2317 91.1019 27.0595 91.4419 26.7875L92.2805 27.9843C92.004 28.1883 91.7093 28.3515 91.3965 28.4739C91.0792 28.5963 90.7573 28.6733 90.4219 28.7096C90.0864 28.7413 89.7464 28.7277 89.4019 28.6643C89.0528 28.6008 88.7128 28.4829 88.3728 28.3107C87.8787 28.0613 87.4752 27.7485 87.1579 27.3677L87.1533 27.3541ZM96.152 112.259L90.7075 109.543L93.3232 113.941L92.1491 114.639L88.4272 108.378L89.7237 107.608L95.0005 110.237L92.4664 105.976L93.6315 105.282L97.3488 111.543L96.1475 112.254L96.152 112.259ZM106.937 102.476C106.869 102.802 106.755 103.124 106.588 103.437C106.425 103.75 106.211 104.045 105.949 104.317C105.563 104.715 105.142 105.006 104.688 105.196C104.23 105.386 103.763 105.482 103.292 105.482C102.821 105.482 102.358 105.391 101.905 105.21C101.451 105.028 101.039 104.756 100.667 104.394C100.286 104.022 99.9963 103.614 99.8013 103.161C99.6064 102.707 99.5021 102.245 99.4976 101.769C99.4885 101.293 99.5747 100.83 99.7515 100.373C99.9283 99.9147 100.205 99.4976 100.572 99.1123C100.812 98.8629 101.075 98.6544 101.361 98.4821C101.646 98.3099 101.946 98.1829 102.249 98.0923C102.558 98.0061 102.866 97.9563 103.183 97.9517C103.501 97.9427 103.813 97.9789 104.122 98.0515L103.822 99.4795C103.414 99.3525 103.02 99.3389 102.63 99.4296C102.24 99.5203 101.887 99.7333 101.569 100.06C101.338 100.3 101.17 100.563 101.062 100.853C100.953 101.143 100.903 101.433 100.912 101.733C100.921 102.027 100.989 102.317 101.116 102.603C101.243 102.889 101.424 103.142 101.66 103.369C101.891 103.591 102.145 103.759 102.431 103.877C102.716 103.995 103.006 104.054 103.301 104.054C103.596 104.054 103.886 103.995 104.167 103.881C104.448 103.768 104.706 103.591 104.938 103.351C105.282 102.993 105.491 102.603 105.554 102.177C105.618 101.751 105.568 101.338 105.405 100.93L106.792 100.486C106.905 100.808 106.973 101.139 107 101.479C107.023 101.819 107 102.15 106.937 102.476V102.476ZM112.368 96.0387L106.044 92.4301L108.469 88.1779L109.621 88.8352L107.889 91.868L109.308 92.6795L111.039 89.6467L112.191 90.304L110.459 93.3368L111.896 94.1573L113.628 91.1245L114.789 91.7864L112.363 96.0387H112.368ZM114.594 57.4555L111.638 58.1672L111.307 56.7891L114.294 56.0683L117.808 52.6773L118.17 54.1779L115.745 56.4536L118.941 57.3739L119.299 58.8653L114.598 57.4464L114.594 57.4555Z" fill="#36B37E"/>
<g clip-path="url(#clip0_333_2617)">
<path d="M44.1109 73.8799C44.274 74.1847 44.5917 74.375 44.9375 74.375H49.625V88.0625C49.625 88.5802 50.0447 89 50.5625 89H85.4375C85.9553 89 86.375 88.5802 86.375 88.0625V74.375H91.0625C91.4082 74.375 91.726 74.1847 91.8891 73.8799C92.0522 73.575 92.0343 73.2052 91.8425 72.9175L86.2175 64.48C86.0437 64.2192 85.7509 64.0625 85.4375 64.0625H81.875C81.3572 64.0625 80.9375 64.4822 80.9375 65C80.9375 65.5178 81.3572 65.9375 81.875 65.9375H84.9357L89.3108 72.5H74.1267L69.7517 65.9375H73.4375C73.9553 65.9375 74.375 65.5178 74.375 65C74.375 64.4822 73.9553 64.0625 73.4375 64.0625C72.3669 64.0625 51.5986 64.0625 50.5625 64.0625C50.249 64.0625 49.9563 64.2192 49.7825 64.48L44.1575 72.9175C43.9657 73.2052 43.9478 73.575 44.1109 73.8799V73.8799ZM51.5 74.375H62.375C62.6885 74.375 62.9812 74.2183 63.155 73.9575L67.0625 68.0963V87.125H51.5V74.375ZM72.845 73.9575C73.0188 74.2183 73.3116 74.375 73.625 74.375H84.5V87.125H68.9375V68.0963L72.845 73.9575ZM51.0642 65.9375H66.2483L61.8732 72.5H46.6892L51.0642 65.9375Z" fill="white"/>
<path d="M62.375 43.3466C61.6092 42.2212 60.2873 41 58.1562 41C55.152 41 53 43.4211 53 46.3409C53 49.5827 55.6236 51.7119 59.595 54.9346C60.2909 55.4993 61.0105 56.0832 61.7749 56.7202C61.9487 56.865 62.1618 56.9374 62.375 56.9374C62.5882 56.9374 62.8013 56.865 62.9751 56.7202C63.7395 56.0832 64.4591 55.4993 65.155 54.9346C69.1264 51.7119 71.75 49.5827 71.75 46.3409C71.75 43.4187 69.5957 41 66.5938 41C64.4627 41 63.1408 42.2212 62.375 43.3466ZM69.875 46.3409C69.875 48.6896 67.5273 50.5948 63.9735 53.4787C63.4571 53.8977 62.9277 54.3274 62.375 54.7827C61.8223 54.3275 61.2929 53.8978 60.7765 53.4787C57.2228 50.5948 54.875 48.6897 54.875 46.3409C54.875 44.3651 56.2857 42.875 58.1562 42.875C60.6038 42.875 61.4407 45.6001 61.4742 45.7126C61.5898 46.1142 61.9572 46.3906 62.375 46.3906C62.7928 46.3906 63.1602 46.1141 63.2758 45.7126C63.2841 45.6842 64.1217 42.875 66.5938 42.875C68.4643 42.875 69.875 44.3651 69.875 46.3409Z" fill="white"/>
<path d="M79.25 59.75C79.4704 59.75 79.6907 59.6727 79.8674 59.518C80.3767 59.0723 80.8567 58.6632 81.3208 58.2677C83.9284 56.0454 85.8125 54.4398 85.8125 52.0512C85.8125 49.797 84.1653 48.0312 82.0625 48.0312C80.7243 48.0312 79.8271 48.7118 79.25 49.4407C78.6729 48.7118 77.7758 48.0312 76.4375 48.0312C74.3347 48.0312 72.6875 49.797 72.6875 52.0512C72.6875 54.4398 74.5716 56.0454 77.1792 58.2677C77.6434 58.6632 78.1233 59.0723 78.6326 59.518C78.8093 59.6727 79.0297 59.75 79.25 59.75ZM74.5625 52.0512C74.5625 51.0114 75.2196 49.9062 76.4375 49.9062C77.8194 49.9062 78.3238 51.6011 78.3471 51.6819C78.4602 52.0869 78.8286 52.3695 79.2493 52.3695C79.6716 52.3695 80.0411 52.0897 80.1528 51.6824C80.1735 51.61 80.677 49.9062 82.0625 49.9062C83.2804 49.9062 83.9375 51.0114 83.9375 52.0512C83.9375 53.5741 82.4948 54.8037 80.1046 56.8406C79.8267 57.0775 79.543 57.3192 79.25 57.5713C78.957 57.3192 78.6734 57.0775 78.3954 56.8406C76.0052 54.8037 74.5625 53.5741 74.5625 52.0512V52.0512Z" fill="white"/>
<path d="M77.6562 65.9375C78.174 65.9375 78.5938 65.5178 78.5938 65C78.5938 64.4822 78.174 64.0625 77.6562 64.0625C77.1385 64.0625 76.7188 64.4822 76.7188 65C76.7188 65.5178 77.1385 65.9375 77.6562 65.9375Z" fill="white"/>
</g>
<defs>
<clipPath id="clip0_333_2617">
<rect width="48" height="48" fill="white" transform="translate(44 41)"/>
</clipPath>
</defs>
</svg>
